<?xml version="1.0" encoding="UTF-8" standalone="no"?>
<!-- Created with Inkscape (http://www.inkscape.org/) -->

<svg
   xmlns:dc="http://purl.org/dc/elements/1.1/"
   xmlns:cc="http://creativecommons.org/ns#"
   xmlns:rdf="http://www.w3.org/1999/02/22-rdf-syntax-ns#"
   xmlns:svg="http://www.w3.org/2000/svg"
   xmlns="http://www.w3.org/2000/svg"
   xmlns:sodipodi="http://sodipodi.sourceforge.net/DTD/sodipodi-0.dtd"
   xmlns:inkscape="http://www.inkscape.org/namespaces/inkscape"
   width="64px"
   height="64px"
   id="svg4272"
   version="1.1"
   inkscape:version="0.48.5 r10040"
   sodipodi:docname="black_rook.svg">
  <defs
     id="defs4274" />
  <sodipodi:namedview
     id="base"
     pagecolor="#ffffff"
     bordercolor="#666666"
     borderopacity="1.0"
     inkscape:pageopacity="0.0"
     inkscape:pageshadow="2"
     inkscape:zoom="7.7781746"
     inkscape:cx="47.427784"
     inkscape:cy="16.572216"
     inkscape:current-layer="layer1"
     showgrid="true"
     inkscape:document-units="px"
     inkscape:grid-bbox="true"
     inkscape:window-width="1920"
     inkscape:window-height="1018"
     inkscape:window-x="0"
     inkscape:window-y="27"
     inkscape:window-maximized="1" />
  <metadata
     id="metadata4277">
    <rdf:RDF>
      <cc:Work
         rdf:about="">
        <dc:format>image/svg+xml</dc:format>
        <dc:type
           rdf:resource="http://purl.org/dc/dcmitype/StillImage" />
        <dc:title />
      </cc:Work>
    </rdf:RDF>
  </metadata>
  <g
     id="layer1"
     inkscape:label="Layer 1"
     inkscape:groupmode="layer">
    <path
       style="fill:#ffffff;fill-opacity:1;stroke:#000000;stroke-width:0.05323773px;stroke-linecap:butt;stroke-linejoin:miter;stroke-opacity:1"
       d="m 21.055052,46.709589 22.040509,0 1.773382,3.162021 -25.967268,-0.202695 z"
       id="path5469"
       inkscape:connector-curvature="0" />
    <path
       style="fill:#ffffff;fill-opacity:1;stroke:#000000;stroke-width:0.05323773px;stroke-linecap:butt;stroke-linejoin:miter;stroke-opacity:1"
       d="m 19.535022,16.183974 25.249467,0.04056 -2.153377,3.89172 -21.57606,-0.729706 z"
       id="path5467"
       inkscape:connector-curvature="0" />
    <path
       style="fill:none;stroke:#000000;stroke-width:1.59713221;stroke-linecap:butt;stroke-linejoin:miter;stroke-miterlimit:4;stroke-opacity:1;stroke-dasharray:none"
       d="m 15.722759,53.037219 32.536199,0 0.0097,3.078326 -32.543019,0 0.0024,-3.85967"
       id="path2985"
       inkscape:connector-curvature="0"
       sodipodi:nodetypes="ccccc" />
    <path
       style="fill:none;stroke:#000000;stroke-width:1.59713221;stroke-linecap:butt;stroke-linejoin:miter;stroke-miterlimit:4;stroke-opacity:1;stroke-dasharray:none"
       d="m 19.226422,53.029753 0.0091,-2.726558 25.947832,-0.373604 m 0,0 -0.905526,-1.46053 m 0,0 -1.015571,-1.637993 -22.221606,0.0095"
       id="path3024-5"
       inkscape:connector-curvature="0"
       sodipodi:nodetypes="cccccccc" />
    <path
       style="fill:none;stroke:#000000;stroke-width:1.59713221;stroke-linecap:butt;stroke-linejoin:miter;stroke-miterlimit:4;stroke-opacity:1;stroke-dasharray:none"
       d="m 45.034678,53.023165 0.02522,-2.71997 -25.920391,-0.373604 m 0,0 0.905526,-1.46053 m 0,0 1.015571,-1.637993"
       id="path3024-5-2"
       inkscape:connector-curvature="0"
       sodipodi:nodetypes="ccccccc" />
    <path
       style="fill:none;stroke:#000000;stroke-width:1.56740916;stroke-linecap:butt;stroke-linejoin:miter;stroke-miterlimit:4;stroke-opacity:1;stroke-dasharray:none"
       d="m 45.138478,9.6977814 -0.008,6.3628666 -25.859697,-7e-6 -0.0056,-3.181426 -0.0024,-3.1814336 5.180422,0 0,3.1814336 5.171946,0 0,-3.1814336 5.171947,0 0,3.1814336 5.171953,0 0,-3.1814336 5.957036,0.026555"
       id="path2985-7"
       inkscape:connector-curvature="0"
       sodipodi:nodetypes="cccccccccccccc" />
    <path
       style="fill:none;stroke:#000000;stroke-width:1.59713221;stroke-linecap:butt;stroke-linejoin:miter;stroke-miterlimit:4;stroke-opacity:1;stroke-dasharray:none"
       d="m 45.183363,16.45067 -0.905534,1.460529 m 0,0 -1.015572,1.638009 -22.173096,-0.0095"
       id="path3024-5-25"
       inkscape:connector-curvature="0"
       sodipodi:nodetypes="ccccc" />
    <path
       style="fill:none;stroke:#000000;stroke-width:1.59713221;stroke-linecap:butt;stroke-linejoin:miter;stroke-miterlimit:4;stroke-opacity:1;stroke-dasharray:none"
       d="m 19.196987,16.39115 0.905534,1.460522 m 0,0 1.015563,1.63801 c 5.648173,12.350104 -0.564785,27.400829 -0.09289,27.400829"
       id="path3024-5-25-0-0-1"
       inkscape:connector-curvature="0"
       sodipodi:nodetypes="ccccc" />
    <path
       style="fill:none;stroke:#000000;stroke-width:1.59713221;stroke-linecap:butt;stroke-linejoin:miter;stroke-miterlimit:4;stroke-opacity:1;stroke-dasharray:none"
       d="m 45.152528,16.495173 -0.905534,1.460528 m 0,0 -1.015564,1.638003 C 37.583259,31.9438 43.728869,47.02686 43.25697,47.02686"
       id="path3024-5-25-0-0-1-4"
       inkscape:connector-curvature="0"
       sodipodi:nodetypes="ccccc" />
    <path
       style="fill:#000000;stroke-width:30;stroke-miterlimit:4;stroke-dasharray:none"
       d="m 28.419554,20.197174 c -2.015949,0.01831 -4.039142,-0.02417 -6.050704,0.05249 -0.214222,0.297428 0.147685,0.672511 0.18995,0.997179 1.727762,4.858689 1.87828,10.116783 1.319041,15.192083 -0.363987,3.230449 -1.118955,6.39902 -1.965692,9.541415 0.130993,0.391376 0.759267,0.108086 1.100704,0.193976 6.392348,0 12.784698,0 19.177046,0 0.347617,-0.151629 -0.01889,-0.578257 -0.02314,-0.848662 -1.661005,-6.185859 -2.577458,-12.688814 -1.606371,-19.065944 0.311659,-1.97707 0.855102,-3.92504 1.543236,-5.812035 -0.101159,-0.335028 -0.631129,-0.166082 -0.904932,-0.22761 -4.25932,-0.04726 -8.519551,-0.02232 -12.779126,-0.02294 z"
       id="path3099"
       inkscape:connector-curvature="0" />
    <path
       style="fill:#000000;stroke-width:30;stroke-miterlimit:4;stroke-dasharray:none"
       d="m 19.965403,10.413295 c -0.09766,1.066381 -0.01465,2.164411 -0.04211,3.243101 0.03338,0.563238 -0.06708,1.152431 0.05051,1.699345 1.099438,0.09398 2.23197,0.01378 3.344195,0.04041 7.004082,0 14.008166,0 21.012249,0 0.339204,-0.219191 0.08167,-0.769785 0.162053,-1.125494 -0.01761,-1.268238 0.03506,-2.550108 -0.02617,-3.80988 -0.31407,-0.212424 -0.822995,-0.04041 -1.213471,-0.09599 -0.849515,0.01678 -1.71324,-0.03379 -2.55391,0.02509 -0.221241,0.30154 -0.04203,0.790166 -0.09998,1.165063 0,0.659395 0,1.31879 0,1.978193 -2.15931,0 -4.31862,0 -6.47793,0 -0.01784,-1.022345 0.03514,-2.058433 -0.02618,-3.072345 -0.314068,-0.212432 -0.823001,-0.04041 -1.213471,-0.096 -0.844959,0.03132 -1.716416,-0.06327 -2.544454,0.04848 -0.09781,1.025272 -0.01417,2.08234 -0.04211,3.11985 -2.181764,0 -4.363521,0 -6.545284,0 -0.01785,-1.022345 0.03514,-2.058433 -0.02609,-3.072353 -0.314069,-0.212424 -0.823003,-0.04041 -1.213471,-0.09599 -0.843871,0.03131 -1.718026,-0.06328 -2.544455,0.04848 z"
       id="path3101"
       inkscape:connector-curvature="0" />
    <path
       style="fill:#000000;stroke-width:30;stroke-miterlimit:4;stroke-dasharray:none"
       d="m 30.05271,50.817775 c -3.325447,0.02793 -6.652487,0.04155 -9.975765,0.165689 -0.322674,0.221516 -0.07693,0.742221 -0.153631,1.087101 -0.0586,0.513326 0.650014,0.246107 0.970213,0.311176 7.767353,0 15.534698,0 23.302051,0 0.336643,-0.207322 0.08357,-0.74333 0.162052,-1.087101 0.05699,-0.510393 -0.658092,-0.263447 -0.980741,-0.347542 -4.439144,-0.137205 -8.883131,-0.128862 -13.324179,-0.129323 z"
       id="path3103"
       inkscape:connector-curvature="0" />
    <path
       style="fill:#ffffff;stroke:#000000;stroke-width:0.05323773px;stroke-linecap:butt;stroke-linejoin:miter;stroke-opacity:1"
       d="m 20.546703,49.147552 c 0,3.297673 0,3.297673 0,3.297673"
       id="path3107"
       inkscape:connector-curvature="0" />
    <path
       style="fill:none;stroke:#fffffd;stroke-width:1.63482463;stroke-linecap:butt;stroke-linejoin:miter;stroke-miterlimit:4;stroke-opacity:1;stroke-dasharray:none"
       d="m 19.794616,51.839744 24.792143,-0.01617"
       id="path3891"
       inkscape:connector-curvature="0" />
    <path
       style="fill:none;stroke:none"
       d="m 20.595445,52.239965 23.144047,-0.01146"
       id="path3893"
       inkscape:connector-curvature="0" />
    <path
       style="fill:#000000;stroke:none"
       d="m 16.463862,53.714224 c -0.133411,0.13792 -0.04259,0.346813 -0.06916,0.516519 0.0096,0.379586 -0.01921,0.764882 0.01441,1.140895 0.06468,0.180637 0.30792,0.0919 0.458078,0.112874 10.191005,0 20.382001,0 30.573004,0 0.224333,-0.02663 0.153103,-0.28018 0.16295,-0.430784 -0.0048,-0.410772 0.0097,-0.824431 -0.0071,-1.233417 -0.04658,-0.204051 -0.310008,-0.116254 -0.465291,-0.134658 -10.190995,0 -20.38199,0 -30.572994,0 -0.03122,0.0095 -0.06252,0.01902 -0.09375,0.02855 z"
       id="path3895"
       inkscape:connector-curvature="0" />
    <path
       style="fill:none;stroke:#ffffff;stroke-width:1.0947324;stroke-linecap:butt;stroke-linejoin:miter;stroke-miterlimit:4;stroke-opacity:1;stroke-dasharray:none"
       d="M 19.955116,14.6853 44.400873,14.66913"
       id="path3891-2"
       inkscape:connector-curvature="0" />
    <path
       style="fill:none;stroke:#ffffff;stroke-width:1.2302711;stroke-linecap:butt;stroke-linejoin:miter;stroke-miterlimit:4;stroke-opacity:1;stroke-dasharray:none"
       d="m 41.889719,44.987383 -19.453971,0"
       id="path3915-9"
       inkscape:connector-curvature="0" />
  </g>
</svg>
