<?xml version="1.0" encoding="UTF-8" standalone="no"?>
<!-- Created with Inkscape (http://www.inkscape.org/) -->

<svg
   xmlns:dc="http://purl.org/dc/elements/1.1/"
   xmlns:cc="http://creativecommons.org/ns#"
   xmlns:rdf="http://www.w3.org/1999/02/22-rdf-syntax-ns#"
   xmlns:svg="http://www.w3.org/2000/svg"
   xmlns="http://www.w3.org/2000/svg"
   xmlns:sodipodi="http://sodipodi.sourceforge.net/DTD/sodipodi-0.dtd"
   xmlns:inkscape="http://www.inkscape.org/namespaces/inkscape"
   width="64px"
   height="64px"
   id="svg3811"
   version="1.1"
   inkscape:version="0.48.5 r10040"
   sodipodi:docname="black_knight.svg">
  <defs
     id="defs3813" />
  <sodipodi:namedview
     id="base"
     pagecolor="#ffffff"
     bordercolor="#666666"
     borderopacity="1.0"
     inkscape:pageopacity="0.0"
     inkscape:pageshadow="2"
     inkscape:zoom="1.9445436"
     inkscape:cx="29.462002"
     inkscape:cy="31.519365"
     inkscape:current-layer="layer1"
     showgrid="true"
     inkscape:document-units="px"
     inkscape:grid-bbox="true"
     inkscape:window-width="1920"
     inkscape:window-height="1018"
     inkscape:window-x="0"
     inkscape:window-y="27"
     inkscape:window-maximized="1" />
  <metadata
     id="metadata3816">
    <rdf:RDF>
      <cc:Work
         rdf:about="">
        <dc:format>image/svg+xml</dc:format>
        <dc:type
           rdf:resource="http://purl.org/dc/dcmitype/StillImage" />
        <dc:title />
      </cc:Work>
    </rdf:RDF>
  </metadata>
  <g
     id="layer1"
     inkscape:label="Layer 1"
     inkscape:groupmode="layer">
    <path
       style="fill:#000000;fill-opacity:1;stroke:#000000;stroke-width:0.5;stroke-linecap:butt;stroke-linejoin:miter;stroke-opacity:1;stroke-miterlimit:4;stroke-dasharray:none"
       d="m 28.477247,14.386025 5.712785,0 1.245642,2.039175 -0.987925,5.971866 -5.669827,-6.663731 z"
       id="path4417"
       inkscape:connector-curvature="0" />
    <path
       style="fill:#000000;fill-opacity:1;stroke:#000000;stroke-width:2.017;stroke-linecap:butt;stroke-linejoin:miter;stroke-miterlimit:4;stroke-opacity:1;stroke-dasharray:none"
       d="m 34.04374,14.25829 c 0,0 10.388069,-0.123472 13.691453,9.065481 0,0 2.642696,4.954042 2.664034,16.251769 0,0 0.122023,6.939876 0.188759,16.43198 l -31.784542,0 0,-4.633049 c 0,-3.559544 2.62288,-4.294044 2.62288,-4.294044 16.751326,-3.89855 11.160941,-15.999872 11.160941,-15.999872"
       id="path2991"
       inkscape:connector-curvature="0"
       sodipodi:nodetypes="cccccscc" />
    <path
       style="fill:#000000;fill-opacity:1;stroke:#000000;stroke-width:2.017;stroke-linecap:butt;stroke-linejoin:miter;stroke-miterlimit:4;stroke-opacity:1;stroke-dasharray:none"
       d="m 34.338147,15.106188 c 0,-3.355953 -3.017869,-7.0315365 -3.017869,-7.0315365 0,0 -3.017879,3.6755835 -3.017879,7.0315365"
       id="path2993"
       inkscape:connector-curvature="0"
       sodipodi:nodetypes="ccc" />
    <path
       style="fill:#000000;fill-opacity:1;stroke:#000000;stroke-width:2.017;stroke-linecap:butt;stroke-linejoin:miter;stroke-miterlimit:4;stroke-opacity:1;stroke-dasharray:none"
       d="m 37.927136,23.970027 c 0.336289,7.199569 -6.456552,8.307199 -6.456552,8.307199 -6.053023,0 -8.070698,2.769065 -8.070698,2.769065 -2.286695,4.0613 -4.371634,2.892147 -4.371634,2.892147 -1.277856,-0.799969 0.134518,-2.39987 0.134518,-2.39987 -1.008843,1.538369 -0.724452,1.133171 -2.219447,1.169164 -2.555722,0.06152 -3.430045,-2.645997 -3.430045,-2.645997 -0.672556,-1.784509 2.219445,-2.953672 2.219445,-2.953672 4.573396,-2.645999 7.494065,-6.949297 7.868925,-8.122594 1.049202,-3.283909 0.390615,-1.730688 1.334546,-3.457956 1.521817,-2.78475 3.424103,-4.873308 3.424103,-4.873308"
       id="path3013"
       inkscape:connector-curvature="0"
       sodipodi:nodetypes="cccccsccssc" />
    <path
       style="fill:#000000;fill-opacity:1;stroke:#000000;stroke-width:2.017;stroke-linecap:butt;stroke-linejoin:miter;stroke-miterlimit:4;stroke-opacity:1;stroke-dasharray:none"
       d="m 33.152605,10.891781 c 1.101175,-1.3842676 4.254562,-3.079284 4.254562,-3.079284 1.268029,4.237545 -0.01673,7.034324 -0.01673,7.034324"
       id="path3017"
       inkscape:connector-curvature="0"
       sodipodi:nodetypes="ccc" />
    <path
       style="fill:#ffffff;fill-opacity:1;stroke:#ffffff;stroke-width:1;stroke-linecap:butt;stroke-linejoin:miter;stroke-miterlimit:4;stroke-opacity:1;stroke-dasharray:none"
       d="m 26.261865,21.739895 c 0.700755,-2.005769 4.004307,-2.316524 4.004307,-2.316524"
       id="path3019"
       inkscape:connector-curvature="0" />
    <path
       sodipodi:type="arc"
       style="fill:#ffffff;fill-opacity:1;stroke:#ffffff;stroke-width:16.45026051;stroke-miterlimit:4;stroke-opacity:1;stroke-dasharray:none"
       id="path3023"
       sodipodi:cx="331.07748"
       sodipodi:cy="364.4483"
       sodipodi:rx="12.374369"
       sodipodi:ry="12.626906"
       d="m 343.45185,364.4483 a 12.374369,12.626906 0 1 1 -24.74873,0 12.374369,12.626906 0 1 1 24.74873,0 z"
       transform="matrix(0.06606756,0,0,0.05593275,6.9897056,0.98236481)" />
    <path
       style="fill:#ffffff;fill-opacity:1;stroke:#ffffff;stroke-width:1.2;stroke-linecap:butt;stroke-linejoin:miter;stroke-miterlimit:4;stroke-opacity:1;stroke-dasharray:none"
       d="M 16.258711,33.931018 C 15.904783,32.872296 17.816014,32.71249 17.816014,32.71249"
       id="path3766"
       inkscape:connector-curvature="0" />
    <path
       style="fill:#ffffff;fill-opacity:1;stroke:#ffffff;stroke-width:1;stroke-linecap:butt;stroke-linejoin:miter;stroke-miterlimit:4;stroke-opacity:1;stroke-dasharray:none"
       d="m 34.510046,17.61149 c 17.552179,-3.107547 12.94723,36.329897 12.94723,36.329897 L 44.84581,53.884897 C 50.093036,15.085538 34.510046,17.611514 34.510046,17.611514"
       id="path3790"
       inkscape:connector-curvature="0"
       sodipodi:nodetypes="cccc" />
    <path
       style="fill:#ffffff;fill-opacity:1;stroke:#ffffff;stroke-width:1;stroke-linecap:butt;stroke-linejoin:miter;stroke-miterlimit:4;stroke-opacity:1;stroke-dasharray:none"
       d="m 18.701941,36.717295 c 2.027532,-1.068222 2.286153,-1.498988 2.286153,-1.498988"
       id="path3025"
       inkscape:connector-curvature="0"
       sodipodi:nodetypes="cc" />
    <path
       style="fill:#000000;fill-opacity:1;stroke:#000000;stroke-width:2.017;stroke-linecap:butt;stroke-linejoin:miter;stroke-opacity:1;stroke-miterlimit:4;stroke-dasharray:none"
       d="m 37.113956,11.204259 -5.315191,0 0.850431,3.604784 3.918055,-0.386227 z"
       id="path4421"
       inkscape:connector-curvature="0" />
    <path
       style="fill:none;stroke:#ffffff;stroke-width:1;stroke-linecap:butt;stroke-linejoin:miter;stroke-opacity:1;stroke-miterlimit:4;stroke-dasharray:none"
       d="m 32.983293,9.6092818 c 1.063038,1.9697592 1.457881,4.7105372 1.457881,4.7105372"
       id="path4423"
       inkscape:connector-curvature="0"
       sodipodi:nodetypes="cc" />
    <path
       style="fill:none;stroke:#ffffff;stroke-width:1;stroke-linecap:butt;stroke-linejoin:miter;stroke-opacity:1;stroke-miterlimit:4;stroke-dasharray:none"
       d="M 32.048278,32.602221 C 39.762899,31.340546 38.2139,24.439957 38.2139,24.439957"
       id="path4475"
       inkscape:connector-curvature="0"
       sodipodi:nodetypes="cc" />
  </g>
</svg>
