<?xml version="1.0" encoding="UTF-8" standalone="no"?>
<!-- Created with Inkscape (http://www.inkscape.org/) -->

<svg
   xmlns:dc="http://purl.org/dc/elements/1.1/"
   xmlns:cc="http://creativecommons.org/ns#"
   xmlns:rdf="http://www.w3.org/1999/02/22-rdf-syntax-ns#"
   xmlns:svg="http://www.w3.org/2000/svg"
   xmlns="http://www.w3.org/2000/svg"
   xmlns:sodipodi="http://sodipodi.sourceforge.net/DTD/sodipodi-0.dtd"
   xmlns:inkscape="http://www.inkscape.org/namespaces/inkscape"
   width="64px"
   height="64px"
   id="svg3853"
   version="1.1"
   inkscape:version="0.48.5 r10040"
   sodipodi:docname="K_black_square.svg">
  <defs
     id="defs3855" />
  <sodipodi:namedview
     id="base"
     pagecolor="#ffffff"
     bordercolor="#666666"
     borderopacity="1.0"
     inkscape:pageopacity="0.0"
     inkscape:pageshadow="2"
     inkscape:zoom="5.5"
     inkscape:cx="35.486079"
     inkscape:cy="25.351174"
     inkscape:current-layer="layer1"
     showgrid="true"
     inkscape:document-units="px"
     inkscape:grid-bbox="true"
     inkscape:window-width="1920"
     inkscape:window-height="1018"
     inkscape:window-x="0"
     inkscape:window-y="27"
     inkscape:window-maximized="1" />
  <metadata
     id="metadata3858">
    <rdf:RDF>
      <cc:Work
         rdf:about="">
        <dc:format>image/svg+xml</dc:format>
        <dc:type
           rdf:resource="http://purl.org/dc/dcmitype/StillImage" />
        <dc:title />
      </cc:Work>
    </rdf:RDF>
  </metadata>
  <g
     id="layer1"
     inkscape:label="Layer 1"
     inkscape:groupmode="layer">
    <path
       style="fill:#000000;stroke:#000000;stroke-width:1px;stroke-linecap:butt;stroke-linejoin:miter;stroke-opacity:1;fill-opacity:1"
       d="m 26.034386,50.114994 -0.642824,-7.199633 4.306923,-4.306923 1.349931,-6.235396 -0.449977,-6.428243 -0.51426,-2.89271 c 0,0 4.821183,-1.864191 4.242641,0.192847 -0.578542,2.057038 -0.578542,2.057038 -0.578542,2.057038 l 0.06428,7.713892 2.057038,7.64961 3.278404,3.214122 -0.449977,6.621091 z"
       id="path4524"
       inkscape:connector-curvature="0" />
    <path
       style="fill:#000000;fill-opacity:1;stroke:#000000;stroke-width:1px;stroke-linecap:butt;stroke-linejoin:miter;stroke-opacity:1"
       d="m 36.608846,20.255804 7.39248,-0.964237 8.870975,3.728381 1.671344,6.878221 -4.49977,9.256671 -3.496086,7.827131 -1.260814,5.543615 -6.878221,-2.699862 0.642824,-7.39248 3.197738,-2.482974 2.844811,-2.852468 2.89271,-5.27116 -0.321412,-3.985511 -4.949748,-2.185603 -5.785419,0.449978 -3.471251,1.735625 0.930357,-3.324069 z"
       id="path4504-5"
       inkscape:connector-curvature="0"
       sodipodi:nodetypes="cccccccccccccccccc" />
    <path
       style="fill:#000000;fill-opacity:1;stroke:#000000;stroke-width:1px;stroke-linecap:butt;stroke-linejoin:miter;stroke-opacity:1"
       d="m 27.962859,20.223662 -7.39248,-0.964237 -9.25667,3.664099 -1.8641911,6.942503 5.0783121,9.256671 4.7569,13.370746 6.878221,-2.699862 -0.642824,-7.39248 -3.197738,-2.482974 -2.844811,-2.852468 -2.89271,-5.27116 0.321412,-3.985511 4.949748,-2.185603 5.785419,0.449978 3.471251,1.735625 -0.930357,-3.324069 z"
       id="path4504"
       inkscape:connector-curvature="0"
       sodipodi:nodetypes="ccccccccccccccccc" />
    <path
       style="fill:#000000;fill-opacity:1;stroke:#ffffff;stroke-width:2.09541082;stroke-linecap:butt;stroke-linejoin:miter;stroke-miterlimit:4;stroke-opacity:1;stroke-dasharray:none"
       d="m 19.017375,62.137275 26.932535,0 c -2.78933,-5.24031 -1.022754,-9.96091 -1.022754,-9.96091 -13.247037,-4.56749 -25.940771,-0.0433 -25.940771,-0.0433"
       id="path2985-6"
       inkscape:connector-curvature="0"
       sodipodi:nodetypes="cccc" />
    <path
       style="fill:#000000;fill-opacity:1;stroke:#000000;stroke-width:0.06984702px;stroke-linecap:butt;stroke-linejoin:miter;stroke-opacity:1"
       d="m 40.910193,58.752015 4.054944,0.0349 0.803999,3.10527 -3.880164,-0.3838 z"
       id="path4752"
       inkscape:connector-curvature="0" />
    <path
       style="fill:#ffffff;fill-opacity:1;stroke:#ffffff;stroke-width:0.05927863px;stroke-linecap:butt;stroke-linejoin:miter;stroke-opacity:1"
       d="m 20.023675,58.598195 c 1.45698,-2.54102 3.38564,-3.34678 3.38564,-3.34678 0,0 -1.94718,-0.35585 -3.40416,-2.89685"
       id="path5518-5-82-2"
       inkscape:connector-curvature="0"
       sodipodi:nodetypes="ccc" />
    <path
       style="fill:#ffffff;fill-opacity:1;stroke:#ffffff;stroke-width:0.05927863px;stroke-linecap:butt;stroke-linejoin:miter;stroke-opacity:1"
       d="m 44.129107,58.598185 c -1.456979,-2.54102 -3.385632,-3.34678 -3.385632,-3.34678 0,0 1.947174,-0.35585 3.404154,-2.89685"
       id="path5518-5-82"
       inkscape:connector-curvature="0"
       sodipodi:nodetypes="ccc" />
    <path
       style="fill:#ffffff;stroke:#ffffff;stroke-width:2.09541082;stroke-linecap:butt;stroke-linejoin:miter;stroke-miterlimit:4;stroke-opacity:1;stroke-dasharray:none"
       d="m 19.267205,58.683645 25.706637,0"
       id="path3202"
       inkscape:connector-curvature="0" />
    <path
       style="fill:none;stroke:#000000;stroke-width:2.09541082;stroke-linecap:butt;stroke-linejoin:miter;stroke-miterlimit:4;stroke-opacity:1;stroke-dasharray:none"
       d="m 18.981295,62.137295 26.932534,0 c -1.356117,-4.75183 -0.795538,-9.96091 -0.795538,-9.96091 -13.247036,-4.56748 -26.167986,-0.0433 -26.167986,-0.0433 -1.14782,-7.48185 -7.3401,-17.84935 -7.3401,-17.84935 -5.3932804,-9.96876 2.09738,-12.66033 2.09738,-12.66033 7.19104,-4.28656 18.377094,0.0997 18.377094,0.0997"
       id="path2985-6-3-4"
       inkscape:connector-curvature="0"
       sodipodi:nodetypes="ccccccc" />
    <path
       style="fill:none;stroke:#000000;stroke-width:2.09541082;stroke-linecap:butt;stroke-linejoin:miter;stroke-miterlimit:4;stroke-opacity:1;stroke-dasharray:none"
       d="m 45.019786,62.137285 -26.932531,0 c 1.89948,-4.58651 0.87445,-9.93624 0.87445,-9.93624 13.247033,-4.46282 26.089073,0.0122 26.089073,0.0122 1.147822,-7.48185 7.340102,-17.92954 7.340102,-17.92954 5.39328,-9.96874 -2.097385,-12.66031 -2.097385,-12.66031 -7.191035,-4.28656 -18.37709,0.0997 -18.37709,0.0997"
       id="path2985-6-3"
       inkscape:connector-curvature="0"
       sodipodi:nodetypes="ccccccc" />
    <path
       style="fill:#000000;fill-opacity:1;stroke:#000000;stroke-width:0.06984702px;stroke-linecap:butt;stroke-linejoin:miter;stroke-opacity:1"
       d="m 32.226457,15.332475 -4.060802,2.87244 0.49436,3.5245 2.20696,2.9958 3.495816,0.0353 2.295237,-3.98266 -1.235897,-3.75358 z"
       id="path4722"
       inkscape:connector-curvature="0" />
    <path
       style="fill:none;fill-opacity:1;stroke:#000000;stroke-width:0.06984702000000000px;stroke-linecap:butt;stroke-linejoin:miter;stroke-opacity:1"
       d="m 29.769085,27.255745 -9.33836,-1.29594 -4.0949,3.78812 0.89888,5.28344 4.54434,4.48594 3.39576,2.7414 3.54558,-2.54202 1.94758,-7.92517 z"
       id="path4162"
       inkscape:connector-curvature="0" />
    <path
       style="fill:none;stroke:#000000;stroke-width:2.09541082;stroke-linecap:butt;stroke-linejoin:miter;stroke-miterlimit:4;stroke-opacity:1;stroke-dasharray:none"
       d="m 32.962208,15.356155 c 0,0 -4.288033,-0.25417 -5.134033,4.03887 0,0 0.17301,1.63629 2.0111,3.69094 0,0 1.24135,1.39062 0.96993,5.00356 0,0 0.907449,11.57732 -5.28483,14.76731 -5.2934,-3.48906 -7.34085,-7.1775 -7.34085,-7.1775 -5.19353,-7.82547 2.34707,-9.66969 2.34707,-9.66969 7.44073,-1.09656 10.28718,1.94391 10.28718,1.94391"
       id="path3142"
       inkscape:connector-curvature="0"
       sodipodi:nodetypes="cccccccc" />
    <path
       style="fill:none;stroke:#000000;stroke-width:2.07708931;stroke-linecap:butt;stroke-linejoin:miter;stroke-miterlimit:4;stroke-opacity:1;stroke-dasharray:none"
       d="m 27.655825,7.3233746 9.125187,0"
       id="path3974"
       inkscape:connector-curvature="0" />
    <path
       style="fill:#ffffff;fill-opacity:1;stroke:#ffffff;stroke-width:0.01136801;stroke-miterlimit:4;stroke-opacity:1;stroke-dasharray:none"
       d="m 31.801457,50.436045 c -0.0561,0.0683 -0.01797,0.18258 -0.02913,0.27151 0,2.40326 0,4.80654 0,7.2098 0.0064,0.0924 0.0968,0.0838 0.123037,0.0122 0.388865,-0.55912 0.815257,-1.06853 1.272111,-1.53118 0.818856,-0.83668 1.717423,-1.53353 2.662768,-2.09582 0.05876,-0.0151 0.08144,-0.12646 0.02045,-0.15886 -0.382402,-0.22796 -0.760933,-0.46912 -1.124736,-0.74525 -0.766568,-0.57787 -1.498531,-1.24701 -2.155564,-2.0226 -0.244828,-0.30007 -0.480717,-0.61318 -0.710376,-0.93102 -0.01815,-0.0217 -0.03675,-0.0145 -0.05856,-0.008 z"
       id="path5768"
       inkscape:connector-curvature="0" />
    <path
       style="fill:#ffffff;fill-opacity:1;stroke:#ffffff;stroke-width:0.01136801;stroke-miterlimit:4;stroke-opacity:1;stroke-dasharray:none"
       d="m 32.032389,50.436065 c 0.0561,0.0683 0.01797,0.18258 0.02913,0.27151 0,2.40327 0,4.80654 0,7.2098 -0.0064,0.0924 -0.0968,0.0838 -0.123038,0.0122 -0.388856,-0.55912 -0.815256,-1.06853 -1.272106,-1.53117 -0.81886,-0.83669 -1.71742,-1.53353 -2.66277,-2.09582 -0.0588,-0.0151 -0.0814,-0.12647 -0.0204,-0.15886 0.3824,-0.22797 0.76093,-0.46913 1.12473,-0.74525 0.76657,-0.57787 1.49853,-1.24702 2.15557,-2.02261 0.24482,-0.30007 0.48071,-0.61316 0.710369,-0.93102 0.01815,-0.0217 0.03675,-0.0145 0.05856,-0.008 z"
       id="path5768-0"
       inkscape:connector-curvature="0" />
    <path
       style="fill:none;fill-opacity:1;stroke:#000000;stroke-width:0.06984702000000000px;stroke-linecap:butt;stroke-linejoin:miter;stroke-opacity:1"
       d="m 33.614288,27.704335 8.789043,-2.19312 5.293402,3.73828 -0.799004,5.5825 -5.842717,7.12766 -3.09614,0.7975 -3.54558,-6.08094 z"
       id="path4166"
       inkscape:connector-curvature="0" />
    <path
       style="fill:none;stroke:#000000;stroke-width:2.09541082;stroke-linecap:butt;stroke-linejoin:miter;stroke-miterlimit:4;stroke-opacity:1;stroke-dasharray:none"
       d="m 31.047705,15.268905 c 0,0 4.427856,-0.16694 5.273858,4.1261 0,0 -0.173008,1.63629 -2.011098,3.69094 0,0 -1.241345,1.39062 -0.969933,5.00356 0,0 -0.907446,11.57732 5.284835,14.76731 5.2934,-3.48906 7.340847,-7.1775 7.340847,-7.1775 5.193527,-7.82547 -2.347073,-9.66969 -2.347073,-9.66969 -7.440725,-1.09656 -10.287176,1.94391 -10.287176,1.94391"
       id="path3142-1"
       inkscape:connector-curvature="0"
       sodipodi:nodetypes="cccccccc" />
    <path
       style="fill:none;stroke:#000000;stroke-width:2.09541082;stroke-linecap:butt;stroke-linejoin:miter;stroke-miterlimit:4;stroke-opacity:1;stroke-dasharray:none"
       d="m 32.218409,15.985105 0,-14.0562304"
       id="path3204"
       inkscape:connector-curvature="0"
       sodipodi:nodetypes="cc" />
    <path
       style="fill:#000000;fill-opacity:1;stroke:#000000;stroke-width:0.06984702px;stroke-linecap:butt;stroke-linejoin:miter;stroke-opacity:0"
       d="m 32.716189,24.721645 -0.01639,0.0682 -1.004997,-0.0343 -0.01284,-0.0657 z"
       id="path4724"
       inkscape:connector-curvature="0"
       sodipodi:nodetypes="ccccc" />
    <path
       style="fill:none;stroke:#ffffff;stroke-width:2.09541082000000012;stroke-linecap:butt;stroke-linejoin:miter;stroke-miterlimit:4;stroke-opacity:1;stroke-dasharray:none"
       d="m 20.111125,51.765165 c 12.968829,-4.71023 23.732255,0.0226 23.732255,0.0226"
       id="path3009"
       inkscape:connector-curvature="0"
       sodipodi:nodetypes="cc" />
    <path
       style="fill:#ffffff;fill-opacity:1;stroke:#ffffff;stroke-width:0.06984702px;stroke-linecap:butt;stroke-linejoin:miter;stroke-opacity:1"
       d="m 44.211118,50.791005 -0.244089,2.21425 -0.540705,-0.2868 z"
       id="path3779"
       inkscape:connector-curvature="0"
       sodipodi:nodetypes="cccc" />
    <path
       style="fill:#ffffff;fill-opacity:1;stroke:#ffffff;stroke-width:0.06984702px;stroke-linecap:butt;stroke-linejoin:miter;stroke-opacity:1"
       d="m 19.795875,50.767645 0.36459,2.14334 0.45419,-0.24364 z"
       id="path3779-4"
       inkscape:connector-curvature="0"
       sodipodi:nodetypes="cccc" />
    <path
       style="fill:#000000;stroke:#000000;stroke-width:1px;stroke-linecap:butt;stroke-linejoin:miter;stroke-opacity:1;fill-opacity:1"
       d="m 18.795455,60.409091 c 10.931818,0.795454 26.590909,0.136364 26.590909,0.136364 l 0.181818,1.136363 -27.613636,0.25 z"
       id="path3013"
       inkscape:connector-curvature="0" />
  </g>
</svg>
