<?xml version="1.0" encoding="UTF-8" standalone="no"?>
<!-- Created with Inkscape (http://www.inkscape.org/) -->

<svg
   xmlns:osb="http://www.openswatchbook.org/uri/2009/osb"
   xmlns:dc="http://purl.org/dc/elements/1.1/"
   xmlns:cc="http://creativecommons.org/ns#"
   xmlns:rdf="http://www.w3.org/1999/02/22-rdf-syntax-ns#"
   xmlns:svg="http://www.w3.org/2000/svg"
   xmlns="http://www.w3.org/2000/svg"
   xmlns:sodipodi="http://sodipodi.sourceforge.net/DTD/sodipodi-0.dtd"
   xmlns:inkscape="http://www.inkscape.org/namespaces/inkscape"
   width="64px"
   height="64px"
   id="svg3853"
   version="1.1"
   inkscape:version="0.48.5 r10040"
   sodipodi:docname="black_king.svg">
  <defs
     id="defs3855">
    <linearGradient
       id="linearGradient5757"
       osb:paint="solid">
      <stop
         style="stop-color:#000000;stop-opacity:1;"
         offset="0"
         id="stop5759" />
    </linearGradient>
  </defs>
  <sodipodi:namedview
     id="base"
     pagecolor="#ffffff"
     bordercolor="#666666"
     borderopacity="1.0"
     inkscape:pageopacity="0.0"
     inkscape:pageshadow="2"
     inkscape:zoom="124.45079"
     inkscape:cx="31.33986"
     inkscape:cy="14.42316"
     inkscape:current-layer="layer1"
     showgrid="true"
     inkscape:document-units="px"
     inkscape:grid-bbox="true"
     inkscape:window-width="1920"
     inkscape:window-height="1018"
     inkscape:window-x="0"
     inkscape:window-y="27"
     inkscape:window-maximized="1" />
  <metadata
     id="metadata3858">
    <rdf:RDF>
      <cc:Work
         rdf:about="">
        <dc:format>image/svg+xml</dc:format>
        <dc:type
           rdf:resource="http://purl.org/dc/dcmitype/StillImage" />
        <dc:title />
      </cc:Work>
    </rdf:RDF>
  </metadata>
  <g
     id="layer1"
     inkscape:label="Layer 1"
     inkscape:groupmode="layer">
    <path
       style="fill:#000000;fill-opacity:1;stroke:#000000;stroke-width:0.84482646px;stroke-linecap:butt;stroke-linejoin:miter;stroke-opacity:1"
       d="m 26.895767,45.996639 -0.549951,-6.006388 3.684676,-3.593107 1.154897,-5.201959 -0.384966,-5.362845 -0.43996,-2.41328 c 0,0 4.124635,-1.555226 3.62968,0.160883 -0.494957,1.716112 -0.494957,1.716112 -0.494957,1.716112 l 0.055,6.435414 1.759845,6.381786 2.804752,2.681424 -0.384966,5.523731 z"
       id="path4524"
       inkscape:connector-curvature="0" />
    <path
       style="fill:#000000;fill-opacity:1;stroke:#000000;stroke-width:0.84482646px;stroke-linecap:butt;stroke-linejoin:miter;stroke-opacity:1"
       d="m 35.94247,21.086221 6.324442,-0.804427 7.58933,3.110451 1.429875,5.738245 -3.849661,7.722498 -2.990984,6.529886 -1.078657,4.624832 -5.884481,-2.252395 0.549951,-6.167271 2.73574,-2.071454 2.433804,-2.379709 2.474783,-4.397534 -0.274976,-3.324963 -4.234628,-1.823369 -4.949563,0.375402 -2.969738,1.447967 0.795943,-2.773149 z"
       id="path4504-5"
       inkscape:connector-curvature="0"
       sodipodi:nodetypes="cccccccccccccccccc" />
    <path
       style="fill:#000000;fill-opacity:1;stroke:#000000;stroke-width:0.84482646px;stroke-linecap:butt;stroke-linejoin:miter;stroke-opacity:1"
       d="m 28.545623,21.059407 -6.324442,-0.804428 -7.9193,3.056823 -1.594862,5.791873 4.344617,7.722499 4.06964,11.154719 5.884482,-2.252395 -0.549951,-6.167274 -2.73574,-2.071453 -2.433805,-2.379708 -2.474782,-4.397533 0.274976,-3.324965 4.234628,-1.823369 4.949564,0.375399 2.969737,1.44797 -0.795944,-2.773148 z"
       id="path4504"
       inkscape:connector-curvature="0"
       sodipodi:nodetypes="ccccccccccccccccc" />
    <path
       style="fill:#000000;fill-opacity:1;stroke:#ffffff;stroke-width:1.77025867;stroke-linecap:butt;stroke-linejoin:miter;stroke-miterlimit:4;stroke-opacity:1;stroke-dasharray:none"
       d="m 20.892547,56.026383 23.041425,0 C 41.547633,51.654586 43.05898,47.716365 43.05898,47.716365 31.725827,43.905876 20.866035,47.680238 20.866035,47.680238"
       id="path2985-6"
       inkscape:connector-curvature="0"
       sodipodi:nodetypes="cccc" />
    <path
       style="fill:#000000;fill-opacity:1;stroke:#000000;stroke-width:0.05900861px;stroke-linecap:butt;stroke-linejoin:miter;stroke-opacity:1"
       d="m 39.622373,53.202187 3.469102,0.02913 0.687839,2.590612 -3.319573,-0.32019 z"
       id="path4752"
       inkscape:connector-curvature="0" />
    <path
       style="fill:#ffffff;fill-opacity:1;stroke:#ffffff;stroke-width:0.05008016px;stroke-linecap:butt;stroke-linejoin:miter;stroke-opacity:1"
       d="m 21.753462,53.07386 c 1.246481,-2.11988 2.896496,-2.792096 2.896496,-2.792096 0,0 -1.665859,-0.296872 -2.912339,-2.416733"
       id="path5518-5-82-2"
       inkscape:connector-curvature="0"
       sodipodi:nodetypes="ccc" />
    <path
       style="fill:#ffffff;fill-opacity:1;stroke:#ffffff;stroke-width:0.05008016px;stroke-linecap:butt;stroke-linejoin:miter;stroke-opacity:1"
       d="m 42.376232,53.073852 c -1.24648,-2.11988 -2.896489,-2.792096 -2.896489,-2.792096 0,0 1.665854,-0.296871 2.912335,-2.416734"
       id="path5518-5-82"
       inkscape:connector-curvature="0"
       sodipodi:nodetypes="ccc" />
    <path
       style="fill:#ffffff;stroke:#ffffff;stroke-width:2.017;stroke-linecap:butt;stroke-linejoin:miter;stroke-miterlimit:4;stroke-opacity:1;stroke-dasharray:none"
       d="m 21.106284,53.145148 21.992639,0"
       id="path3202"
       inkscape:connector-curvature="0" />
    <path
       style="fill:none;stroke:#000000;stroke-width:2.017;stroke-linecap:butt;stroke-linejoin:miter;stroke-miterlimit:4;stroke-opacity:1;stroke-dasharray:none"
       d="m 20.861681,56.0264 23.041423,0 C 42.742913,52.062124 43.222502,47.716382 43.222502,47.716382 31.889346,43.905901 20.835169,47.680262 20.835169,47.680262 19.85318,41.438432 14.555539,32.78921 14.555539,32.78921 9.9414597,24.472643 16.349897,22.227166 16.349897,22.227166 c 6.152104,-3.576119 15.72204,0.08318 15.72204,0.08318"
       id="path2985-6-3-4"
       inkscape:connector-curvature="0"
       sodipodi:nodetypes="ccccccc" />
    <path
       style="fill:none;stroke:#000000;stroke-width:2.017;stroke-linecap:butt;stroke-linejoin:miter;stroke-miterlimit:4;stroke-opacity:1;stroke-dasharray:none"
       d="m 43.138229,56.026391 -23.041421,0 c 1.625051,-3.826355 0.748114,-8.289436 0.748114,-8.289436 11.333151,-3.723167 22.31982,0.01009 22.31982,0.01009 0.981991,-6.241805 6.279633,-14.957925 6.279633,-14.957925 4.614078,-8.316551 -1.794363,-10.562029 -1.794363,-10.562029 -6.1521,-3.576119 -15.722037,0.08318 -15.722037,0.08318"
       id="path2985-6-3"
       inkscape:connector-curvature="0"
       sodipodi:nodetypes="ccccccc" />
    <path
       style="fill:#ffffff;fill-opacity:1;stroke:#ffffff;stroke-width:0.06283948px;stroke-linecap:butt;stroke-linejoin:miter;stroke-opacity:1"
       d="m 42.446393,46.472065 -0.32246,2.094903 -0.34895,-0.271341 z"
       id="path3779"
       inkscape:connector-curvature="0"
       sodipodi:nodetypes="cccc" />
    <path
       style="fill:#000000;fill-opacity:1;stroke:#000000;stroke-width:0.05900861px;stroke-linecap:butt;stroke-linejoin:miter;stroke-opacity:1"
       d="m 32.193231,16.978872 -3.474111,2.396368 0.422936,2.940361 1.888107,2.499285 2.990754,0.02945 1.963628,-3.322588 -1.057338,-3.131472 z"
       id="path4722"
       inkscape:connector-curvature="0" />
    <path
       style="fill:none;stroke:#000000;stroke-width:0.05900861px;stroke-linecap:butt;stroke-linejoin:miter;stroke-opacity:1"
       d="m 30.090892,26.926015 -7.98919,-1.081155 -3.503283,3.160289 0.769013,4.407777 3.887791,3.742454 2.905155,2.287047 3.033326,-2.120712 1.666202,-6.611676 z"
       id="path4162"
       inkscape:connector-curvature="0" />
    <path
       style="fill:none;stroke:#000000;stroke-width:2.017;stroke-linecap:butt;stroke-linejoin:miter;stroke-miterlimit:4;stroke-opacity:1;stroke-dasharray:none"
       d="m 32.822684,16.998626 c 0,0 -3.668515,-0.212044 -4.392287,3.36948 0,0 0.148015,1.365097 1.720543,3.079216 0,0 1.062004,1.160142 0.8298,4.174285 0,0 0.776344,9.658528 -4.521298,12.319818 -4.528629,-2.910794 -6.280271,-5.987923 -6.280271,-5.987923 -4.443189,-6.528499 2.007973,-8.067064 2.007973,-8.067064 6.365721,-0.914819 8.800926,1.621732 8.800926,1.621732"
       id="path3142"
       inkscape:connector-curvature="0"
       sodipodi:nodetypes="cccccccc" />
    <path
       style="fill:none;stroke:#000000;stroke-width:2.017;stroke-linecap:butt;stroke-linejoin:miter;stroke-miterlimit:4;stroke-opacity:1;stroke-dasharray:none"
       d="m 28.282948,10.297175 7.806813,0"
       id="path3974"
       inkscape:connector-curvature="0" />
    <path
       style="fill:#ffffff;fill-opacity:1;stroke:#ffffff;stroke-width:0.00960400000000000;stroke-miterlimit:4;stroke-opacity:1;stroke-dasharray:none"
       d="m 31.920542,46.275844 c -0.309012,2.059656 -0.03412,4.23348 -0.02493,6.24138 0.0055,0.07709 0.08281,0.06991 0.105261,0.01009 0.332684,-0.466453 0.697472,-0.891435 1.088322,-1.277408 0.700551,-0.698011 1.469296,-1.279368 2.278061,-1.748464 0.05027,-0.01259 0.06967,-0.105501 0.01751,-0.132533 -0.327154,-0.190178 -0.650997,-0.39137 -0.962237,-0.621734 -0.655819,-0.482094 -1.282031,-1.040333 -1.844137,-1.687381 -0.198156,-0.28892 -0.482151,-0.576416 -0.657853,-0.783914 z"
       id="path5768"
       inkscape:connector-curvature="0"
       sodipodi:nodetypes="cccccccccc" />
    <path
       style="fill:#ffffff;fill-opacity:1;stroke:#ffffff;stroke-width:0.009604;stroke-miterlimit:4;stroke-opacity:1;stroke-dasharray:none"
       d="m 31.92493,46.264497 c 0.05637,2.12678 0.02493,4.39558 0.02493,6.24138 -0.0055,0.07709 -0.08281,0.06991 -0.105262,0.01009 -0.332676,-0.466454 -0.69747,-0.891436 -1.088318,-1.2774 -0.700553,-0.69802 -1.469293,-1.279367 -2.278062,-1.748464 -0.0503,-0.01259 -0.06963,-0.10551 -0.01747,-0.132532 0.327153,-0.190187 0.650994,-0.391378 0.962235,-0.621734 0.655818,-0.482096 1.282027,-1.040343 1.844141,-1.68739 0.209449,-0.250336 0.411257,-0.511536 0.534547,-0.647426 0.01553,-0.0181 0.123259,-0.136524 0.123259,-0.136524 z"
       id="path5768-0"
       inkscape:connector-curvature="0"
       sodipodi:nodetypes="cccccccccc" />
    <path
       style="fill:none;stroke:#000000;stroke-width:0.05900861px;stroke-linecap:butt;stroke-linejoin:miter;stroke-opacity:1"
       d="m 33.380554,27.300254 7.519236,-1.829636 4.528631,3.118707 -0.683567,4.657273 -4.998584,5.946344 -2.648822,0.665325 -3.033327,-5.073103 z"
       id="path4166"
       inkscape:connector-curvature="0" />
    <path
       style="fill:none;stroke:#000000;stroke-width:2.017;stroke-linecap:butt;stroke-linejoin:miter;stroke-miterlimit:4;stroke-opacity:1;stroke-dasharray:none"
       d="m 31.184781,16.925835 c 0,0 3.788136,-0.13927 4.511911,3.442253 0,0 -0.148013,1.365098 -1.720542,3.079216 0,0 -1.062001,1.160143 -0.829801,4.174285 0,0 -0.776341,9.65853 4.521303,12.319818 4.528629,-2.910793 6.280269,-5.987921 6.280269,-5.987921 4.443186,-6.5285 -2.007978,-8.067064 -2.007978,-8.067064 -6.365717,-0.914819 -8.800923,1.621732 -8.800923,1.621732"
       id="path3142-1"
       inkscape:connector-curvature="0"
       sodipodi:nodetypes="cccccccc" />
    <path
       style="fill:none;stroke:#000000;stroke-width:2.017;stroke-linecap:butt;stroke-linejoin:miter;stroke-miterlimit:4;stroke-opacity:1;stroke-dasharray:none"
       d="m 32.186347,17.523336 0,-11.7265935"
       id="path3204"
       inkscape:connector-curvature="0"
       sodipodi:nodetypes="cc" />
    <path
       style="fill:#000000;fill-opacity:1;stroke:#000000;stroke-width:0.05900861px;stroke-linecap:butt;stroke-linejoin:miter;stroke-opacity:0"
       d="m 32.612209,24.811909 -0.01402,0.05691 -0.8598,-0.02862 -0.01099,-0.05481 z"
       id="path4724"
       inkscape:connector-curvature="0"
       sodipodi:nodetypes="ccccc" />
    <path
       style="fill:none;stroke:#ffffff;stroke-width:2.01699996;stroke-linecap:butt;stroke-linejoin:miter;stroke-miterlimit:4;stroke-opacity:1;stroke-dasharray:none"
       d="m 21.828277,47.373316 c 11.095141,-3.929571 20.303508,0.01885 20.303508,0.01885"
       id="path3009"
       inkscape:connector-curvature="0"
       sodipodi:nodetypes="cc" />
    <path
       style="fill:#ffffff;fill-opacity:1;stroke:#ffffff;stroke-width:0.05900861px;stroke-linecap:butt;stroke-linejoin:miter;stroke-opacity:1"
       d="m 21.558573,46.54112 0.436917,1.91311 0.286296,-0.214622 z"
       id="path3779-4"
       inkscape:connector-curvature="0"
       sodipodi:nodetypes="cccc" />
    <path
       style="fill:#000000;fill-opacity:1;stroke:#000000;stroke-width:0.84482646px;stroke-linecap:butt;stroke-linejoin:miter;stroke-opacity:1"
       d="m 20.70269,54.584624 c 9.352432,0.663618 22.749156,0.113762 22.749156,0.113762 l 0.155548,0.948028 -23.624121,0.208563 z"
       id="path3013"
       inkscape:connector-curvature="0" />
    <path
       style="fill:#ffffff;stroke:#ffffff;stroke-width:0.01000000000000000;stroke-linecap:butt;stroke-linejoin:miter;stroke-opacity:1;stroke-miterlimit:4;stroke-dasharray:none;fill-opacity:1"
       d="m 28.718178,49.399852 1.920437,-1.566884 1.293684,-1.406179 1.807944,1.992756 1.518672,0.964236 -1.920437,1.470461 -1.124943,1.237437 c 0,0 0.008,1.494567 -0.39373,0.53033 C 31.41804,51.657773 31.41804,51.665808 31.41804,51.665808 l -1.390108,-1.245472 z"
       id="path6819"
       inkscape:connector-curvature="0" />
  </g>
</svg>
