<?xml version="1.0" encoding="UTF-8" standalone="no"?>
<!-- Created with Inkscape (http://www.inkscape.org/) -->

<svg
   xmlns:dc="http://purl.org/dc/elements/1.1/"
   xmlns:cc="http://creativecommons.org/ns#"
   xmlns:rdf="http://www.w3.org/1999/02/22-rdf-syntax-ns#"
   xmlns:svg="http://www.w3.org/2000/svg"
   xmlns="http://www.w3.org/2000/svg"
   xmlns:sodipodi="http://sodipodi.sourceforge.net/DTD/sodipodi-0.dtd"
   xmlns:inkscape="http://www.inkscape.org/namespaces/inkscape"
   width="64px"
   height="64px"
   id="svg4082"
   version="1.1"
   inkscape:version="0.48.5 r10040"
   sodipodi:docname="black_queen.svg">
  <defs
     id="defs4084" />
  <sodipodi:namedview
     id="base"
     pagecolor="#ffffff"
     bordercolor="#666666"
     borderopacity="1.0"
     inkscape:pageopacity="0.0"
     inkscape:pageshadow="2"
     inkscape:zoom="62.225395"
     inkscape:cx="35.309613"
     inkscape:cy="16.868491"
     inkscape:current-layer="layer1"
     showgrid="true"
     inkscape:document-units="px"
     inkscape:grid-bbox="true"
     inkscape:window-width="1920"
     inkscape:window-height="1018"
     inkscape:window-x="0"
     inkscape:window-y="27"
     inkscape:window-maximized="1"
     showguides="true"
     inkscape:guide-bbox="true" />
  <metadata
     id="metadata4087">
    <rdf:RDF>
      <cc:Work
         rdf:about="">
        <dc:format>image/svg+xml</dc:format>
        <dc:type
           rdf:resource="http://purl.org/dc/dcmitype/StillImage" />
        <dc:title />
      </cc:Work>
    </rdf:RDF>
  </metadata>
  <g
     id="layer1"
     inkscape:label="Layer 1"
     inkscape:groupmode="layer">
    <path
       style="fill:#000000;fill-opacity:1;stroke:#000000;stroke-width:0.00151946;stroke-miterlimit:4;stroke-opacity:1;stroke-dasharray:none"
       d="m 19.107697,46.163173 c -0.06033,0.04731 0.13276,-0.0016 0.12309,0.07393 -0.0097,0.59336 -0.0241,1.785612 -0.08408,2.374586 -0.06812,0.720257 -0.182783,1.433209 -0.295145,2.144451 7.67e-4,0.07943 0.08589,0.09546 0.11882,0.03676 0.268,-0.32087 0.526015,-0.655926 0.810816,-0.952239 0.473092,-0.497719 0.991823,-0.942584 1.56959,-1.226638 0.05708,-0.03461 0.133287,-0.03987 0.174834,-0.09978 0.02495,-0.05906 -0.01707,-0.116131 -0.0631,-0.12588 -0.471707,-0.200792 -0.903945,-0.526266 -1.304158,-0.89335 -0.288942,-0.268392 -0.564336,-0.552877 -0.819215,-0.869559 -0.02093,-0.01903 -0.20627,-0.469591 -0.231474,-0.462264 z"
       id="path5770"
       inkscape:connector-curvature="0"
       sodipodi:nodetypes="cccccccccccc" />
    <path
       style="fill:#000000;fill-opacity:1;stroke:#000000;stroke-width:0.06982245px;stroke-linecap:butt;stroke-linejoin:miter;stroke-opacity:1"
       d="m 18.431139,45.456238 -1.759871,-12.742829 -3.519753,-9.339463 9.867875,11.713897 2.074132,-19.074667 6.15957,18.283192 1.634162,-0.158293 5.342481,-17.412571 2.136991,14.879834 0.87994,2.849324 9.302194,-10.210094 -5.091064,14.167496 0,6.885881 -14.016152,-3.245073 z"
       id="path6542"
       inkscape:connector-curvature="0" />
    <path
       style="fill:#000000;fill-opacity:1;stroke:#000000;stroke-width:2.01678896;stroke-linecap:butt;stroke-linejoin:miter;stroke-miterlimit:4;stroke-opacity:1;stroke-dasharray:none"
       d="m 47.356247,55.901606 -30.953838,0 c 0.192236,-0.357208 0.380463,-0.721688 0.529268,-1.092232 0.502418,-1.251093 0.911461,-2.507308 1.148721,-3.876505 0.53065,-3.062286 0.384179,-3.356785 0.4587,-5.427995 15.100317,-6.55244 26.776669,0.0056 26.776669,0.0056"
       id="path4851"
       inkscape:connector-curvature="0"
       sodipodi:nodetypes="ccsscc" />
    <path
       sodipodi:type="arc"
       style="fill:#000000;stroke:#000000;stroke-width:20;stroke-miterlimit:4;stroke-opacity:1;stroke-dasharray:none"
       id="path5446-4"
       sodipodi:cx="377.85715"
       sodipodi:cy="303.07648"
       sodipodi:rx="25"
       sodipodi:ry="24.285713"
       d="m 402.85715,303.07648 a 25,24.285713 0 1 1 -50,0 25,24.285713 0 1 1 50,0 z"
       transform="matrix(0.08858762,0,0,0.09119315,-21.724226,-7.8166976)" />
    <path
       sodipodi:type="arc"
       style="fill:#000000;stroke:#000000;stroke-width:20;stroke-miterlimit:4;stroke-opacity:1;stroke-dasharray:none"
       id="path5446-4-7"
       sodipodi:cx="377.85715"
       sodipodi:cy="303.07648"
       sodipodi:rx="25"
       sodipodi:ry="24.285713"
       d="m 402.85715,303.07648 a 25,24.285713 0 1 1 -50,0 25,24.285713 0 1 1 50,0 z"
       transform="matrix(0.08858762,0,0,0.09119315,-8.7023813,-16.585302)" />
    <path
       sodipodi:type="arc"
       style="fill:#000000;stroke:#000000;stroke-width:20;stroke-miterlimit:4;stroke-opacity:1;stroke-dasharray:none;fill-opacity:1"
       id="path5446-4-8"
       sodipodi:cx="377.85715"
       sodipodi:cy="303.07648"
       sodipodi:rx="25"
       sodipodi:ry="24.285713"
       d="m 402.85715,303.07648 a 25,24.285713 0 1 1 -50,0 25,24.285713 0 1 1 50,0 z"
       transform="matrix(0.08858762,0,0,0.09119315,5.7347008,-16.585286)" />
    <path
       sodipodi:type="arc"
       style="fill:#000000;stroke:#000000;stroke-width:20;stroke-miterlimit:4;stroke-opacity:1;stroke-dasharray:none"
       id="path5446-4-1"
       sodipodi:cx="377.85715"
       sodipodi:cy="303.07648"
       sodipodi:rx="25"
       sodipodi:ry="24.285713"
       d="m 402.85715,303.07648 a 25,24.285713 0 1 1 -50,0 25,24.285713 0 1 1 50,0 z"
       transform="matrix(0.08858762,0,0,0.09119315,19.089578,-7.8169988)" />
    <path
       style="fill:none;stroke:#ffffff;stroke-width:2.18320894;stroke-linecap:butt;stroke-linejoin:miter;stroke-miterlimit:4;stroke-opacity:1;stroke-dasharray:none"
       d="m 18.103392,52.795806 27.569921,0"
       id="path5516"
       inkscape:connector-curvature="0" />
    <path
       style="fill:#ffffff;fill-opacity:1;stroke:#ffffff;stroke-width:0.0672263px;stroke-linecap:butt;stroke-linejoin:miter;stroke-opacity:1"
       d="m 18.7005,51.865353 c 1.791085,-2.658433 4.162006,-3.501437 4.162006,-3.501437 0,0 -2.393692,-0.37228 -4.184777,-3.030712"
       id="path5518-5"
       inkscape:connector-curvature="0"
       sodipodi:nodetypes="ccc" />
    <path
       style="fill:none;stroke:#000000;stroke-width:0.0672263px;stroke-linecap:butt;stroke-linejoin:miter;stroke-opacity:1"
       d="m 31.856286,51.653996 c 1.846072,-2.65857 4.497106,-3.981152 4.497106,-3.981152 0,0 -2.651034,-1.322561 -4.483688,-3.981122 -1.832649,2.658594 -4.48369,3.981162 -4.48369,3.981162 0,0 2.651041,1.322574 4.497105,3.981152"
       id="path5612-4-5"
       inkscape:connector-curvature="0"
       sodipodi:nodetypes="ccccc" />
    <path
       style="fill:#ffffff;fill-opacity:1;stroke:#ffffff;stroke-width:0.0120047;stroke-miterlimit:4;stroke-opacity:1;stroke-dasharray:none"
       d="m 31.977139,51.471712 c 0.0046,-2.556598 0.0046,-5.113213 -6.3e-5,-7.66982 -0.0054,-0.05395 -0.04209,-0.08461 -0.08418,-0.06881 l -2.1e-5,-1.2e-5 c -0.14909,0.188325 -0.284478,0.39416 -0.43892,0.576795 -0.948304,1.172889 -2.060708,2.12866 -3.245693,2.893875 -0.219688,0.146651 -0.452391,0.265603 -0.674087,0.408336 -0.05491,0.07233 0.0149,0.144757 0.06921,0.166341 1.084017,0.616074 2.108296,1.396809 3.034657,2.331403 0.441415,0.448165 0.854898,0.935912 1.234042,1.465542 0.05693,0.06641 0.12577,-0.02405 0.105055,-0.10365"
       id="path5758"
       inkscape:connector-curvature="0"
       sodipodi:nodetypes="ccccccccccc" />
    <path
       style="fill:#ffffff;fill-opacity:1;stroke:#ffffff;stroke-width:0.01203351;stroke-miterlimit:4;stroke-opacity:1;stroke-dasharray:none"
       d="m 32.082889,51.541014 c 0.42083,-0.57892 0.882265,-1.106368 1.376673,-1.585389 0.886166,-0.866315 1.858585,-1.587827 2.881637,-2.170023 0.06356,-0.01559 0.08813,-0.130938 0.02209,-0.164478 -0.413831,-0.236051 -0.823476,-0.485742 -1.21718,-0.77165 -0.829578,-0.598323 -1.621704,-1.291162 -2.332741,-2.094209 -0.26495,-0.310689 -0.52023,-0.634876 -0.768767,-0.963978 -0.01962,-0.02254 -0.03978,-0.01503 -0.06334,-0.0091 l 1e-6,9.2e-5 c -0.06072,0.07056 -0.01946,0.189043 -0.03152,0.281121 0,2.488368 0,4.976712 0,7.465064 0.0069,0.09576 0.104753,0.0868 0.133147,0.01255"
       id="path5768"
       inkscape:connector-curvature="0"
       sodipodi:nodetypes="cccccccccccc" />
    <path
       style="fill:#ffffff;fill-opacity:1;stroke:#ffffff;stroke-width:0.0672263px;stroke-linecap:butt;stroke-linejoin:miter;stroke-opacity:1"
       d="m 45.024748,51.880289 c -1.791084,-2.658441 -4.162006,-3.501445 -4.162006,-3.501445 0,0 2.393692,-0.37228 4.184777,-3.030713"
       id="path5518-5-82"
       inkscape:connector-curvature="0"
       sodipodi:nodetypes="ccc" />
    <path
       style="fill:none;stroke:#ffffff;stroke-width:1.85567772;stroke-linecap:butt;stroke-linejoin:miter;stroke-miterlimit:4;stroke-opacity:1;stroke-dasharray:none"
       d="m 18.117666,45.781664 c 15.362448,-6.728163 27.631945,0.03492 27.631945,0.03492"
       id="path3830"
       inkscape:connector-curvature="0"
       sodipodi:nodetypes="cc" />
    <path
       style="fill:none;stroke:#000000;stroke-width:2.017;stroke-linecap:butt;stroke-linejoin:miter;stroke-miterlimit:4;stroke-opacity:1;stroke-dasharray:none"
       d="m 47.360725,55.90159 -30.953837,0 c 0.943162,-1.845516 1.521647,-3.829987 1.817076,-5.881658 1.880715,-13.061031 -6.20685,-28.845992 -6.20685,-28.845992 7.552828,11.189901 10.816326,13.278675 10.816326,13.278675 1.578581,-6.456206 2.11687,-20.658466 2.11687,-20.658466 3.716915,18.42202 7.534537,21.751937 7.534537,21.751937"
       id="path4851-3-0"
       inkscape:connector-curvature="0"
       sodipodi:nodetypes="ccscccc" />
    <path
       style="fill:none;stroke:#000000;stroke-width:2.01678896;stroke-linecap:butt;stroke-linejoin:miter;stroke-miterlimit:4;stroke-opacity:1;stroke-dasharray:none"
       d="m 16.4024,55.901574 30.953839,0 C 46.413078,54.056066 45.834592,52.071595 45.539162,50.019916 43.658448,36.958893 51.746011,21.173924 51.746011,21.173924 44.193184,32.363833 40.929694,34.452608 40.929694,34.452608 39.351106,27.996401 38.812817,13.794133 38.812817,13.794133 35.095902,32.216153 31.342683,35.519228 31.342683,35.519228"
       id="path4851-3"
       inkscape:connector-curvature="0"
       sodipodi:nodetypes="ccscccc" />
    <path
       style="fill:#ffffff;fill-opacity:1;stroke:#ffffff;stroke-width:0.01000000000000000;stroke-linecap:butt;stroke-linejoin:miter;stroke-miterlimit:4;stroke-opacity:1;stroke-dasharray:none"
       d="m 27.753942,47.624049 2.346309,-1.526707 1.84812,-2.298097 2.298097,2.555226 1.671343,1.269578 c 0,0 -2.90878,1.83205 -3.326616,2.812357 -0.417836,0.980307 -0.337483,0.739248 -0.337483,0.739248 l -0.2732,0.401765 -1.237437,-1.430284 -2.008826,-2.298097 z"
       id="path6817"
       inkscape:connector-curvature="0"
       sodipodi:nodetypes="cccccsccccc" />
  </g>
</svg>
