<?xml version="1.0" encoding="UTF-8" standalone="no"?>
<!-- Created with Inkscape (http://www.inkscape.org/) -->

<svg
   xmlns:dc="http://purl.org/dc/elements/1.1/"
   xmlns:cc="http://creativecommons.org/ns#"
   xmlns:rdf="http://www.w3.org/1999/02/22-rdf-syntax-ns#"
   xmlns:svg="http://www.w3.org/2000/svg"
   xmlns="http://www.w3.org/2000/svg"
   xmlns:sodipodi="http://sodipodi.sourceforge.net/DTD/sodipodi-0.dtd"
   xmlns:inkscape="http://www.inkscape.org/namespaces/inkscape"
   width="64px"
   height="64px"
   id="svg3079"
   version="1.1"
   inkscape:version="0.48.5 r10040"
   sodipodi:docname="black_pawn.svg">
  <defs
     id="defs3081" />
  <sodipodi:namedview
     id="base"
     pagecolor="#ffffff"
     bordercolor="#666666"
     borderopacity="1.0"
     inkscape:pageopacity="0.0"
     inkscape:pageshadow="2"
     inkscape:zoom="3.8890873"
     inkscape:cx="34.873882"
     inkscape:cy="41.904153"
     inkscape:current-layer="layer1"
     showgrid="true"
     inkscape:document-units="px"
     inkscape:grid-bbox="true"
     inkscape:window-width="1920"
     inkscape:window-height="1018"
     inkscape:window-x="0"
     inkscape:window-y="27"
     inkscape:window-maximized="1" />
  <metadata
     id="metadata3084">
    <rdf:RDF>
      <cc:Work
         rdf:about="">
        <dc:format>image/svg+xml</dc:format>
        <dc:type
           rdf:resource="http://purl.org/dc/dcmitype/StillImage" />
        <dc:title />
      </cc:Work>
    </rdf:RDF>
  </metadata>
  <g
     id="layer1"
     inkscape:label="Layer 1"
     inkscape:groupmode="layer">
    <path
       style="fill:#000000;stroke:#000000;stroke-width:2.017;stroke-linecap:butt;stroke-linejoin:miter;stroke-miterlimit:4;stroke-opacity:1;stroke-dasharray:none;fill-opacity:1"
       d="m 31.999599,56.203941 -14.294861,0 -0.484515,-3.601112 c -0.314784,-1.454417 4.72173,-1.906899 4.72173,-1.906899 2.798059,-0.387848 4.896608,-1.551373 4.896608,-1.551373 3.707427,-2.908842 2.868012,-16.935885 2.868012,-16.935885 -5.456218,-1.228168 -9.303552,-0.193913 -9.303552,-0.193913 3.427622,-4.848052 9.093693,-4.912695 9.093693,-4.912695"
       id="path2985"
       inkscape:connector-curvature="0"
       sodipodi:nodetypes="cccccccc" />
    <path
       style="fill:#000000;stroke:#000000;stroke-width:2.017;stroke-linecap:butt;stroke-linejoin:miter;stroke-miterlimit:4;stroke-opacity:1;stroke-dasharray:none;fill-opacity:1"
       d="m 32.000401,56.203941 14.294861,0 0.484515,-3.601112 c 0.314785,-1.454417 -4.72173,-1.906899 -4.72173,-1.906899 -2.798059,-0.387848 -4.8966,-1.55138 -4.8966,-1.55138 -3.707436,-2.908835 -2.86802,-16.935878 -2.86802,-16.935878 5.456226,-1.228168 9.30356,-0.19392 9.30356,-0.19392 -3.427629,-4.848052 -9.093701,-4.912688 -9.093701,-4.912688"
       id="path2985-6"
       inkscape:connector-curvature="0"
       sodipodi:nodetypes="cccccccc" />
    <path
       sodipodi:type="arc"
       style="fill:none;stroke:#000000;stroke-width:53.64408475;stroke-linecap:butt;stroke-linejoin:miter;stroke-miterlimit:4;stroke-opacity:1;stroke-dasharray:none"
       id="path3125"
       sodipodi:cx="351.53308"
       sodipodi:cy="251.31122"
       sodipodi:rx="181.03122"
       sodipodi:ry="184.85793"
       d="m 288.35019,424.54464 a 181.03122,184.85793 0 1 1 127.21067,-0.32377"
       transform="matrix(0.03946023,0,0,0.03582684,18.134322,11.861045)"
       sodipodi:start="1.9273178"
       sodipodi:end="7.4924753"
       sodipodi:open="true" />
    <path
       style="fill:#00d700;stroke-width:2.017;stroke-miterlimit:4;stroke-dasharray:none;fill-opacity:1"
       d="m 31.9252,14.881675 c -2.034032,-0.02557 -4.01312,0.985546 -5.181219,2.502813 -0.846772,1.092012 -1.281508,2.444442 -1.178249,3.789563 0.05549,2.208142 1.628045,4.279565 3.794874,5.166811 0.124838,0.06999 0.439811,0.09366 0.290738,0.278566 -0.17226,0.30407 -0.281556,0.640782 -0.194805,0.986421 -0.006,0.219911 -0.467585,0.102466 -0.666693,0.180135 -2.410647,0.308162 -4.697043,1.367048 -6.416972,2.950728 -0.352972,0.164156 -0.293455,0.4852 0.123718,0.344408 1.451771,-0.08196 2.917686,-0.05981 4.364816,0.04203 1.167708,0.132142 2.323997,0.340226 3.467806,0.582469 0.122495,2.240713 0.13399,4.488137 0.04895,6.730579 -0.136656,2.734883 -0.369273,5.501905 -1.229516,8.129241 -0.397892,1.091847 -0.89445,2.231236 -1.840006,3.017587 -1.910968,1.04818 -4.095403,1.613842 -6.296139,1.849518 -0.98924,0.173161 -2.021072,0.345757 -2.892653,0.832874 -0.20838,0.119467 -0.3004,0.324025 -0.20992,0.543707 0.137054,0.908661 0.220319,1.834927 0.390341,2.732804 0.313665,0.09719 0.707827,0.01216 1.051384,0.04078 8.754723,0 17.509447,0 26.264172,0 0.201051,-0.121537 0.111466,-0.428977 0.180667,-0.627809 0.09815,-0.826092 0.262582,-1.655167 0.305935,-2.483031 C 45.882937,52.128322 45.396622,52.043114 45.024692,51.896036 43.311279,51.354693 41.463815,51.33439 39.741431,50.821727 38.718786,50.530153 37.71311,50.141028 36.792757,49.641031 35.691976,48.788918 35.156685,47.487485 34.74536,46.251632 33.941105,43.530757 33.708812,40.696716 33.600139,37.8849 c -0.01854,-2.045229 -0.04549,-4.093585 0.05728,-6.136834 0.369003,-0.181525 0.846661,-0.177259 1.25469,-0.285012 2.198182,-0.456901 4.468751,-0.522232 6.710923,-0.371367 0.453017,0.09393 0.113951,-0.300512 -0.06525,-0.414033 -1.279773,-1.167055 -2.87521,-2.041344 -4.590299,-2.531915 -0.777271,-0.203849 -1.604417,-0.366156 -2.396547,-0.446 -0.01149,-0.405084 0.0085,-0.825865 -0.221871,-1.189185 0.01171,-0.10018 0.254209,-0.115889 0.344291,-0.192314 1.035895,-0.449946 1.951526,-1.128935 2.596728,-2.006481 0.748485,-1.016096 1.233082,-2.237657 1.158353,-3.479895 0.05106,-1.311375 -0.481509,-2.609162 -1.337174,-3.639804 -1.22386,-1.445143 -3.178457,-2.394558 -5.186024,-2.310373 z"
       id="path3888"
       inkscape:connector-curvature="0" />
    <path
       style="fill:#000000;stroke-width:2.017;stroke-miterlimit:4;stroke-dasharray:none"
       d="m 31.986414,55.973351 c -0.04107,0.0056 -0.0763,0.03668 -0.08239,0.07466 -0.003,0.02244 -7.46e-4,0.04523 -0.0015,0.0678 3.7e-5,0.191301 -2.41e-4,0.382608 1.5e-4,0.573917 2.48e-4,0.03835 0.02972,0.0745 0.06976,0.08492 0.04122,0.01224 0.08971,-0.0049 0.111563,-0.03939 0.0133,-0.01883 0.01555,-0.04168 0.01456,-0.06357 1.95e-4,-0.204148 3.91e-4,-0.408301 -1.43e-4,-0.612448 -0.0015,-0.03564 -0.02756,-0.06905 -0.06397,-0.08101 -0.01524,-0.0056 -0.03183,-0.0069 -0.04798,-0.0049 z"
       id="path3890"
       inkscape:connector-curvature="0" />
    <path
       style="fill:#000000;stroke-width:2.017;stroke-miterlimit:4;stroke-dasharray:none"
       d="m 31.329828,56.640485 0,-0.241965 0.76498,0 0.764981,0 0,0.241965 0,0.24197 -0.429563,0 -0.429553,0 0,-0.05197 c 0,-0.03432 -1.96e-4,-0.05197 -5.42e-4,-0.05197 -3.45e-4,0 -5.4e-4,0.01765 -5.4e-4,0.05197 l 0,0.05197 -0.334885,0 -0.334878,0 0,-0.24197 z"
       id="path3900"
       inkscape:connector-curvature="0" />
    <path
       style="fill:#000000;stroke-width:2.017;stroke-miterlimit:4;stroke-dasharray:none"
       d=""
       id="path3902"
       inkscape:connector-curvature="0" />
    <path
       style="fill:#000000;stroke:#000000;stroke-width:0.5;stroke-linecap:butt;stroke-linejoin:miter;stroke-opacity:1;stroke-miterlimit:4;stroke-dasharray:none;fill-opacity:1"
       d="m 24.748737,20.352227 0.899954,-2.63558 1.799909,-2.442732 3.792663,-1.157084 4.049794,0.642824 3.278404,2.89271 0.449977,4.178358 -0.964237,2.571297 -2.314167,2.314168 0,0.514259 4.306923,1.221367 3.664099,3.342686 -4.756901,-0.06428 -4.7569,0.578542 0.192848,8.356716 1.799908,7.006786 2.314167,2.37845 7.90674,1.671343 0.321412,1.607061 -0.899954,3.214122 -27.962859,-0.385695 c 0,0 -1.349931,-3.792664 -0.642825,-4.242641 0.707107,-0.449977 0.707107,-0.385694 0.707107,-0.385694 l 5.849702,-1.221367 3.921228,-1.86419 1.349931,-4.114076 0.77139,-12.213663 -7.585328,-0.514259 -1.992755,0.25713 3.278404,-3.14984 5.078312,-1.86419 -3.214121,-3.021275 z"
       id="path4502"
       inkscape:connector-curvature="0" />
  </g>
</svg>
