<?xml version="1.0" encoding="UTF-8" standalone="no"?>
<!-- Created with Inkscape (http://www.inkscape.org/) -->

<svg
   xmlns:dc="http://purl.org/dc/elements/1.1/"
   xmlns:cc="http://creativecommons.org/ns#"
   xmlns:rdf="http://www.w3.org/1999/02/22-rdf-syntax-ns#"
   xmlns:svg="http://www.w3.org/2000/svg"
   xmlns="http://www.w3.org/2000/svg"
   xmlns:sodipodi="http://sodipodi.sourceforge.net/DTD/sodipodi-0.dtd"
   xmlns:inkscape="http://www.inkscape.org/namespaces/inkscape"
   width="64px"
   height="64px"
   id="svg4272"
   version="1.1"
   inkscape:version="0.48.5 r10040"
   sodipodi:docname="New document 13">
  <defs
     id="defs4274" />
  <sodipodi:namedview
     id="base"
     pagecolor="#ffffff"
     bordercolor="#666666"
     borderopacity="1.0"
     inkscape:pageopacity="0.0"
     inkscape:pageshadow="2"
     inkscape:zoom="7.7781746"
     inkscape:cx="47.427784"
     inkscape:cy="16.572216"
     inkscape:current-layer="layer1"
     showgrid="true"
     inkscape:document-units="px"
     inkscape:grid-bbox="true"
     inkscape:window-width="1920"
     inkscape:window-height="1018"
     inkscape:window-x="0"
     inkscape:window-y="27"
     inkscape:window-maximized="1" />
  <metadata
     id="metadata4277">
    <rdf:RDF>
      <cc:Work
         rdf:about="">
        <dc:format>image/svg+xml</dc:format>
        <dc:type
           rdf:resource="http://purl.org/dc/dcmitype/StillImage" />
        <dc:title></dc:title>
      </cc:Work>
    </rdf:RDF>
  </metadata>
  <g
     id="layer1"
     inkscape:label="Layer 1"
     inkscape:groupmode="layer">
    <path
       style="fill:#ffffff;fill-opacity:1;stroke:#000000;stroke-width:0.06782389px;stroke-linecap:butt;stroke-linejoin:miter;stroke-opacity:1"
       d="m 18.332558,49.947092 27.53341,0 2.21534,4.10821 -32.43879,-0.26335 z"
       id="path5469"
       inkscape:connector-curvature="0" />
    <path
       style="fill:#ffffff;fill-opacity:1;stroke:#000000;stroke-width:0.06782389px;stroke-linecap:butt;stroke-linejoin:miter;stroke-opacity:1"
       d="m 16.433708,10.287142 31.5421,0.0527 -2.69004,5.05626 -26.95321,-0.94806 z"
       id="path5467"
       inkscape:connector-curvature="0" />
    <path
       style="fill:none;stroke:#000000;stroke-width:2.03471684;stroke-linecap:butt;stroke-linejoin:miter;stroke-miterlimit:4;stroke-opacity:1;stroke-dasharray:none"
       d="m 11.671358,58.168172 40.64482,0 0.0121,3.99947 -40.65334,0 0.003,-5.01462"
       id="path2985"
       inkscape:connector-curvature="0"
       sodipodi:nodetypes="ccccc" />
    <path
       style="fill:none;stroke:#000000;stroke-width:2.03471684;stroke-linecap:butt;stroke-linejoin:miter;stroke-miterlimit:4;stroke-opacity:1;stroke-dasharray:none"
       d="m 16.048198,58.158472 0.0114,-3.54244 32.41451,-0.4854 m 0,0 -1.1312,-1.89757 m 0,0 -1.26867,-2.12814 -27.75964,0.0124"
       id="path3024-5"
       inkscape:connector-curvature="0"
       sodipodi:nodetypes="cccccccc" />
    <path
       style="fill:none;stroke:#000000;stroke-width:2.03471684;stroke-linecap:butt;stroke-linejoin:miter;stroke-miterlimit:4;stroke-opacity:1;stroke-dasharray:none"
       d="m 48.288348,58.149912 0.0315,-3.53388 -32.38023,-0.4854 m 0,0 1.1312,-1.89757 m 0,0 1.26867,-2.12814"
       id="path3024-5-2"
       inkscape:connector-curvature="0"
       sodipodi:nodetypes="ccccccc" />
    <path
       style="fill:none;stroke:#000000;stroke-width:1.99685001;stroke-linecap:butt;stroke-linejoin:miter;stroke-miterlimit:4;stroke-opacity:1;stroke-dasharray:none"
       d="m 48.418018,1.8600516 -0.01,8.2668604 -32.30441,-1e-5 -0.007,-4.1334204 -0.003,-4.13343 6.47148,0 0,4.13343 6.46089,0 0,-4.13343 6.46089,0 0,4.13343 6.4609,0 0,-4.13343 7.44164,0.0345"
       id="path2985-7"
       inkscape:connector-curvature="0"
       sodipodi:nodetypes="cccccccccccccc" />
    <path
       style="fill:none;stroke:#000000;stroke-width:2.03471684;stroke-linecap:butt;stroke-linejoin:miter;stroke-miterlimit:4;stroke-opacity:1;stroke-dasharray:none"
       d="m 48.474088,10.633642 -1.13121,1.89757 m 0,0 -1.26867,2.12816 -27.69904,-0.0124"
       id="path3024-5-25"
       inkscape:connector-curvature="0"
       sodipodi:nodetypes="ccccc" />
    <path
       style="fill:none;stroke:#000000;stroke-width:2.03471684;stroke-linecap:butt;stroke-linejoin:miter;stroke-miterlimit:4;stroke-opacity:1;stroke-dasharray:none"
       d="m 16.011428,10.556312 1.13121,1.89756 m 0,0 1.26866,2.12816 c 7.0558,16.04569 -0.70554,35.60012 -0.11604,35.60012"
       id="path3024-5-25-0-0-1"
       inkscape:connector-curvature="0"
       sodipodi:nodetypes="ccccc" />
    <path
       style="fill:none;stroke:#000000;stroke-width:2.03471684;stroke-linecap:butt;stroke-linejoin:miter;stroke-miterlimit:4;stroke-opacity:1;stroke-dasharray:none"
       d="m 48.435568,10.691462 -1.13121,1.89757 m 0,0 -1.26866,2.12815 c -7.0558,16.04568 0.62141,35.64212 0.0319,35.64212"
       id="path3024-5-25-0-0-1-4"
       inkscape:connector-curvature="0"
       sodipodi:nodetypes="ccccc" />
    <path
       style="fill:#000000;stroke-width:30;stroke-miterlimit:4;stroke-dasharray:none"
       d="m 27.532428,15.501232 c -2.51836,0.0238 -5.04577,-0.0314 -7.55865,0.0682 -0.26761,0.38643 0.18449,0.87375 0.23729,1.29557 2.15835,6.31258 2.34638,13.14408 1.64777,19.73809 -0.4547,4.19711 -1.39782,8.31383 -2.45558,12.39654 0.16364,0.50849 0.94849,0.14043 1.37502,0.25202 7.98544,0 15.97088,0 23.95632,0 0.43425,-0.197 -0.0236,-0.75129 -0.0289,-1.10261 -2.07496,-8.03688 -3.21981,-16.48575 -2.00671,-24.77114 0.38933,-2.56868 1.06821,-5.09955 1.92784,-7.5512 -0.12637,-0.43528 -0.78842,-0.21578 -1.13046,-0.29572 -5.32082,-0.0614 -10.64278,-0.029 -15.96392,-0.0298 z"
       id="path3099"
       inkscape:connector-curvature="0" />
    <path
       style="fill:#000000;stroke-width:30;stroke-miterlimit:4;stroke-dasharray:none"
       d="m 16.971348,2.7896716 c -0.122,1.38548 -0.0183,2.81208 -0.0526,4.21355 0.0417,0.73178 -0.0838,1.49728 0.0631,2.20785 1.37344,0.12209 2.78822,0.0179 4.17763,0.0525 8.74963,0 17.49926,0 26.24889,0 0.42374,-0.28478 0.10202,-1.00013 0.20244,-1.46228 -0.022,-1.64774 0.0438,-3.31319 -0.0327,-4.94993 -0.39234,-0.27599 -1.0281,-0.0525 -1.51589,-0.12472 -1.06123,0.0218 -2.14021,-0.0439 -3.19039,0.0326 -0.27638,0.39177 -0.0525,1.02661 -0.1249,1.51369 0,0.85671 0,1.71342 0,2.57014 -2.69745,0 -5.3949,0 -8.09235,0 -0.0223,-1.32827 0.0439,-2.67439 -0.0327,-3.9917 -0.39234,-0.276 -1.02811,-0.0525 -1.51589,-0.12473 -1.05554,0.0407 -2.14418,-0.0822 -3.17858,0.063 -0.12218,1.33207 -0.0177,2.70545 -0.0526,4.05342 -2.7255,0 -5.45099,0 -8.17649,0 -0.0223,-1.32827 0.0439,-2.67439 -0.0326,-3.99171 -0.39234,-0.27599 -1.02811,-0.0525 -1.51589,-0.12472 -1.05418,0.0407 -2.14619,-0.0822 -3.17858,0.063 z"
       id="path3101"
       inkscape:connector-curvature="0" />
    <path
       style="fill:#000000;stroke-width:30;stroke-miterlimit:4;stroke-dasharray:none"
       d="m 29.572598,55.284592 c -4.15421,0.0363 -8.31041,0.054 -12.46191,0.21527 -0.40309,0.2878 -0.0961,0.96432 -0.19192,1.4124 -0.0732,0.66693 0.81201,0.31975 1.21201,0.40429 9.70312,0 19.40623,0 29.10935,0 0.42054,-0.26936 0.1044,-0.96576 0.20244,-1.4124 0.0712,-0.66312 -0.8221,-0.34228 -1.22516,-0.45154 -5.54546,-0.17826 -11.09697,-0.16742 -16.64481,-0.16802 z"
       id="path3103"
       inkscape:connector-curvature="0" />
    <path
       style="fill:#ffffff;stroke:#000000;stroke-width:0.06782389px;stroke-linecap:butt;stroke-linejoin:miter;stroke-opacity:1"
       d="m 17.697518,53.114582 c 0,4.28445 0,4.28445 0,4.28445"
       id="path3107"
       inkscape:connector-curvature="0" />
    <path
       style="fill:none;stroke:#fffffd;stroke-width:2.08273625;stroke-linecap:butt;stroke-linejoin:miter;stroke-miterlimit:4;stroke-opacity:1;stroke-dasharray:none"
       d="m 16.757998,56.612372 30.9708,-0.021"
       id="path3891"
       inkscape:connector-curvature="0" />
    <path
       style="fill:none;stroke:none"
       d="m 17.758408,57.132352 28.91197,-0.0149"
       id="path3893"
       inkscape:connector-curvature="0" />
    <path
       style="fill:#000000;stroke:none"
       d="m 12.597158,59.047762 c -0.16666,0.17919 -0.0532,0.45059 -0.0864,0.67108 0.012,0.49317 -0.024,0.99376 0.018,1.48229 0.0808,0.23469 0.38466,0.11939 0.57224,0.14665 12.73079,0 25.46157,0 38.19236,0 0.28024,-0.0346 0.19126,-0.36402 0.20356,-0.55969 -0.006,-0.53369 0.0121,-1.07113 -0.009,-1.6025 -0.0582,-0.26511 -0.38727,-0.15104 -0.58125,-0.17495 -12.73078,0 -25.46156,0 -38.19235,0 -0.039,0.0124 -0.0781,0.0247 -0.11712,0.0371 z"
       id="path3895"
       inkscape:connector-curvature="0" />
    <path
       style="fill:none;stroke:#ffffff;stroke-width:1.39466882;stroke-linecap:butt;stroke-linejoin:miter;stroke-miterlimit:4;stroke-opacity:1;stroke-dasharray:none"
       d="m 16.958498,8.3400116 30.53809,-0.021"
       id="path3891-2"
       inkscape:connector-curvature="0" />
    <path
       style="fill:none;stroke:#ffffff;stroke-width:1.5673424;stroke-linecap:butt;stroke-linejoin:miter;stroke-miterlimit:4;stroke-opacity:1;stroke-dasharray:none"
       d="m 44.359608,47.709542 -24.30226,0"
       id="path3915-9"
       inkscape:connector-curvature="0" />
  </g>
</svg>
