<?xml version="1.0" encoding="UTF-8" standalone="no"?>
<!-- Created with Inkscape (http://www.inkscape.org/) -->

<svg
   xmlns:dc="http://purl.org/dc/elements/1.1/"
   xmlns:cc="http://creativecommons.org/ns#"
   xmlns:rdf="http://www.w3.org/1999/02/22-rdf-syntax-ns#"
   xmlns:svg="http://www.w3.org/2000/svg"
   xmlns="http://www.w3.org/2000/svg"
   xmlns:sodipodi="http://sodipodi.sourceforge.net/DTD/sodipodi-0.dtd"
   xmlns:inkscape="http://www.inkscape.org/namespaces/inkscape"
   width="64px"
   height="64px"
   id="svg3183"
   version="1.1"
   inkscape:version="0.48.5 r10040"
   sodipodi:docname="New document 6">
  <defs
     id="defs3185" />
  <sodipodi:namedview
     id="base"
     pagecolor="#ffffff"
     bordercolor="#666666"
     borderopacity="1.0"
     inkscape:pageopacity="0.0"
     inkscape:pageshadow="2"
     inkscape:zoom="5.5"
     inkscape:cx="32"
     inkscape:cy="32"
     inkscape:current-layer="layer1"
     showgrid="true"
     inkscape:document-units="px"
     inkscape:grid-bbox="true"
     inkscape:window-width="1920"
     inkscape:window-height="1018"
     inkscape:window-x="0"
     inkscape:window-y="27"
     inkscape:window-maximized="1" />
  <metadata
     id="metadata3188">
    <rdf:RDF>
      <cc:Work
         rdf:about="">
        <dc:format>image/svg+xml</dc:format>
        <dc:type
           rdf:resource="http://purl.org/dc/dcmitype/StillImage" />
        <dc:title></dc:title>
      </cc:Work>
    </rdf:RDF>
  </metadata>
  <g
     id="layer1"
     inkscape:label="Layer 1"
     inkscape:groupmode="layer">
    <path
       style="fill:#000000;stroke:#000000;stroke-width:2.38233709;stroke-miterlimit:4;stroke-opacity:1;stroke-dasharray:none"
       d="m 31.958947,9.38051 c -1.35329,1.58913 -2.68352,3.2114 -4.15677,4.69817 -2.65999,2.73924 -5.44295,5.44175 -7.42797,8.73753 -1.69273,2.73078 -3.09414,5.92454 -2.62672,9.20563 0.3888,2.52684 2.20428,4.74928 4.46938,5.88565 0.94633,0.4564 1.98601,0.75545 3.02683,0.84187 0.41502,-0.26726 0.3011,-0.88731 0.48269,-1.29659 0.19162,-0.7964 0.38289,-1.59023 0.56439,-2.3903 3.92293,-0.0293 7.84609,-1.6e-4 11.7691,0.002 0.26058,1.18037 0.51481,2.36912 0.87795,3.52594 0.37107,0.30169 0.91077,-0.007 1.33559,-0.0347 2.97152,-0.6432 5.40639,-3.10275 6.15565,-6.01441 0.53849,-2.4172 -0.11596,-4.91561 -1.1265,-7.12249 -1.7615,-3.79215 -4.54878,-6.98043 -7.48948,-9.91304 -1.81618,-1.8298 -3.53225,-3.75866 -5.20997,-5.72712 -0.18925,-0.16006 -0.34263,-0.49086 -0.64417,-0.39866 z m 0.14674,5.62071 c 0.4362,0.0552 1.22373,-0.23941 0.99734,0.47542 0.0204,1.76637 -0.0407,3.5488 0.0303,5.30523 0.29023,0.34429 0.9027,0.0781 1.32021,0.16196 1.30077,0 2.60154,0 3.90231,0 0,0.63553 0,1.27105 0,1.90659 -1.69469,0.0202 -3.40539,-0.0401 -5.09014,0.0302 -0.34582,0.28893 -0.0784,0.89868 -0.16268,1.31434 0,2.87969 0,5.75938 0,8.63906 -0.66489,0 -1.32979,0 -1.99468,0 0,-3.24945 0,-6.4989 0,-9.74834 -0.1967,-0.46051 -0.87118,-0.13988 -1.27092,-0.23523 -1.30077,0 -2.60154,0 -3.90231,0 0,-0.63554 0,-1.27106 0,-1.90659 1.66813,-0.0204 3.3524,0.0405 5.01055,-0.0302 0.34582,-0.28894 0.0784,-0.89869 0.16268,-1.31435 0,-1.53269 0,-3.06539 0,-4.59809 0.33245,0 0.66489,0 0.99734,0 z"
       id="path4597"
       inkscape:connector-curvature="0" />
    <path
       style="fill:none;stroke:#000000;stroke-width:2.35839343;stroke-linecap:butt;stroke-linejoin:miter;stroke-miterlimit:4;stroke-opacity:1;stroke-dasharray:none"
       d="m 38.110707,39.79467 c 6.97189,0 9.00536,-6.04151 9.00536,-6.04151 2.67256,-7.39776 -5.82601,-16.25992 -8.25007,-18.6177 -4.18314,-4.06878 -6.7395,-7.64437 -6.7395,-7.64437"
       id="path3027-8"
       inkscape:connector-curvature="0"
       sodipodi:nodetypes="ccsc" />
    <path
       style="fill:none;stroke:#000000;stroke-width:2.35839343;stroke-linecap:butt;stroke-linejoin:miter;stroke-miterlimit:4;stroke-opacity:1;stroke-dasharray:none"
       d="m 26.152417,39.77926 c -6.97189,0 -9.00536,-6.04151 -9.00536,-6.04151 -2.67256,-7.39776 5.82601,-16.25992 8.25007,-18.61771 4.18314,-4.06877 6.7395,-7.64436 6.7395,-7.64436"
       id="path3027"
       inkscape:connector-curvature="0"
       sodipodi:nodetypes="ccsc" />
    <path
       style="fill:#ffffff;fill-opacity:1;stroke:#000000;stroke-width:2.35839343;stroke-linecap:butt;stroke-linejoin:miter;stroke-miterlimit:4;stroke-opacity:1;stroke-dasharray:none"
       d="m 42.591247,51.48149 c 0,0 -2.19882,-0.58461 -5.61381,-0.89366 -4.01074,-0.36296 -9.699,-0.37061 -15.47295,1.02786 3.19545,-4.50031 5.57752,-15.59696 5.57752,-15.59696 l 5.05459,0 6.06764,0.0561"
       id="path2985"
       inkscape:connector-curvature="0"
       sodipodi:nodetypes="cscccc" />
    <path
       style="fill:none;stroke:#000000;stroke-width:2.35839343;stroke-linecap:butt;stroke-linejoin:miter;stroke-miterlimit:4;stroke-opacity:1;stroke-dasharray:none"
       d="m 21.498897,51.61787 c 0,0 2.17666,-0.59729 5.5544,-0.95907 4.05877,-0.43473 9.85179,-0.54875 15.68642,0.86442 C 39.544267,47.02291 37.049647,35.117 37.049647,35.117"
       id="path2985-9"
       inkscape:connector-curvature="0"
       sodipodi:nodetypes="cscc" />
    <path
       style="fill:none;stroke:#000000;stroke-width:2.35839343;stroke-linecap:butt;stroke-linejoin:miter;stroke-miterlimit:4;stroke-opacity:1;stroke-dasharray:none"
       d="m 24.177047,46.13181 c 7.49479,-2.00357 15.9188,0.009 15.9188,0.009"
       id="path3856"
       inkscape:connector-curvature="0"
       sodipodi:nodetypes="cc" />
    <path
       style="fill:#000000;stroke:#000000;stroke-width:2.35839343;stroke-linecap:butt;stroke-linejoin:miter;stroke-miterlimit:4;stroke-opacity:1;stroke-dasharray:none"
       d="m 25.738827,41.30663 c 6.21817,-1.87279 12.78035,0.01 12.78035,0.01"
       id="path3858"
       inkscape:connector-curvature="0"
       sodipodi:nodetypes="cc" />
    <path
       style="fill:none;stroke:#000000;stroke-width:2.35839343;stroke-linecap:butt;stroke-linejoin:miter;stroke-miterlimit:4;stroke-opacity:1;stroke-dasharray:none"
       d="m 32.099297,50.96566 c -0.0281,5.02846 -2.5121,7.52075 -2.5121,7.52075 -4.6957,6.81419 -11.46069,1.34699 -11.46069,1.34699 -7.00376,-4.83332 -10.4252203,1.18921 -10.4252203,1.18921"
       id="path3868"
       inkscape:connector-curvature="0"
       sodipodi:nodetypes="cccc" />
    <path
       style="fill:none;stroke:#000000;stroke-width:2.35839343;stroke-linecap:butt;stroke-linejoin:miter;stroke-miterlimit:4;stroke-opacity:1;stroke-dasharray:none"
       d="m 29.786167,51.11758 c -1.75094,8.31965 -5.29888,9.75882 -8.11799,6.81418 -4.85488,-5.07102 -10.28287,-4.32275 -10.28287,-4.32275 -5.0140503,0.71311 -6.2931103,3.62722 -6.2931103,3.62722 l 4.10727,3.87522"
       id="path3870"
       inkscape:connector-curvature="0"
       sodipodi:nodetypes="csccc" />
    <path
       style="fill:none;stroke:#000000;stroke-width:2.35839343;stroke-linecap:butt;stroke-linejoin:miter;stroke-miterlimit:4;stroke-opacity:1;stroke-dasharray:none"
       d="m 32.067847,51.06302 c 0.0281,5.02846 2.51211,7.52075 2.51211,7.52075 4.6957,6.81419 11.46069,1.34699 11.46069,1.34699 7.00375,-4.83332 10.36893,1.16119 10.36893,1.16119"
       id="path3868-9"
       inkscape:connector-curvature="0"
       sodipodi:nodetypes="cccc" />
    <path
       style="fill:none;stroke:#000000;stroke-width:2.35839343;stroke-linecap:butt;stroke-linejoin:miter;stroke-miterlimit:4;stroke-opacity:1;stroke-dasharray:none"
       d="m 34.339787,51.14529 c 1.75094,8.31965 5.29888,9.75881 8.11799,6.81418 4.85488,-5.07102 10.28287,-4.32275 10.28287,-4.32275 5.01405,0.7131 6.29312,3.62722 6.29312,3.62722 l -4.16355,3.87522"
       id="path3870-9"
       inkscape:connector-curvature="0"
       sodipodi:nodetypes="csccc" />
    <path
       sodipodi:type="arc"
       style="fill:#000000;stroke:#000000;stroke-width:30;stroke-miterlimit:4;stroke-opacity:1;stroke-dasharray:none"
       id="path4483"
       sodipodi:cx="-515"
       sodipodi:cy="543.07648"
       sodipodi:rx="34.999996"
       sodipodi:ry="33.571423"
       d="m -480,543.07648 a 34.999996,33.571423 0 1 1 -70,0 34.999996,33.571423 0 1 1 70,0 z"
       transform="matrix(0.07878822,0,0,0.0784384,72.735167,-37.87939)" />
    <path
       sodipodi:type="arc"
       style="fill:#ffffff;stroke:#ffffff;stroke-width:30;stroke-miterlimit:4;stroke-opacity:1;stroke-dasharray:none"
       id="path4485"
       sodipodi:cx="-599.28571"
       sodipodi:cy="185.93361"
       sodipodi:rx="12.142858"
       sodipodi:ry="12.142858"
       d="m -587.14285,185.93361 a 12.142858,12.142858 0 1 1 -24.28571,0 12.142858,12.142858 0 1 1 24.28571,0 z"
       transform="matrix(0.05805448,0,0,0.05779671,66.950457,-6.25181)" />
    <path
       style="fill:#000000;stroke:#000000;stroke-width:2.38233709;stroke-miterlimit:4;stroke-opacity:1;stroke-dasharray:none"
       d="m 31.953977,2.77183 c -1.13777,0.0778 -1.911,1.46639 -1.36046,2.47856 0.46305,1.07729 2.06374,1.33806 2.83284,0.4358 0.98403,-0.90752 0.34152,-2.78216 -0.98491,-2.90445 -0.16198,-0.0124 -0.32509,-0.0161 -0.48747,-0.01 z"
       id="path4587"
       inkscape:connector-curvature="0" />
    <path
       style="fill:none;stroke:#ffffff;stroke-width:2.35839343;stroke-linecap:butt;stroke-linejoin:miter;stroke-miterlimit:4;stroke-opacity:1;stroke-dasharray:none"
       d="m 27.718457,21.88652 4.43914,0 4.41445,0"
       id="path3835"
       inkscape:connector-curvature="0"
       sodipodi:nodetypes="ccc" />
    <path
       style="fill:none;stroke:#ffffff;stroke-width:2.35839343;stroke-linecap:butt;stroke-linejoin:miter;stroke-miterlimit:4;stroke-opacity:1;stroke-dasharray:none"
       d="m 32.116517,16.39339 0,13.51508"
       id="path3065"
       inkscape:connector-curvature="0"
       sodipodi:nodetypes="cc" />
    <path
       style="fill:#000000;stroke:#000000;stroke-width:2.38233709;stroke-miterlimit:4;stroke-opacity:1;stroke-dasharray:none"
       d="m 30.789997,41.5201 c -1.40862,-0.0126 -2.81516,0.24354 -4.17032,0.57581 -0.33563,0.48399 -0.38647,1.15918 -0.61882,1.71441 -0.0611,0.27076 -0.41886,0.78363 0.0412,0.88907 3.06222,-0.46249 6.20676,-0.55357 9.30098,-0.23712 0.95531,0.0776 1.91166,0.17444 2.84864,0.33122 0.51158,-0.0908 0.21559,-0.7081 0.13011,-1.0182 -0.2066,-0.53593 -0.26629,-1.15286 -0.58028,-1.63122 -2.26912,-0.57665 -4.61838,-0.67017 -6.95152,-0.62397 z"
       id="path4599"
       inkscape:connector-curvature="0" />
    <path
       style="fill:#000000;stroke:#000000;stroke-width:2.38233709;stroke-miterlimit:4;stroke-opacity:1;stroke-dasharray:none"
       d="m 11.887817,54.56412 c -1.9458003,0.18699 -3.9613703,0.87549 -5.3100203,2.33742 -0.18502,0.42737 0.40198,0.66616 0.61929,0.95578 0.36522,0.28361 0.64738,0.70225 1.07196,0.88891 0.86,-0.56667 1.7334203,-1.2115 2.7532503,-1.47079 2.47908,-0.74589 5.1483,0.0769 7.23773,1.47836 1.67249,1.11674 3.54843,2.22382 5.6456,2.13919 0.3422,-0.0516 0.92745,0.12819 1.03464,-0.2996 -0.23087,-0.40354 -0.84082,-0.22447 -1.23859,-0.37141 -1.783,-0.2952 -2.8615,-1.86491 -4.20229,-2.90056 -2.13089,-1.71655 -4.85011,-2.80303 -7.61157,-2.7573 z"
       id="path4601"
       inkscape:connector-curvature="0" />
    <path
       style="fill:#000000;stroke:#000000;stroke-width:2.38233709;stroke-miterlimit:4;stroke-opacity:1;stroke-dasharray:none"
       d="m 51.599807,54.6186 c -3.10505,0.10125 -6.02484,1.64359 -8.19509,3.79584 -1.0452,1.1059 -2.46325,2.07484 -4.05402,1.88677 -0.27781,-0.0922 -0.80799,0.0916 -0.53971,0.44074 0.83791,0.34201 1.81053,0.31585 2.69605,0.1659 1.70933,-0.28641 3.1735,-1.24811 4.59124,-2.18143 1.60291,-1.00318 3.43896,-1.73147 5.35976,-1.62926 1.55078,0.0388 3.04096,0.67029 4.23309,1.65154 0.47113,0.10082 0.72434,-0.53259 1.09185,-0.75025 0.23756,-0.34822 0.942,-0.57341 0.81237,-1.04729 -1.15492,-1.22879 -2.79884,-1.95004 -4.45005,-2.23359 -0.51108,-0.0786 -1.02797,-0.11377 -1.54549,-0.0989 z"
       id="path4603"
       inkscape:connector-curvature="0" />
    <path
       style="fill:#000000;stroke:#000000;stroke-width:2.38233709;stroke-miterlimit:4;stroke-opacity:1;stroke-dasharray:none"
       d="m 33.344277,53.03885 c -0.20172,0.4414 0.13062,0.94936 0.19581,1.40094 0.29639,0.9165 0.58805,1.88614 1.20942,2.64251 0.35026,0.20131 0.49653,-0.31191 0.29099,-0.53978 -0.542,-1.10616 -0.86054,-2.29859 -1.30077,-3.44176 -0.087,-0.1439 -0.26389,-0.16391 -0.39545,-0.0619 z"
       id="path4605"
       inkscape:connector-curvature="0" />
    <path
       style="fill:#000000;stroke:#000000;stroke-width:0.84228337;stroke-miterlimit:4;stroke-opacity:1;stroke-dasharray:none"
       d="m 30.717017,51.77524 c -0.18715,0.16888 -0.1761,0.47014 -0.26117,0.70048 -0.43745,1.76895 -1.04119,3.51627 -1.98816,5.0861 -0.13873,0.18694 0.0854,0.47172 0.30777,0.35893 0.24171,-0.18282 0.39585,-0.46037 0.58036,-0.69684 1.0456,-1.53623 1.57611,-3.378 1.7314,-5.2158 0.0157,-0.1903 -0.20123,-0.33599 -0.3702,-0.23287 z"
       id="path4607"
       inkscape:connector-curvature="0" />
    <path
       style="fill:#000000;stroke:#000000;stroke-width:0.21057084;stroke-miterlimit:4;stroke-opacity:1;stroke-dasharray:none"
       d="m 26.786847,59.47162 c -0.11309,0.0318 -0.20367,0.1218 -0.30711,0.17945 -0.16872,0.10817 -0.34684,0.20032 -0.52584,0.29043 -0.1057,0.0614 -0.14834,0.20528 -0.0912,0.31351 0.0474,0.10137 0.16733,0.16751 0.27717,0.14367 0.11051,-0.0301 0.2071,-0.10246 0.30821,-0.15647 0.18716,-0.11183 0.37458,-0.22586 0.54472,-0.3623 0.0932,-0.0799 0.1081,-0.23803 0.0219,-0.33079 -0.0539,-0.0657 -0.14512,-0.0929 -0.22786,-0.0776 z"
       id="path4609"
       inkscape:connector-curvature="0" />
    <path
       style="fill:#000000;stroke:#000000;stroke-width:2.35839343;stroke-miterlimit:4;stroke-opacity:1;stroke-dasharray:none"
       id="path4613"
       d="m 28.714117,57.79694 c -0.0271,0.0406 -0.0517,0.0827 -0.0721,0.1271 -0.014,0.0332 -0.0281,0.0664 -0.0401,0.10049 -0.0102,0.0328 -0.0221,0.0651 -0.0331,0.0975 -0.002,0.0147 -0.009,0.0263 -0.0159,0.0391 -0.007,0.013 -0.0121,0.0268 -0.019,0.0398 -0.0188,0.0371 -0.0366,0.0746 -0.0552,0.11177 -0.0176,0.04 -0.0326,0.0812 -0.0511,0.12082 -0.0188,0.0398 -0.0388,0.0792 -0.0587,0.11856 -0.0274,0.0619 -0.066,0.11724 -0.10663,0.17102 -0.0526,0.0646 -0.10805,0.12685 -0.16429,0.1883 -0.033,0.0358 -0.0657,0.0719 -0.10159,0.10477 -0.005,0.004 -0.009,0.009 -0.0141,0.0123 -0.0129,0.01 -0.0236,0.0162 -0.0372,0.0254 -0.025,0.017 -0.0498,0.0343 -0.0742,0.0521 -0.0492,0.0349 -0.0948,0.0742 -0.1405,0.11338 -0.0384,0.0318 -0.0768,0.0636 -0.11668,0.0936 -0.005,0.003 -0.009,0.008 -0.0137,0.011 -0.20037,0.11324 -0.39544,0.23665 -0.60242,0.33743 -0.0124,0.007 -0.0216,-0.0182 -0.0279,-0.0305 -0.008,-0.0148 -0.0124,-0.0317 -0.0124,-0.0484 -2e-5,-0.0261 0.0245,-0.0644 0.0356,-0.085 0.0616,-0.0968 0.13999,-0.18066 0.22091,-0.26141 0.0751,-0.0683 0.14588,-0.14104 0.21907,-0.21131 0.0437,-0.0426 0.0839,-0.0883 0.12443,-0.1338 0.0347,-0.041 0.0729,-0.0788 0.10918,-0.1184 0.0473,-0.0535 0.0847,-0.11448 0.11837,-0.1771 0.0149,-0.0262 0.0283,-0.0538 0.0465,-0.0779 0.006,-0.008 0.0211,-0.0251 0.0269,-0.0318 0.0405,-0.0401 0.0762,-0.0837 0.10651,-0.13186 0.019,-0.034 0.0381,-0.068 0.0591,-0.10082 0.0124,-0.0207 0.0265,-0.04 0.0418,-0.0587 0.0136,-0.0166 0.006,-0.0123 0.0187,-0.0173 0.004,0.0126 0.01,0.025 0.013,0.0378 0.0615,0.22541 -0.23404,0.16129 0.52808,-0.26045 0.0231,-0.0127 -0.0435,0.0299 -0.0647,0.0457 -0.0534,0.0396 -0.0883,0.0691 -0.13992,0.11136 -0.102,0.084 -0.20161,0.17105 -0.2952,0.26434 -0.0604,0.0601 -0.0719,0.0744 -0.12892,0.13707 -0.12953,0.14456 -0.2397,0.30422 -0.34569,0.46621 -0.0656,0.10323 -0.12731,0.20973 -0.17169,0.3239 -0.0121,0.0356 -0.007,0.0188 -0.016,0.0505 0,0 -0.61027,0.2825 -0.61027,0.2825 l 0,0 c 0.0177,-0.0393 0.008,-0.0186 0.0291,-0.0617 0.0183,-0.035 0.0277,-0.0544 0.0489,-0.0891 0.0115,-0.0187 0.0239,-0.0368 0.0358,-0.0552 0.046,-0.0714 0.0914,-0.1434 0.13959,-0.21343 0.10814,-0.1617 0.21488,-0.32514 0.34101,-0.47376 0.0213,-0.0239 0.0421,-0.0483 0.064,-0.0719 0.10974,-0.11824 0.22911,-0.22736 0.35,-0.33408 0.0398,-0.0352 0.0801,-0.0699 0.11971,-0.10543 0.0149,-0.0134 0.0271,-0.0303 0.0442,-0.0408 0.19917,-0.12255 0.39638,-0.24913 0.60355,-0.35775 0.0169,-0.009 0.0406,7.9e-4 0.056,0.012 0.0143,0.01 0.0165,0.031 0.0247,0.0465 -0.001,0.008 -0.001,0.0154 -0.004,0.0223 -0.002,0.005 -0.008,0.009 -0.0116,0.0135 -0.0145,0.0176 -0.03,0.0342 -0.0439,0.0523 -0.0236,0.0348 -0.048,0.0692 -0.0712,0.10422 -0.0292,0.0478 -0.058,0.0963 -0.0944,0.13915 -0.0305,0.0334 -0.063,0.0649 -0.0885,0.10246 -0.0398,0.0614 -0.0772,0.12424 -0.1161,0.18628 -0.0115,0.0166 -0.0213,0.0315 -0.0341,0.0469 -0.0217,0.0261 -0.0473,0.0487 -0.0695,0.0744 -0.0448,0.0462 -0.0869,0.0948 -0.13184,0.14082 -0.01,0.009 -0.0187,0.0189 -0.0286,0.0276 -0.0252,0.0224 -0.0521,0.0428 -0.0775,0.065 -0.0327,0.0285 -0.062,0.0558 -0.0939,0.0854 -0.0156,0.0145 -0.0311,0.029 -0.0467,0.0434 -0.0737,0.0737 -0.14599,0.14957 -0.20543,0.23547 -0.006,0.01 -0.0113,0.019 -0.0168,0.0286 -0.003,0.005 -0.003,0.015 -0.008,0.0156 -0.006,5.5e-4 -0.009,-0.009 -0.0131,-0.0136 -0.005,-0.005 -0.005,-0.0226 -0.0119,-0.0191 -0.0774,0.0408 -0.7844,0.44942 -0.55929,0.31932 0.0424,-0.0289 0.0851,-0.0575 0.12352,-0.0915 0.049,-0.0381 0.0949,-0.0797 0.1442,-0.1174 0.0363,-0.0289 0.0716,-0.0596 0.11209,-0.0825 0.0442,-0.0319 0.0868,-0.0658 0.12513,-0.10477 0.0187,-0.019 0.038,-0.0373 0.0565,-0.0565 0.0395,-0.0407 0.0765,-0.0839 0.11348,-0.1268 0.0373,-0.0474 0.0711,-0.0974 0.0973,-0.15181 0.0176,-0.0387 0.0342,-0.0779 0.0524,-0.11642 0.003,-0.007 0.006,-0.0123 0.009,-0.0183 0.003,-0.005 0.008,-0.0115 0.0109,-0.0177 0.003,-0.007 0.006,-0.0138 0.009,-0.0207 0.009,-0.0208 0.0198,-0.041 0.0265,-0.0629 0.014,-0.0374 0.033,-0.0726 0.0468,-0.11008 0.005,-0.0133 0.0125,-0.0257 0.0178,-0.0391 0.002,-0.004 0.003,-0.01 0.005,-0.0137 9.7e-4,-0.002 0.0134,-0.0199 0.0144,-0.0213 0.009,-0.0208 0.0179,-0.0418 0.0252,-0.0633 0.002,-0.005 0.003,-0.0112 0.005,-0.0168 0.002,-0.005 0.004,-0.01 0.006,-0.0153 0.0112,-0.0387 0.0232,-0.0773 0.0449,-0.11183 0.0187,-0.0403 0.0374,-0.0805 0.0544,-0.12146 0,0 0.63119,-0.2843 0.63119,-0.2843 z"
       inkscape:connector-curvature="0" />
    <path
       style="fill:#000000;stroke:#000000;stroke-width:2.35839343;stroke-miterlimit:4;stroke-opacity:1;stroke-dasharray:none"
       id="path4625"
       d="m 37.182297,60.60882 c -0.0282,-0.0192 -0.0625,-0.042 -0.0887,-0.0627 -0.006,-0.004 -0.12285,-0.10433 -0.12554,-0.10652 -0.0824,-0.0701 -0.0548,-0.0467 -0.1374,-0.11653 -0.095,-0.0759 -0.19017,-0.15358 -0.29454,-0.2166 -0.0109,-0.008 -0.0216,-0.0147 -0.0327,-0.0215 -0.009,-0.005 -0.0192,-0.01 -0.0283,-0.0158 -0.0415,-0.0267 -0.0765,-0.0625 -0.11152,-0.0968 -0.0525,-0.0516 -0.0998,-0.10795 -0.14746,-0.16382 -0.0377,-0.0451 -0.0774,-0.088 -0.11834,-0.13021 -0.0491,-0.0541 -0.10172,-0.10498 -0.15139,-0.15856 -0.0518,-0.0503 -0.10405,-0.0998 -0.15029,-0.15524 -0.0301,-0.0378 -0.0606,-0.0756 -0.0893,-0.11446 -0.004,-0.005 -0.009,-0.0114 -0.0129,-0.0171 0,0 1.19707,-0.71087 1.19707,-0.71087 l 0,0 c 0.005,0.007 0.0104,0.0126 0.0156,0.019 0.0283,0.0365 0.0515,0.0765 0.0819,0.11129 0.0434,0.0524 0.0898,0.10203 0.1375,0.15059 0.0525,0.0516 0.10812,0.0998 0.15796,0.15404 0.0434,0.0443 0.0825,0.0924 0.12166,0.14042 0.0431,0.0524 0.088,0.10378 0.13823,0.14969 0.0498,0.0442 0.10506,0.0803 0.1585,0.11998 0.096,0.0768 0.18664,0.15951 0.27888,0.2407 0.0575,0.048 0.0766,0.0656 0.13715,0.11018 0.052,0.0383 0.10925,0.0815 0.17468,0.0941 0.0109,0.002 0.0222,8e-5 0.0334,1.6e-4 0,0 -1.14417,0.7967 -1.14417,0.7967 z"
       inkscape:connector-curvature="0" />
  </g>
</svg>
