<?xml version="1.0" encoding="UTF-8" standalone="no"?>
<!-- Created with Inkscape (http://www.inkscape.org/) -->

<svg
   xmlns:dc="http://purl.org/dc/elements/1.1/"
   xmlns:cc="http://creativecommons.org/ns#"
   xmlns:rdf="http://www.w3.org/1999/02/22-rdf-syntax-ns#"
   xmlns:svg="http://www.w3.org/2000/svg"
   xmlns="http://www.w3.org/2000/svg"
   xmlns:sodipodi="http://sodipodi.sourceforge.net/DTD/sodipodi-0.dtd"
   xmlns:inkscape="http://www.inkscape.org/namespaces/inkscape"
   width="64px"
   height="64px"
   id="svg3811"
   version="1.1"
   inkscape:version="0.48.5 r10040"
   sodipodi:docname="H_black_square.svg">
  <defs
     id="defs3813" />
  <sodipodi:namedview
     id="base"
     pagecolor="#ffffff"
     bordercolor="#666666"
     borderopacity="1.0"
     inkscape:pageopacity="0.0"
     inkscape:pageshadow="2"
     inkscape:zoom="2.7499999"
     inkscape:cx="31.987941"
     inkscape:cy="40.115587"
     inkscape:current-layer="layer1"
     showgrid="true"
     inkscape:document-units="px"
     inkscape:grid-bbox="true"
     inkscape:window-width="1920"
     inkscape:window-height="1018"
     inkscape:window-x="0"
     inkscape:window-y="27"
     inkscape:window-maximized="1" />
  <metadata
     id="metadata3816">
    <rdf:RDF>
      <cc:Work
         rdf:about="">
        <dc:format>image/svg+xml</dc:format>
        <dc:type
           rdf:resource="http://purl.org/dc/dcmitype/StillImage" />
        <dc:title />
      </cc:Work>
    </rdf:RDF>
  </metadata>
  <g
     id="layer1"
     inkscape:label="Layer 1"
     inkscape:groupmode="layer">
    <path
       style="fill:#000000;stroke:#000000;stroke-width:2.09601711999999996;stroke-linecap:butt;stroke-linejoin:miter;stroke-miterlimit:4;stroke-opacity:1;stroke-dasharray:none;fill-opacity:1"
       d="m 34.163373,10.022371 c 0,0 10.993,-0.1541296 14.48875,11.31623 0,0 2.79659,6.18402 2.81917,20.28672 0,0 0.12913,8.66289 0.19975,20.51167 l -33.63546,0 0,-5.78333 c 0,-4.4433 2.77562,-5.36016 2.77562,-5.36016 17.72681,-4.86647 11.81088,-19.97228 11.81088,-19.97228"
       id="path2991"
       inkscape:connector-curvature="0"
       sodipodi:nodetypes="cccccscc" />
    <path
       style="fill:#000000;stroke:#000000;stroke-width:2.09601711999999996;stroke-linecap:butt;stroke-linejoin:miter;stroke-miterlimit:4;stroke-opacity:1;stroke-dasharray:none;fill-opacity:1"
       d="m 34.474923,11.080781 c 0,-4.1891596 -3.19361,-8.7773096 -3.19361,-8.7773096 0,0 -3.19362,4.58815 -3.19362,8.7773096"
       id="path2993"
       inkscape:connector-curvature="0"
       sodipodi:nodetypes="ccc" />
    <path
       style="fill:#000000;stroke:#000000;stroke-width:2.09601711999999996;stroke-linecap:butt;stroke-linejoin:miter;stroke-miterlimit:4;stroke-opacity:1;stroke-dasharray:none;fill-opacity:1"
       d="m 38.272913,22.145311 c 0.35587,8.98706 -6.83254,10.36969 -6.83254,10.36969 -6.40551,0 -8.54068,3.45656 -8.54068,3.45656 -2.41986,5.06963 -4.62621,3.6102 -4.62621,3.6102 -1.35227,-0.99858 0.14235,-2.9957 0.14235,-2.9957 -1.06759,1.92031 -0.76664,1.41451 -2.34869,1.45944 -2.70455,0.0768 -3.62979,-3.30294 -3.62979,-3.30294 -0.71172,-2.22756 2.34869,-3.687 2.34869,-3.687 4.83972,-3.30294 7.93047,-8.67465 8.32716,-10.13925 1.1103,-4.09923 0.41336,-2.16038 1.41226,-4.31649 1.61044,-3.47614 3.6235,-6.08324 3.6235,-6.08324"
       id="path3013"
       inkscape:connector-curvature="0"
       sodipodi:nodetypes="cccccsccssc" />
    <path
       style="fill:#000000;stroke:#000000;stroke-width:2.096;stroke-linecap:butt;stroke-linejoin:miter;stroke-miterlimit:4;stroke-opacity:1;stroke-dasharray:none;fill-opacity:1"
       d="m 33.220343,5.8200314 c 1.1653,-1.72795 4.50232,-3.8438 4.50232,-3.8438 1.34187,5.28963 -0.0177,8.7807896 -0.0177,8.7807896"
       id="path3017"
       inkscape:connector-curvature="0"
       sodipodi:nodetypes="ccc" />
    <path
       style="fill:#ffffff;stroke:#ffffff;stroke-width:1;stroke-linecap:butt;stroke-linejoin:miter;stroke-miterlimit:4;stroke-opacity:1;stroke-dasharray:none;fill-opacity:1"
       d="m 25.928333,19.361491 c 0.74156,-2.50376 4.23749,-2.89167 4.23749,-2.89167"
       id="path3019"
       inkscape:connector-curvature="0" />
    <path
       sodipodi:type="arc"
       style="fill:#ffffff;fill-opacity:1;stroke:#ffffff;stroke-width:14.31286093;stroke-miterlimit:4;stroke-opacity:1;stroke-dasharray:none"
       id="path3023"
       sodipodi:cx="331.07748"
       sodipodi:cy="364.4483"
       sodipodi:rx="12.374369"
       sodipodi:ry="12.626906"
       d="m 343.45185,364.4483 a 12.374369,12.626906 0 1 1 -24.74873,0 12.374369,12.626906 0 1 1 24.74873,0 z"
       transform="matrix(0.0699149,0,0,0.0698196,5.5338931,-6.5496686)" />
    <path
       style="fill:#ffffff;stroke:#ffffff;stroke-width:1.39734482999999998;stroke-linecap:butt;stroke-linejoin:miter;stroke-miterlimit:4;stroke-opacity:1;stroke-dasharray:none;fill-opacity:1"
       d="m 15.342663,34.579391 c -0.37454,-1.32158 1.64799,-1.52106 1.64799,-1.52106"
       id="path3766"
       inkscape:connector-curvature="0" />
    <path
       style="fill:#ffffff;fill-opacity:1;stroke:#ffffff;stroke-width:0.06986723px;stroke-linecap:butt;stroke-linejoin:miter;stroke-opacity:1"
       d="m 35.473142,14.529063 c 18.5743,-3.87908 13.70119,45.34979 13.70119,45.34979 l -2.76354,-0.0705 c 5.55279,-48.43238 -10.93765,-45.27926 -10.93765,-45.27926"
       id="path3790"
       inkscape:connector-curvature="0"
       sodipodi:nodetypes="cccc" />
    <path
       style="fill:#000000;stroke:#000000;stroke-width:1px;stroke-linecap:butt;stroke-linejoin:miter;stroke-opacity:1;fill-opacity:1"
       d="m 28.272727,10.181818 6.045455,0 1.318182,2.545455 -1.045455,7.454545 -6,-8.318182 z"
       id="path4417"
       inkscape:connector-curvature="0" />
    <path
       style="fill:#ffffff;fill-opacity:1;stroke:#ffffff;stroke-width:1;stroke-linecap:butt;stroke-linejoin:miter;stroke-miterlimit:4;stroke-opacity:1;stroke-dasharray:none"
       d="m 17.92817,38.05744 c 2.145602,-1.333439 2.419282,-1.871154 2.419282,-1.871154"
       id="path3025"
       inkscape:connector-curvature="0"
       sodipodi:nodetypes="cc" />
    <path
       style="fill:#000000;stroke:#000000;stroke-width:1px;stroke-linecap:butt;stroke-linejoin:miter;stroke-opacity:1;fill-opacity:1"
       d="m 37.412377,6.2100912 -5.624713,0 0.899954,4.4997708 4.146217,-0.482119 z"
       id="path4421"
       inkscape:connector-curvature="0" />
    <path
       style="fill:none;stroke:#ffffff;stroke-width:1px;stroke-linecap:butt;stroke-linejoin:miter;stroke-opacity:1"
       d="m 33.041172,4.2191182 c 1.124942,2.4588031 1.542778,5.8800598 1.542778,5.8800598"
       id="path4423"
       inkscape:connector-curvature="0"
       sodipodi:nodetypes="cc" />
    <path
       style="fill:none;stroke:#ffffff;stroke-width:1px;stroke-linecap:butt;stroke-linejoin:miter;stroke-opacity:1"
       d="m 32.051708,32.920683 c 8.163869,-1.57492 6.524667,-10.188767 6.524667,-10.188767"
       id="path4475"
       inkscape:connector-curvature="0"
       sodipodi:nodetypes="cc" />
  </g>
</svg>
