<?xml version="1.0" encoding="UTF-8" standalone="no"?>
<!-- Created with Inkscape (http://www.inkscape.org/) -->

<svg
   xmlns:dc="http://purl.org/dc/elements/1.1/"
   xmlns:cc="http://creativecommons.org/ns#"
   xmlns:rdf="http://www.w3.org/1999/02/22-rdf-syntax-ns#"
   xmlns:svg="http://www.w3.org/2000/svg"
   xmlns="http://www.w3.org/2000/svg"
   xmlns:sodipodi="http://sodipodi.sourceforge.net/DTD/sodipodi-0.dtd"
   xmlns:inkscape="http://www.inkscape.org/namespaces/inkscape"
   width="64px"
   height="64px"
   id="svg3811"
   version="1.1"
   inkscape:version="0.48.5 r10040"
   sodipodi:docname="black_knight.svg">
  <defs
     id="defs3813" />
  <sodipodi:namedview
     id="base"
     pagecolor="#ffffff"
     bordercolor="#666666"
     borderopacity="1.0"
     inkscape:pageopacity="0.0"
     inkscape:pageshadow="2"
     inkscape:zoom="7.7781743"
     inkscape:cx="26.845346"
     inkscape:cy="29.830397"
     inkscape:current-layer="layer1"
     showgrid="true"
     inkscape:document-units="px"
     inkscape:grid-bbox="true"
     inkscape:window-width="1920"
     inkscape:window-height="1018"
     inkscape:window-x="0"
     inkscape:window-y="27"
     inkscape:window-maximized="1" />
  <metadata
     id="metadata3816">
    <rdf:RDF>
      <cc:Work
         rdf:about="">
        <dc:format>image/svg+xml</dc:format>
        <dc:type
           rdf:resource="http://purl.org/dc/dcmitype/StillImage" />
        <dc:title />
      </cc:Work>
    </rdf:RDF>
  </metadata>
  <g
     id="layer1"
     inkscape:label="Layer 1"
     inkscape:groupmode="layer">
    <path
       style="fill:#000000;fill-opacity:1;stroke:#000000;stroke-width:1.7756995;stroke-linecap:butt;stroke-linejoin:miter;stroke-miterlimit:4;stroke-opacity:1;stroke-dasharray:none"
       d="m 33.936529,14.247573 c 0,0 9.842672,-0.123547 12.972621,9.070984 0,0 2.503949,4.95705 2.524167,16.261637 0,0 0.115616,6.94409 0.178848,16.441956 l -30.115783,0 0,-4.635861 c 0,-3.561705 2.485173,-4.296651 2.485173,-4.296651 C 37.8534,43.188721 32.556522,31.080051 32.556522,31.080051"
       id="path2991"
       inkscape:connector-curvature="0"
       sodipodi:nodetypes="cccccscc" />
    <path
       style="fill:#000000;fill-opacity:1;stroke:#000000;stroke-width:1.7756995;stroke-linecap:butt;stroke-linejoin:miter;stroke-miterlimit:4;stroke-opacity:1;stroke-dasharray:none"
       d="m 34.215479,15.095986 c 0,-3.357991 -2.859424,-7.0358061 -2.859424,-7.0358061 0,0 -2.859434,3.6778151 -2.859434,7.0358061"
       id="path2993"
       inkscape:connector-curvature="0"
       sodipodi:nodetypes="ccc" />
    <path
       style="fill:#000000;fill-opacity:1;stroke:#000000;stroke-width:1.7756995;stroke-linecap:butt;stroke-linejoin:miter;stroke-miterlimit:4;stroke-opacity:1;stroke-dasharray:none"
       d="m 37.616038,23.965206 c 0.318633,7.203941 -6.117568,8.312243 -6.117568,8.312243 -5.735227,0 -7.646969,2.770746 -7.646969,2.770746 -2.166639,4.063766 -4.142113,2.893903 -4.142113,2.893903 -1.210767,-0.800454 0.127455,-2.401326 0.127455,-2.401326 -0.955877,1.539302 -0.686417,1.133858 -2.102921,1.169873 -2.421541,0.06156 -3.24996,-2.647604 -3.24996,-2.647604 -0.637246,-1.785592 2.102919,-2.955465 2.102919,-2.955465 4.333282,-2.647605 7.10061,-6.953516 7.455789,-8.127525 0.994116,-3.285903 0.370107,-1.731739 1.264479,-3.460056 1.441919,-2.786441 3.244331,-4.876267 3.244331,-4.876267"
       id="path3013"
       inkscape:connector-curvature="0"
       sodipodi:nodetypes="cccccsccssc" />
    <path
       style="fill:#000000;fill-opacity:1;stroke:#000000;stroke-width:1.77568507;stroke-linecap:butt;stroke-linejoin:miter;stroke-miterlimit:4;stroke-opacity:1;stroke-dasharray:none"
       d="m 33.092181,10.87902 c 1.043361,-1.3851082 4.031187,-3.0811537 4.031187,-3.0811537 1.201455,4.2401177 -0.01585,7.0385957 -0.01585,7.0385957"
       id="path3017"
       inkscape:connector-curvature="0"
       sodipodi:nodetypes="ccc" />
    <path
       style="fill:#ffffff;fill-opacity:1;stroke:#ffffff;stroke-width:0.84717792;stroke-linecap:butt;stroke-linejoin:miter;stroke-miterlimit:4;stroke-opacity:1;stroke-dasharray:none"
       d="m 26.56322,21.733721 c 0.663963,-2.006988 3.794072,-2.317932 3.794072,-2.317932"
       id="path3019"
       inkscape:connector-curvature="0" />
    <path
       sodipodi:type="arc"
       style="fill:#ffffff;fill-opacity:1;stroke:#ffffff;stroke-width:14.31286049;stroke-miterlimit:4;stroke-opacity:1;stroke-dasharray:none"
       id="path3023"
       sodipodi:cx="331.07748"
       sodipodi:cy="364.4483"
       sodipodi:rx="12.374369"
       sodipodi:ry="12.626906"
       d="m 343.45185,364.4483 a 12.374369,12.626906 0 1 1 -24.74873,0 12.374369,12.626906 0 1 1 24.74873,0 z"
       transform="matrix(0.06259887,0,0,0.05596671,8.3028919,0.96358719)" />
    <path
       style="fill:#ffffff;fill-opacity:1;stroke:#ffffff;stroke-width:1.18379962;stroke-linecap:butt;stroke-linejoin:miter;stroke-miterlimit:4;stroke-opacity:1;stroke-dasharray:none"
       d="m 17.085254,33.932245 c -0.335347,-1.059365 1.475541,-1.219267 1.475541,-1.219267"
       id="path3766"
       inkscape:connector-curvature="0" />
    <path
       style="fill:#ffffff;fill-opacity:1;stroke:#ffffff;stroke-width:0.05918997px;stroke-linecap:butt;stroke-linejoin:miter;stroke-opacity:1"
       d="m 35.109242,17.860095 c 16.630651,-3.109434 12.267472,36.351954 12.267472,36.351954 l -2.474359,-0.05652 c 4.971736,-38.82292 -9.793113,-36.29541 -9.793113,-36.29541"
       id="path3790"
       inkscape:connector-curvature="0"
       sodipodi:nodetypes="cccc" />
    <path
       style="fill:#000000;fill-opacity:1;stroke:#000000;stroke-width:0.84717792px;stroke-linecap:butt;stroke-linejoin:miter;stroke-opacity:1"
       d="m 28.66229,14.375385 5.41285,0 1.180244,2.040413 -0.936057,5.975492 -5.372149,-6.667776 z"
       id="path4417"
       inkscape:connector-curvature="0" />
    <path
       style="fill:#ffffff;fill-opacity:1;stroke:#ffffff;stroke-width:0.84717792;stroke-linecap:butt;stroke-linejoin:miter;stroke-miterlimit:4;stroke-opacity:1;stroke-dasharray:none"
       d="m 19.400209,36.720214 c 1.921082,-1.068871 2.166124,-1.499898 2.166124,-1.499898"
       id="path3025"
       inkscape:connector-curvature="0"
       sodipodi:nodetypes="cc" />
    <path
       style="fill:#000000;fill-opacity:1;stroke:#000000;stroke-width:0.84717792px;stroke-linecap:butt;stroke-linejoin:miter;stroke-opacity:1"
       d="m 36.845552,11.191688 -5.036132,0 0.805781,3.606972 3.712349,-0.386461 z"
       id="path4421"
       inkscape:connector-curvature="0" />
    <path
       style="fill:none;stroke:#ffffff;stroke-width:0.84717792px;stroke-linecap:butt;stroke-linejoin:miter;stroke-opacity:1"
       d="m 32.931758,9.595742 c 1.007226,1.970955 1.381339,4.713398 1.381339,4.713398"
       id="path4423"
       inkscape:connector-curvature="0"
       sodipodi:nodetypes="cc" />
    <path
       style="fill:none;stroke:#ffffff;stroke-width:0.84717792px;stroke-linecap:butt;stroke-linejoin:miter;stroke-opacity:1"
       d="M 32.045833,32.602641 C 39.35542,31.3402 37.887747,24.435422 37.887747,24.435422"
       id="path4475"
       inkscape:connector-curvature="0"
       sodipodi:nodetypes="cc" />
  </g>
</svg>
