<?xml version="1.0" encoding="UTF-8" standalone="no"?>
<!-- Created with Inkscape (http://www.inkscape.org/) -->

<svg
   xmlns:dc="http://purl.org/dc/elements/1.1/"
   xmlns:cc="http://creativecommons.org/ns#"
   xmlns:rdf="http://www.w3.org/1999/02/22-rdf-syntax-ns#"
   xmlns:svg="http://www.w3.org/2000/svg"
   xmlns="http://www.w3.org/2000/svg"
   xmlns:sodipodi="http://sodipodi.sourceforge.net/DTD/sodipodi-0.dtd"
   xmlns:inkscape="http://www.inkscape.org/namespaces/inkscape"
   width="64px"
   height="64px"
   id="svg3183"
   version="1.1"
   inkscape:version="0.48.5 r10040"
   sodipodi:docname="B_black_square.svg">
  <defs
     id="defs3185" />
  <sodipodi:namedview
     id="base"
     pagecolor="#ffffff"
     bordercolor="#666666"
     borderopacity="1.0"
     inkscape:pageopacity="0.0"
     inkscape:pageshadow="2"
     inkscape:zoom="5.5"
     inkscape:cx="32"
     inkscape:cy="32"
     inkscape:current-layer="layer1"
     showgrid="true"
     inkscape:document-units="px"
     inkscape:grid-bbox="true"
     inkscape:window-width="1920"
     inkscape:window-height="1018"
     inkscape:window-x="0"
     inkscape:window-y="27"
     inkscape:window-maximized="1" />
  <metadata
     id="metadata3188">
    <rdf:RDF>
      <cc:Work
         rdf:about="">
        <dc:format>image/svg+xml</dc:format>
        <dc:type
           rdf:resource="http://purl.org/dc/dcmitype/StillImage" />
        <dc:title />
      </cc:Work>
    </rdf:RDF>
  </metadata>
  <g
     id="layer1"
     inkscape:label="Layer 1"
     inkscape:groupmode="layer">
    <path
       style="fill:#000000;stroke:#000000;stroke-width:1.90599644;stroke-miterlimit:4;stroke-opacity:1;stroke-dasharray:none"
       d="m 31.916772,13.860301 c -1.082629,1.271476 -2.14681,2.569467 -3.325409,3.759044 -2.127986,2.191689 -4.354348,4.353989 -5.942362,6.990971 -1.354179,2.18492 -2.475305,4.740273 -2.101371,7.3655 0.31104,2.021746 1.763421,3.799938 3.575496,4.709159 0.757063,0.365168 1.588805,0.604441 2.42146,0.673587 0.332014,-0.213838 0.240877,-0.709945 0.386151,-1.037413 0.153294,-0.637206 0.306311,-1.272356 0.45151,-1.9125 3.138336,-0.02345 6.276858,-1.27e-4 9.415258,0.0016 0.208464,0.944424 0.411847,1.895553 0.702359,2.821134 0.296855,0.241384 0.728614,-0.0056 1.068469,-0.02777 2.37721,-0.51463 4.325102,-2.482536 4.924509,-4.81218 0.430791,-1.934021 -0.09277,-3.933018 -0.901199,-5.698763 -1.409196,-3.034161 -3.639015,-5.58513 -5.99157,-7.931536 -1.45294,-1.464038 -2.825792,-3.007335 -4.167965,-4.582316 -0.1514,-0.128065 -0.274105,-0.392741 -0.515336,-0.318972 z m 0.117392,4.497177 c 0.34896,0.04416 0.978981,-0.191554 0.797871,0.380386 0.01632,1.413288 -0.03256,2.839425 0.02424,4.24476 0.232182,0.275468 0.722157,0.06249 1.056164,0.129586 1.040615,0 2.081228,0 3.121841,0 0,0.508493 0,1.016977 0,1.525478 -1.355748,0.01616 -2.724306,-0.03209 -4.072103,0.02416 -0.276654,0.231175 -0.06272,0.719041 -0.130142,1.051613 0,2.304064 0,4.608128 0,6.912184 -0.531912,0 -1.063831,0 -1.595741,0 0,-2.599912 0,-5.199824 0,-7.799728 -0.157359,-0.368458 -0.696943,-0.111918 -1.016734,-0.18821 -1.040613,0 -2.081227,0 -3.121841,0 0,-0.5085 0,-1.016986 0,-1.525477 1.334502,-0.01632 2.681915,0.0324 4.008431,-0.02416 0.276655,-0.231183 0.06272,-0.71905 0.130144,-1.051623 0,-1.226319 0,-2.452643 0,-3.678969 0.26596,0 0.53191,0 0.797869,0 z"
       id="path4597"
       inkscape:connector-curvature="0" />
    <path
       style="fill:none;stroke:#000000;stroke-width:1.88684034;stroke-linecap:butt;stroke-linejoin:miter;stroke-miterlimit:4;stroke-opacity:1;stroke-dasharray:none"
       d="m 36.838169,38.194922 c 5.5775,0 7.204272,-4.833862 7.204272,-4.833862 2.138043,-5.919008 -4.660798,-13.009698 -6.600042,-14.896177 -3.346503,-3.255464 -5.391587,-6.116322 -5.391587,-6.116322"
       id="path3027-8"
       inkscape:connector-curvature="0"
       sodipodi:nodetypes="ccsc" />
    <path
       style="fill:none;stroke:#000000;stroke-width:1.88684034;stroke-linecap:butt;stroke-linejoin:miter;stroke-miterlimit:4;stroke-opacity:1;stroke-dasharray:none"
       d="m 27.27156,38.182592 c -5.5775,0 -7.204273,-4.833861 -7.204273,-4.833861 -2.138042,-5.91901 4.660798,-13.009698 6.600041,-14.896186 3.346504,-3.255455 5.391588,-6.116314 5.391588,-6.116314"
       id="path3027"
       inkscape:connector-curvature="0"
       sodipodi:nodetypes="ccsc" />
    <path
       style="fill:#ffffff;fill-opacity:1;stroke:#000000;stroke-width:1.88684034;stroke-linecap:butt;stroke-linejoin:miter;stroke-miterlimit:4;stroke-opacity:1;stroke-dasharray:none"
       d="m 40.422593,47.545643 c 0,0 -1.759051,-0.467752 -4.491037,-0.715025 -3.208585,-0.290409 -7.759182,-0.296528 -12.378332,0.8224 C 26.109578,44.052283 28.01523,35.17376 28.01523,35.17376 l 4.043662,0 4.854101,0.04489"
       id="path2985"
       inkscape:connector-curvature="0"
       sodipodi:nodetypes="cscccc" />
    <path
       style="fill:none;stroke:#000000;stroke-width:1.88684034;stroke-linecap:butt;stroke-linejoin:miter;stroke-miterlimit:4;stroke-opacity:1;stroke-dasharray:none"
       d="m 23.54875,47.654762 c 0,0 1.741326,-0.477897 4.443512,-0.76736 3.247008,-0.347831 7.881414,-0.43906 12.549106,0.69163 -2.556353,-3.600736 -4.552045,-13.126753 -4.552045,-13.126753"
       id="path2985-9"
       inkscape:connector-curvature="0"
       sodipodi:nodetypes="cscc" />
    <path
       style="fill:none;stroke:#000000;stroke-width:1.88684034;stroke-linecap:butt;stroke-linejoin:miter;stroke-miterlimit:4;stroke-opacity:1;stroke-dasharray:none"
       d="m 25.691267,43.26532 c 5.995818,-1.603074 12.73501,0.0072 12.73501,0.0072"
       id="path3856"
       inkscape:connector-curvature="0"
       sodipodi:nodetypes="cc" />
    <path
       style="fill:#000000;stroke:#000000;stroke-width:1.88684034;stroke-linecap:butt;stroke-linejoin:miter;stroke-miterlimit:4;stroke-opacity:1;stroke-dasharray:none"
       d="m 26.940688,39.404653 c 4.974524,-1.498434 10.224256,0.008 10.224256,0.008"
       id="path3858"
       inkscape:connector-curvature="0"
       sodipodi:nodetypes="cc" />
    <path
       style="fill:none;stroke:#000000;stroke-width:1.88684034;stroke-linecap:butt;stroke-linejoin:miter;stroke-miterlimit:4;stroke-opacity:1;stroke-dasharray:none"
       d="m 32.029052,47.132923 c -0.02248,4.023313 -2.009675,6.017415 -2.009675,6.017415 -3.756553,5.452089 -9.16853,1.077738 -9.16853,1.077738 -5.602996,-3.867179 -8.340157,0.951496 -8.340157,0.951496"
       id="path3868"
       inkscape:connector-curvature="0"
       sodipodi:nodetypes="cccc" />
    <path
       style="fill:none;stroke:#000000;stroke-width:1.88684034;stroke-linecap:butt;stroke-linejoin:miter;stroke-miterlimit:4;stroke-opacity:1;stroke-dasharray:none"
       d="m 30.178552,47.254475 c -1.400748,6.656621 -4.239095,7.808114 -6.494377,5.452082 C 19.800281,48.649193 15.4579,49.247889 15.4579,49.247889 11.446668,49.818455 10.423422,52.15006 10.423422,52.15006 l 3.285808,3.100594"
       id="path3870"
       inkscape:connector-curvature="0"
       sodipodi:nodetypes="csccc" />
    <path
       style="fill:none;stroke:#000000;stroke-width:1.88684034;stroke-linecap:butt;stroke-linejoin:miter;stroke-miterlimit:4;stroke-opacity:1;stroke-dasharray:none"
       d="m 32.003893,47.210821 c 0.02248,4.023314 2.009683,6.017416 2.009683,6.017416 3.756552,5.452089 9.16853,1.077738 9.16853,1.077738 5.602988,-3.86718 8.295124,0.929077 8.295124,0.929077"
       id="path3868-9"
       inkscape:connector-curvature="0"
       sodipodi:nodetypes="cccc" />
    <path
       style="fill:none;stroke:#000000;stroke-width:1.88684034;stroke-linecap:butt;stroke-linejoin:miter;stroke-miterlimit:4;stroke-opacity:1;stroke-dasharray:none"
       d="m 33.82144,47.276646 c 1.400749,6.656621 4.239095,7.808105 6.494377,5.452083 3.883895,-4.057365 8.226275,-3.458668 8.226275,-3.458668 4.011233,0.570556 5.034485,2.902169 5.034485,2.902169 l -3.33083,3.100595"
       id="path3870-9"
       inkscape:connector-curvature="0"
       sodipodi:nodetypes="csccc" />
    <path
       sodipodi:type="arc"
       style="fill:#000000;stroke:#000000;stroke-width:30;stroke-miterlimit:4;stroke-opacity:1;stroke-dasharray:none"
       id="path4483"
       sodipodi:cx="-515"
       sodipodi:cy="543.07648"
       sodipodi:rx="34.999996"
       sodipodi:ry="33.571423"
       d="m -480,543.07648 a 34.999996,33.571423 0 1 1 -70,0 34.999996,33.571423 0 1 1 70,0 z"
       transform="matrix(0.06303043,0,0,0.06275921,64.537673,-23.952736)" />
    <path
       sodipodi:type="arc"
       style="fill:#ffffff;stroke:#ffffff;stroke-width:30;stroke-miterlimit:4;stroke-opacity:1;stroke-dasharray:none"
       id="path4485"
       sodipodi:cx="-599.28571"
       sodipodi:cy="185.93361"
       sodipodi:rx="12.142858"
       sodipodi:ry="12.142858"
       d="m -587.14285,185.93361 a 12.142858,12.142858 0 1 1 -24.28571,0 12.142858,12.142858 0 1 1 24.28571,0 z"
       transform="matrix(0.04644348,0,0,0.04624362,59.909915,1.3527524)" />
    <path
       style="fill:#000000;stroke:#000000;stroke-width:1.90599644;stroke-miterlimit:4;stroke-opacity:1;stroke-dasharray:none"
       d="m 31.912796,8.5726412 c -0.910213,0.062249 -1.528796,1.1732711 -1.088365,1.9831158 0.370438,0.861949 1.650987,1.070593 2.266266,0.348688 0.787223,-0.726114 0.273215,-2.2260292 -0.787926,-2.3238747 -0.129584,-0.0099 -0.260071,-0.012872 -0.389975,-0.008 z"
       id="path4587"
       inkscape:connector-curvature="0" />
    <path
       style="fill:none;stroke:#ffffff;stroke-width:1.88684034;stroke-linecap:butt;stroke-linejoin:miter;stroke-miterlimit:4;stroke-opacity:1;stroke-dasharray:none"
       d="m 28.524387,23.866464 3.551305,0 3.531551,0"
       id="path3835"
       inkscape:connector-curvature="0"
       sodipodi:nodetypes="ccc" />
    <path
       style="fill:none;stroke:#ffffff;stroke-width:1.88684034;stroke-linecap:butt;stroke-linejoin:miter;stroke-miterlimit:4;stroke-opacity:1;stroke-dasharray:none"
       d="m 32.042827,19.471364 0,10.813527"
       id="path3065"
       inkscape:connector-curvature="0"
       sodipodi:nodetypes="cc" />
    <path
       style="fill:#000000;stroke:#000000;stroke-width:1.90599644;stroke-miterlimit:4;stroke-opacity:1;stroke-dasharray:none"
       d="m 30.981614,39.575452 c -1.126893,-0.01008 -2.252122,0.19486 -3.336248,0.46071 -0.268503,0.387245 -0.309175,0.927471 -0.495055,1.371714 -0.04888,0.216637 -0.335087,0.62699 0.03296,0.711352 2.44977,-0.370041 4.965397,-0.442915 7.440766,-0.18972 0.764247,0.06209 1.529324,0.13957 2.278908,0.265011 0.409263,-0.07265 0.172471,-0.566556 0.104087,-0.814671 -0.16528,-0.4288 -0.213032,-0.922412 -0.464222,-1.305152 -1.815293,-0.461382 -3.694697,-0.536209 -5.561204,-0.499244 z"
       id="path4599"
       inkscape:connector-curvature="0" />
    <path
       style="fill:#000000;stroke:#000000;stroke-width:1.90599644;stroke-miterlimit:4;stroke-opacity:1;stroke-dasharray:none"
       d="m 15.859906,50.012082 c -1.556638,0.149611 -3.169089,0.700486 -4.248006,1.870188 -0.148015,0.341942 0.321582,0.533001 0.495429,0.764728 0.292176,0.226918 0.517904,0.561876 0.857567,0.711224 0.687999,-0.453398 1.386733,-0.969332 2.202596,-1.176792 1.983258,-0.596792 4.11863,0.06153 5.79017,1.182849 1.337988,0.893513 2.838737,1.779297 4.516469,1.711585 0.27376,-0.04129 0.741958,0.102565 0.82771,-0.239714 -0.184695,-0.322875 -0.672654,-0.1796 -0.990869,-0.297169 -1.426396,-0.23619 -2.289195,-1.49213 -3.361824,-2.320761 -1.704708,-1.373426 -3.880079,-2.242728 -6.089242,-2.206138 z"
       id="path4601"
       inkscape:connector-curvature="0" />
    <path
       style="fill:#000000;stroke:#000000;stroke-width:1.90599644;stroke-miterlimit:4;stroke-opacity:1;stroke-dasharray:none"
       d="m 47.629425,50.055671 c -2.484036,0.08101 -4.819861,1.315049 -6.556058,3.037083 -0.836158,0.88484 -1.970595,1.660096 -3.243209,1.50962 -0.222247,-0.07377 -0.64639,0.07329 -0.431767,0.35264 0.670328,0.273645 1.448421,0.252713 2.156836,0.132739 1.367461,-0.229161 2.538794,-0.998624 3.672983,-1.745381 1.282325,-0.802652 2.751162,-1.385363 4.287798,-1.303585 1.240621,0.03104 2.432762,0.536305 3.386464,1.321411 0.376904,0.08068 0.579472,-0.426128 0.873478,-0.600282 0.190048,-0.278613 0.753599,-0.458789 0.649895,-0.837944 -0.923933,-0.983165 -2.239067,-1.560244 -3.560032,-1.787114 -0.408863,-0.06289 -0.822373,-0.09102 -1.236388,-0.07913 z"
       id="path4603"
       inkscape:connector-curvature="0" />
    <path
       style="fill:#000000;stroke:#000000;stroke-width:1.90599644;stroke-miterlimit:4;stroke-opacity:1;stroke-dasharray:none"
       d="m 33.025034,48.791699 c -0.161376,0.353169 0.104496,0.759591 0.156647,1.120904 0.23711,0.7333 0.470439,1.509117 0.967534,2.114294 0.280208,0.16107 0.397223,-0.24956 0.232792,-0.431882 -0.4336,-0.885048 -0.68843,-1.83912 -1.040613,-2.753779 -0.0696,-0.115136 -0.211113,-0.131147 -0.31636,-0.04953 z"
       id="path4605"
       inkscape:connector-curvature="0" />
    <path
       style="fill:#000000;stroke:#000000;stroke-width:0.67387152;stroke-miterlimit:4;stroke-opacity:1;stroke-dasharray:none"
       d="m 30.92323,47.780675 c -0.14972,0.135122 -0.140879,0.376163 -0.208935,0.56046 -0.349959,1.415352 -0.832951,2.813397 -1.590524,4.069431 -0.110984,0.149572 0.06832,0.377427 0.246215,0.287183 0.193369,-0.146276 0.31668,-0.368346 0.464286,-0.557547 0.83648,-1.229151 1.260887,-2.702766 1.385118,-4.173205 0.01255,-0.15226 -0.160984,-0.268829 -0.29616,-0.186322 z"
       id="path4607"
       inkscape:connector-curvature="0" />
    <path
       style="fill:#000000;stroke:#000000;stroke-width:0.16846788;stroke-miterlimit:4;stroke-opacity:1;stroke-dasharray:none"
       d="m 27.779102,53.938613 c -0.09047,0.02544 -0.162935,0.09745 -0.245686,0.143579 -0.134977,0.08655 -0.277474,0.160277 -0.420673,0.232375 -0.08456,0.04913 -0.118671,0.164247 -0.07296,0.250843 0.03793,0.08111 0.133864,0.134027 0.221735,0.114952 0.08841,-0.02408 0.165681,-0.08198 0.246569,-0.125194 0.149727,-0.08948 0.299662,-0.180713 0.435774,-0.28988 0.07456,-0.06392 0.08648,-0.190449 0.01752,-0.264667 -0.04312,-0.05256 -0.116096,-0.07433 -0.18229,-0.06209 z"
       id="path4609"
       inkscape:connector-curvature="0" />
    <path
       style="fill:#000000;stroke:#000000;stroke-width:1.88684034;stroke-miterlimit:4;stroke-opacity:1;stroke-dasharray:none"
       id="path4613"
       d="m 29.320915,52.598687 c -0.02168,0.03248 -0.04136,0.06617 -0.05768,0.101694 -0.0112,0.02656 -0.02248,0.05313 -0.03208,0.08041 -0.0082,0.02624 -0.01768,0.05208 -0.02648,0.07801 -0.0016,0.01176 -0.0072,0.02104 -0.01272,0.03129 -0.0056,0.0104 -0.0097,0.02144 -0.0152,0.03185 -0.01504,0.02968 -0.02928,0.05969 -0.04416,0.08942 -0.01408,0.032 -0.02608,0.06497 -0.04088,0.09666 -0.01504,0.03184 -0.03104,0.06337 -0.04696,0.09486 -0.02192,0.04952 -0.0528,0.0938 -0.0853,0.136833 -0.04208,0.05168 -0.08644,0.101494 -0.131431,0.15066 -0.0264,0.02865 -0.05256,0.05753 -0.08127,0.08383 -0.004,0.0032 -0.0072,0.0072 -0.01128,0.0098 -0.01032,0.008 -0.01888,0.01297 -0.02976,0.02032 -0.02,0.0136 -0.03984,0.02745 -0.05936,0.04169 -0.03936,0.02792 -0.07584,0.05937 -0.112402,0.09071 -0.03072,0.02544 -0.06144,0.05089 -0.09334,0.07489 -0.004,0.0024 -0.0072,0.0064 -0.01096,0.0088 -0.160296,0.0906 -0.316352,0.189346 -0.481934,0.269981 -0.0099,0.0056 -0.01728,-0.01456 -0.02232,-0.02439 -0.0064,-0.01184 -0.0099,-0.02536 -0.0099,-0.03873 -1.6e-5,-0.02088 0.0196,-0.05153 0.02848,-0.06801 0.04928,-0.07745 0.111991,-0.144547 0.176726,-0.209156 0.06008,-0.05465 0.116704,-0.112847 0.175256,-0.169071 0.03496,-0.03408 0.06712,-0.07065 0.09954,-0.107054 0.02776,-0.0328 0.05832,-0.06305 0.08734,-0.09473 0.03784,-0.04281 0.06776,-0.09159 0.0947,-0.141699 0.01192,-0.02096 0.02265,-0.04305 0.0372,-0.06233 0.0048,-0.0064 0.01688,-0.02008 0.02152,-0.02544 0.0324,-0.03209 0.06096,-0.06697 0.08521,-0.105502 0.0152,-0.0272 0.03048,-0.05441 0.04728,-0.08067 0.0099,-0.01656 0.0212,-0.032 0.03344,-0.04697 0.01088,-0.01328 0.0048,-0.0098 0.01496,-0.01384 0.0032,0.01008 0.008,0.02 0.0104,0.03024 0.0492,0.180352 -0.187232,0.129049 0.422464,-0.208388 0.01848,-0.01016 -0.0348,0.02392 -0.05176,0.03657 -0.04273,0.03169 -0.07064,0.05529 -0.111937,0.0891 -0.0816,0.06721 -0.161288,0.136858 -0.236158,0.211501 -0.04831,0.04809 -0.05752,0.05951 -0.103137,0.109671 -0.103624,0.115664 -0.19176,0.243408 -0.276551,0.373018 -0.05248,0.08259 -0.101848,0.167806 -0.137352,0.259155 -0.0097,0.02848 -0.0056,0.01504 -0.0128,0.04041 0,0 -0.488214,0.22603 -0.488214,0.22603 l 0,0 c 0.01416,-0.03144 0.0064,-0.01488 0.02328,-0.04937 0.01464,-0.028 0.02216,-0.04353 0.03912,-0.07129 0.0092,-0.01496 0.01912,-0.02944 0.02864,-0.04416 0.0368,-0.05713 0.07312,-0.114736 0.111671,-0.170767 0.08651,-0.129379 0.171904,-0.260147 0.272807,-0.37906 0.01704,-0.01913 0.03368,-0.03864 0.0512,-0.05753 0.08779,-0.09461 0.183287,-0.181912 0.279999,-0.2673 0.03184,-0.02817 0.06408,-0.05593 0.09577,-0.08435 0.01192,-0.01073 0.02167,-0.02425 0.03536,-0.03265 0.159335,-0.09805 0.317103,-0.19933 0.482839,-0.286238 0.01352,-0.0072 0.03248,6.32e-4 0.0448,0.0096 0.01144,0.008 0.0132,0.02481 0.01976,0.0372 -7.97e-4,0.0064 -7.97e-4,0.01232 -0.0032,0.01784 -0.0016,0.004 -0.0064,0.0072 -0.0093,0.0108 -0.0116,0.01408 -0.024,0.02737 -0.03512,0.04185 -0.01888,0.02785 -0.03841,0.05537 -0.05696,0.08339 -0.02336,0.03824 -0.0464,0.07706 -0.07552,0.111336 -0.0244,0.02672 -0.0504,0.05193 -0.0708,0.08198 -0.03184,0.04913 -0.06176,0.0994 -0.09288,0.149044 -0.0092,0.01328 -0.01704,0.02521 -0.02728,0.03753 -0.01736,0.02088 -0.03784,0.03896 -0.0556,0.05952 -0.03584,0.03697 -0.06952,0.07584 -0.105471,0.112669 -0.008,0.0072 -0.01496,0.01513 -0.02288,0.0221 -0.02016,0.01792 -0.04168,0.03424 -0.062,0.05201 -0.02616,0.0228 -0.0496,0.04464 -0.07512,0.06832 -0.01247,0.01161 -0.02488,0.0232 -0.03736,0.03473 -0.05896,0.05897 -0.116792,0.119672 -0.164343,0.188401 -0.0048,0.008 -0.009,0.01521 -0.01344,0.02288 -0.0024,0.004 -0.0024,0.012 -0.0064,0.01248 -0.0048,4.4e-4 -0.0072,-0.0072 -0.01048,-0.01088 -0.004,-0.004 -0.004,-0.01808 -0.0095,-0.01528 -0.06192,0.03265 -0.627519,0.359584 -0.447431,0.25549 0.03392,-0.02312 0.06808,-0.046 0.09881,-0.07321 0.0392,-0.03049 0.07592,-0.06377 0.115361,-0.09393 0.02904,-0.02312 0.05728,-0.0477 0.08967,-0.06601 0.03536,-0.02552 0.06944,-0.05265 0.100107,-0.08383 0.01496,-0.01519 0.0304,-0.02984 0.0452,-0.0452 0.0316,-0.03257 0.0612,-0.06713 0.09078,-0.101454 0.02984,-0.03793 0.05688,-0.07793 0.07784,-0.121464 0.01408,-0.03096 0.02736,-0.06233 0.04192,-0.09315 0.0024,-0.0056 0.0048,-0.0098 0.0072,-0.01465 0.0024,-0.004 0.0064,-0.0092 0.0087,-0.01416 0.0024,-0.0056 0.0048,-0.01104 0.0072,-0.01656 0.0072,-0.01664 0.01584,-0.0328 0.0212,-0.05032 0.0112,-0.02993 0.0264,-0.05809 0.03744,-0.08808 0.004,-0.01064 0.01002,-0.02056 0.01424,-0.03128 0.0016,-0.0032 0.0024,-0.008 0.004,-0.01096 7.76e-4,-0.0016 0.01072,-0.01592 0.01152,-0.01704 0.0072,-0.01664 0.01432,-0.03345 0.02016,-0.05065 0.0016,-0.004 0.0024,-0.0089 0.004,-0.01344 0.0016,-0.004 0.0032,-0.008 0.0048,-0.01224 0.009,-0.03096 0.01856,-0.06185 0.03592,-0.08947 0.01496,-0.03225 0.02992,-0.06441 0.04351,-0.09718 0,0 0.504952,-0.22747 0.504952,-0.22747 z"
       inkscape:connector-curvature="0" />
    <path
       style="fill:#000000;stroke:#000000;stroke-width:1.88684034;stroke-miterlimit:4;stroke-opacity:1;stroke-dasharray:none"
       id="path4625"
       d="m 36.095441,54.848496 c -0.02255,-0.01536 -0.05,-0.03361 -0.07096,-0.05017 -0.0048,-0.0032 -0.09828,-0.08348 -0.100432,-0.08523 -0.06592,-0.05608 -0.04384,-0.03737 -0.10992,-0.09323 -0.076,-0.06073 -0.152136,-0.122879 -0.235632,-0.173303 -0.0087,-0.0064 -0.01728,-0.01176 -0.02616,-0.0172 -0.0072,-0.004 -0.01536,-0.008 -0.02265,-0.01264 -0.03319,-0.02136 -0.0612,-0.05 -0.08922,-0.07745 -0.042,-0.04129 -0.07984,-0.08637 -0.117967,-0.131074 -0.03016,-0.03609 -0.06192,-0.07041 -0.09467,-0.104182 -0.03928,-0.04328 -0.08138,-0.084 -0.121112,-0.126865 -0.04144,-0.04024 -0.08324,-0.07985 -0.120232,-0.124209 -0.02408,-0.03024 -0.04848,-0.06048 -0.07144,-0.09157 -0.0032,-0.004 -0.0072,-0.0091 -0.01032,-0.01368 0,0 0.957654,-0.568773 0.957654,-0.568773 l 0,0 c 0.004,0.0056 0.0083,0.01008 0.01248,0.0152 0.02265,0.02919 0.0412,0.06121 0.06552,0.08904 0.03472,0.04193 0.07184,0.08163 0.109999,0.120488 0.042,0.04129 0.0865,0.07985 0.126368,0.123249 0.03472,0.03544 0.066,0.07393 0.09733,0.112351 0.03448,0.04193 0.0704,0.08304 0.110584,0.119768 0.03984,0.03537 0.08405,0.06424 0.126799,0.09599 0.0768,0.06145 0.149312,0.127624 0.223103,0.192585 0.046,0.03841 0.06128,0.05247 0.10972,0.08816 0.0416,0.03064 0.0874,0.06521 0.139744,0.07529 0.0087,0.0016 0.01776,6.3e-5 0.02672,1.29e-4 0,0 -0.915335,0.637445 -0.915335,0.637445 z"
       inkscape:connector-curvature="0" />
  </g>
</svg>
