<?xml version="1.0" encoding="UTF-8" standalone="no"?>
<!-- Created with Inkscape (http://www.inkscape.org/) -->

<svg
   xmlns:dc="http://purl.org/dc/elements/1.1/"
   xmlns:cc="http://creativecommons.org/ns#"
   xmlns:rdf="http://www.w3.org/1999/02/22-rdf-syntax-ns#"
   xmlns:svg="http://www.w3.org/2000/svg"
   xmlns="http://www.w3.org/2000/svg"
   xmlns:sodipodi="http://sodipodi.sourceforge.net/DTD/sodipodi-0.dtd"
   xmlns:inkscape="http://www.inkscape.org/namespaces/inkscape"
   width="64px"
   height="64px"
   id="svg3044"
   version="1.1"
   inkscape:version="0.48.5 r10040"
   sodipodi:docname="white_bishop.svg">
  <defs
     id="defs3046" />
  <sodipodi:namedview
     id="base"
     pagecolor="#ffffff"
     bordercolor="#666666"
     borderopacity="1.0"
     inkscape:pageopacity="0.0"
     inkscape:pageshadow="2"
     inkscape:zoom="15.556349"
     inkscape:cx="27.092096"
     inkscape:cy="41.144431"
     inkscape:current-layer="layer1"
     showgrid="true"
     inkscape:document-units="px"
     inkscape:grid-bbox="true"
     inkscape:window-width="1920"
     inkscape:window-height="1018"
     inkscape:window-x="0"
     inkscape:window-y="27"
     inkscape:window-maximized="1" />
  <metadata
     id="metadata3049">
    <rdf:RDF>
      <cc:Work
         rdf:about="">
        <dc:format>image/svg+xml</dc:format>
        <dc:type
           rdf:resource="http://purl.org/dc/dcmitype/StillImage" />
        <dc:title />
      </cc:Work>
    </rdf:RDF>
  </metadata>
  <g
     id="layer1"
     inkscape:label="Layer 1"
     inkscape:groupmode="layer">
    <path
       style="fill:#ffffff;fill-opacity:1;stroke:#ffffff;stroke-width:0.49426454;stroke-linecap:butt;stroke-linejoin:miter;stroke-miterlimit:4;stroke-opacity:1;stroke-dasharray:none"
       d="m 32.065081,13.872288 -10.889219,15.748108 21.77844,0.109818 z"
       id="path4907"
       inkscape:connector-curvature="0"
       sodipodi:nodetypes="cccc" />
    <path
       style="fill:#ffffff;fill-opacity:1;stroke:#000000;stroke-width:0.50043678;stroke-linecap:butt;stroke-linejoin:miter;stroke-miterlimit:4;stroke-opacity:1;stroke-dasharray:none"
       d="m 32.341995,46.653611 1.807631,-0.0951 2.061329,6.27688 2.822432,1.172957 5.613151,-4.343102 5.042333,-0.06341 3.868951,2.187394 -2.980995,2.40931 -5.010613,-1.394857 -4.883761,2.599514 -3.551831,0.285316 -3.678675,-3.13844 z"
       id="path6020"
       inkscape:connector-curvature="0" />
    <path
       style="fill:#ffffff;fill-opacity:1;stroke:#000000;stroke-width:0;stroke-linecap:butt;stroke-linejoin:miter;stroke-miterlimit:4;stroke-opacity:1;stroke-dasharray:none"
       d="m 32.120009,46.71702 -2.09304,-0.06341 -1.871053,5.167337 -2.219894,2.060586 -4.978893,-3.423747 -6.913379,-1.23636 -3.55183,2.94823 3.044426,2.948238 3.202983,-2.536113 4.883768,1.775278 4.376356,1.838679 3.868951,-2.631217 2.378458,-3.994378 z"
       id="path5999"
       inkscape:connector-curvature="0" />
    <path
       style="fill:#ffffff;fill-opacity:0;stroke:#000000;stroke-width:2.01233983;stroke-linecap:butt;stroke-linejoin:miter;stroke-miterlimit:4;stroke-opacity:1;stroke-dasharray:none"
       d="m 32.028917,47.134374 c -0.02244,4.023732 -2.001948,6.018039 -2.001948,6.018039 -3.742099,5.452645 -9.133271,1.077845 -9.133271,1.077845 -5.581441,-3.867569 -8.308075,0.951589 -8.308075,0.951589"
       id="path3868"
       inkscape:connector-curvature="0"
       sodipodi:nodetypes="cccc" />
    <path
       style="fill:#ffffff;fill-opacity:0;stroke:#000000;stroke-width:2.01275659;stroke-linecap:butt;stroke-linejoin:miter;stroke-miterlimit:4;stroke-opacity:1;stroke-dasharray:none"
       d="m 30.185533,47.255939 c -1.39536,6.657308 -4.222783,7.80891 -6.469395,5.452645 -3.868961,-4.057781 -8.194642,-3.459018 -8.194642,-3.459018 -3.995805,0.570614 -5.015118,2.902459 -5.015118,2.902459 l 3.273171,3.100915"
       id="path3870"
       inkscape:connector-curvature="0"
       sodipodi:nodetypes="csccc" />
    <path
       style="fill:#ffffff;fill-opacity:1;stroke:#000000;stroke-width:2.01233983;stroke-linecap:butt;stroke-linejoin:miter;stroke-miterlimit:4;stroke-opacity:1;stroke-dasharray:none"
       d="m 27.289718,38.18313 c -5.556047,0 -7.176565,-4.834349 -7.176565,-4.834349 -2.129816,-5.919616 4.642873,-13.011031 6.574666,-14.89771 3.33363,-3.255791 5.370844,-6.116943 5.370844,-6.116943"
       id="path3027"
       inkscape:connector-curvature="0"
       sodipodi:nodetypes="ccsc" />
    <path
       style="fill:#ffffff;fill-opacity:1;stroke:#000000;stroke-width:2.01233983;stroke-linecap:butt;stroke-linejoin:miter;stroke-miterlimit:4;stroke-opacity:1;stroke-dasharray:none"
       d="m 36.819532,38.195461 c 5.556055,0 7.176566,-4.834351 7.176566,-4.834351 2.129824,-5.919615 -4.642867,-13.01103 -6.574659,-14.897701 -3.33363,-3.255799 -5.370851,-6.116943 -5.370851,-6.116943"
       id="path3027-8"
       inkscape:connector-curvature="0"
       sodipodi:nodetypes="ccsc" />
    <path
       style="fill:#ffffff;fill-opacity:1;stroke:#000000;stroke-width:2.01233983;stroke-linecap:butt;stroke-linejoin:miter;stroke-miterlimit:4;stroke-opacity:1;stroke-dasharray:none"
       d="m 40.390174,47.547147 c 0,0 -1.752283,-0.467802 -4.473767,-0.715104 -3.19624,-0.290434 -7.729339,-0.296566 -12.330717,0.822483 2.546519,-3.601107 4.444843,-12.480531 4.444843,-12.480531 l 4.028114,0 4.835435,-0.02238"
       id="path2985"
       inkscape:connector-curvature="0"
       sodipodi:nodetypes="cscccc" />
    <path
       style="fill:#ffffff;fill-opacity:1;stroke:#000000;stroke-width:2.01233983;stroke-linecap:butt;stroke-linejoin:miter;stroke-miterlimit:4;stroke-opacity:1;stroke-dasharray:none"
       d="m 23.581233,47.656277 c 0,0 1.734623,-0.477949 4.426414,-0.767438 3.234527,-0.347869 7.851114,-0.439113 12.500849,0.691692 C 37.961968,43.97943 35.973959,34.452437 35.973959,34.452437"
       id="path2985-9"
       inkscape:connector-curvature="0"
       sodipodi:nodetypes="cscc" />
    <path
       style="fill:#ffffff;fill-opacity:1;stroke:#000000;stroke-width:2.01233983;stroke-linecap:butt;stroke-linejoin:miter;stroke-miterlimit:4;stroke-opacity:1;stroke-dasharray:none"
       d="m 32.04264,19.469985 0,10.814639"
       id="path3065"
       inkscape:connector-curvature="0"
       sodipodi:nodetypes="cc" />
    <path
       style="fill:#ffffff;fill-opacity:1;stroke:#000000;stroke-width:2.01233983;stroke-linecap:butt;stroke-linejoin:miter;stroke-miterlimit:4;stroke-opacity:1;stroke-dasharray:none"
       d="m 28.537745,23.39383 3.537637,0 3.51797,0"
       id="path3835"
       inkscape:connector-curvature="0"
       sodipodi:nodetypes="ccc" />
    <path
       style="fill:#ffffff;fill-opacity:1;stroke:#000000;stroke-width:2.01233983;stroke-linecap:butt;stroke-linejoin:miter;stroke-miterlimit:4;stroke-opacity:1;stroke-dasharray:none"
       d="m 25.715506,43.266381 c 5.972758,-1.603243 12.686028,0.0072 12.686028,0.0072"
       id="path3856"
       inkscape:connector-curvature="0"
       sodipodi:nodetypes="cc" />
    <path
       style="fill:#ffffff;fill-opacity:1;stroke:#000000;stroke-width:2.01233983;stroke-linecap:butt;stroke-linejoin:miter;stroke-miterlimit:4;stroke-opacity:1;stroke-dasharray:none"
       d="m 26.960121,39.405313 c 4.955395,-1.498583 10.184935,0.008 10.184935,0.008"
       id="path3858"
       inkscape:connector-curvature="0"
       sodipodi:nodetypes="cc" />
    <path
       style="fill:#ffffff;fill-opacity:0;stroke:#000000;stroke-width:2.01233983;stroke-linecap:butt;stroke-linejoin:miter;stroke-miterlimit:4;stroke-opacity:1;stroke-dasharray:none"
       d="m 32.003852,47.212287 c 0.02244,4.023725 2.001954,6.018032 2.001954,6.018032 3.7421,5.452645 9.133265,1.077853 9.133265,1.077853 5.58144,-3.867575 8.263232,0.929168 8.263232,0.929168"
       id="path3868-9"
       inkscape:connector-curvature="0"
       sodipodi:nodetypes="cccc" />
    <path
       style="fill:#ffffff;fill-opacity:0;stroke:#000000;stroke-width:2.01233983;stroke-linecap:butt;stroke-linejoin:miter;stroke-miterlimit:4;stroke-opacity:1;stroke-dasharray:none"
       d="m 33.814413,47.278111 c 1.39536,6.657301 4.222792,7.808911 6.469396,5.452645 3.86896,-4.057779 8.194641,-3.459026 8.194641,-3.459026 3.995804,0.570624 5.015119,2.902477 5.015119,2.902477 l -3.318021,3.100907"
       id="path3870-9"
       inkscape:connector-curvature="0"
       sodipodi:nodetypes="csccc" />
    <path
       sodipodi:type="arc"
       style="fill:#ffffff;fill-opacity:1;stroke:#ffffff;stroke-width:43.50383759;stroke-miterlimit:4;stroke-opacity:1;stroke-dasharray:none"
       id="path4485"
       sodipodi:cx="-599.28571"
       sodipodi:cy="185.93361"
       sodipodi:rx="12.142858"
       sodipodi:ry="12.142858"
       d="m -587.14285,185.93361 a 12.142858,12.142858 0 1 1 -24.28571,0 12.142858,12.142858 0 1 1 24.28571,0 z"
       transform="matrix(0.04626486,0,0,0.04624836,59.802547,1.3495333)" />
    <path
       sodipodi:type="arc"
       style="fill:#ffffff;fill-opacity:1;stroke:#000000;stroke-width:32.12969424;stroke-miterlimit:4;stroke-opacity:1;stroke-dasharray:none"
       id="path4483"
       sodipodi:cx="-515"
       sodipodi:cy="543.07648"
       sodipodi:rx="34.999996"
       sodipodi:ry="33.571423"
       d="m -480,543.07648 a 34.999996,33.571423 0 1 1 -70,0 34.999996,33.571423 0 1 1 70,0 z"
       transform="matrix(0.06278802,0,0,0.06276562,64.412513,-23.958552)" />
    <path
       style="fill:#ffffff;fill-opacity:1;stroke:#000000;stroke-width:1.00087357;stroke-linecap:butt;stroke-linejoin:miter;stroke-miterlimit:4;stroke-opacity:1;stroke-dasharray:none"
       d="m 33.506231,35.649886 2.982434,0"
       id="path4323"
       inkscape:connector-curvature="0" />
    <path
       style="fill:#ffffff;fill-opacity:1;stroke:#000000;stroke-width:2.01233983;stroke-linecap:butt;stroke-linejoin:miter;stroke-miterlimit:4;stroke-opacity:1;stroke-dasharray:none"
       d="m 24.486775,46.42294 0.717579,-1.894179"
       id="path4325"
       inkscape:connector-curvature="0"
       sodipodi:nodetypes="cc" />
    <path
       style="fill:#ffffff;fill-opacity:1;stroke:#000000;stroke-width:2.01233983;stroke-linecap:butt;stroke-linejoin:miter;stroke-miterlimit:4;stroke-opacity:1;stroke-dasharray:none"
       d="M 19.47423,53.391431 C 16.043311,51.867126 12.545125,55.16232 12.545125,55.16232"
       id="path4327"
       inkscape:connector-curvature="0"
       sodipodi:nodetypes="cc" />
    <path
       style="fill:#ffffff;fill-opacity:0;stroke:#000000;stroke-width:2.01233983;stroke-linecap:butt;stroke-linejoin:miter;stroke-miterlimit:4;stroke-opacity:1;stroke-dasharray:none"
       d="m 44.836821,53.342615 c 3.995806,-1.775278 6.279122,1.553373 6.279122,1.553373"
       id="path4329"
       inkscape:connector-curvature="0"
       sodipodi:nodetypes="cc" />
    <path
       style="fill:#ffffff;fill-opacity:1;stroke:none"
       d="m 24.604093,28.647206 15.888084,0.158505 0.380552,5.42681 -16.490623,0 z"
       id="path4928"
       inkscape:connector-curvature="0"
       sodipodi:nodetypes="ccccc" />
  </g>
</svg>
