<?xml version="1.0" encoding="UTF-8" standalone="no"?>
<!-- Created with Inkscape (http://www.inkscape.org/) -->

<svg
   xmlns:dc="http://purl.org/dc/elements/1.1/"
   xmlns:cc="http://creativecommons.org/ns#"
   xmlns:rdf="http://www.w3.org/1999/02/22-rdf-syntax-ns#"
   xmlns:svg="http://www.w3.org/2000/svg"
   xmlns="http://www.w3.org/2000/svg"
   xmlns:sodipodi="http://sodipodi.sourceforge.net/DTD/sodipodi-0.dtd"
   xmlns:inkscape="http://www.inkscape.org/namespaces/inkscape"
   width="64px"
   height="64px"
   id="svg3984"
   version="1.1"
   inkscape:version="0.48.5 r10040"
   sodipodi:docname="Q_white_square.svg">
  <defs
     id="defs3986" />
  <sodipodi:namedview
     id="base"
     pagecolor="#ffffff"
     bordercolor="#666666"
     borderopacity="1.0"
     inkscape:pageopacity="0.0"
     inkscape:pageshadow="2"
     inkscape:zoom="62.225397"
     inkscape:cx="34.744967"
     inkscape:cy="14.858389"
     inkscape:current-layer="layer1"
     showgrid="true"
     inkscape:document-units="px"
     inkscape:grid-bbox="true"
     inkscape:window-width="1920"
     inkscape:window-height="1018"
     inkscape:window-x="0"
     inkscape:window-y="27"
     inkscape:window-maximized="1" />
  <metadata
     id="metadata3989">
    <rdf:RDF>
      <cc:Work
         rdf:about="">
        <dc:format>image/svg+xml</dc:format>
        <dc:type
           rdf:resource="http://purl.org/dc/dcmitype/StillImage" />
        <dc:title />
      </cc:Work>
    </rdf:RDF>
  </metadata>
  <g
     id="layer1"
     inkscape:label="Layer 1"
     inkscape:groupmode="layer">
    <path
       style="fill:#ffffff;fill-opacity:1;stroke:#000000;stroke-width:0.09078312px;stroke-linecap:butt;stroke-linejoin:miter;stroke-opacity:1"
       d="m 14.365826,48.290671 -2.28788,-16.57049 -4.5757502,-12.14484 12.8284502,15.23251 2.69643,-24.80428 8.00756,23.77505 2.12446,-0.20584 6.94534,-22.64291 2.77813,19.3494 1.14394,3.7052 12.09306,-13.27697 -6.6185,18.42308 0,8.95424 -18.2213,-4.21981 z"
       id="path6542"
       inkscape:connector-curvature="0" />
    <path
       style="fill:#ffffff;fill-opacity:1;stroke:#000000;stroke-width:2.62222815;stroke-linecap:butt;stroke-linejoin:miter;stroke-miterlimit:4;stroke-opacity:1;stroke-dasharray:none"
       d="m 51.969096,61.873581 -40.24066,0 c 0.24991,-0.46451 0.4946,-0.93846 0.68806,-1.42031 0.65315,-1.62689 1.18491,-3.26044 1.49335,-5.04093 0.68986,-3.98213 0.49945,-4.36508 0.59632,-7.05843 19.63075,-8.52064 34.81026,0.008 34.81026,0.008"
       id="path4851"
       inkscape:connector-curvature="0"
       sodipodi:nodetypes="ccsscc" />
    <path
       style="fill:none;stroke:#000000;stroke-width:2.62222815;stroke-linecap:butt;stroke-linejoin:miter;stroke-miterlimit:4;stroke-opacity:1;stroke-dasharray:none"
       d="m 11.728416,61.873541 40.24068,0 c -1.22614,-2.39986 -1.97818,-4.98041 -2.36225,-7.64838 -2.44497,-16.98425 8.06904,-37.51067 8.06904,-37.51067 -9.81884,14.55111 -14.06145,17.26729 -14.06145,17.26729 -2.05219,-8.39549 -2.75198,-26.86379 -2.75198,-26.86379 -4.13634,24.07652 -9.75475,28.04412 -9.75475,28.04412"
       id="path4851-3"
       inkscape:connector-curvature="0"
       sodipodi:nodetypes="ccscccc" />
    <path
       style="fill:none;stroke:#000000;stroke-width:2.62222815;stroke-linecap:butt;stroke-linejoin:miter;stroke-miterlimit:4;stroke-opacity:1;stroke-dasharray:none"
       d="m 51.974926,61.873561 -40.24067,0 c 1.22613,-2.39986 1.97817,-4.98042 2.36224,-7.64838 2.44497,-16.98426 -8.0690402,-37.51067 -8.0690402,-37.51067 9.8188402,14.5511 14.0614502,17.26729 14.0614502,17.26729 2.05219,-8.3955 2.75198,-26.8638 2.75198,-26.8638 4.05449,23.95558 9.90089,28.03425 9.90089,28.03425"
       id="path4851-3-0"
       inkscape:connector-curvature="0"
       sodipodi:nodetypes="ccscccc" />
    <path
       sodipodi:type="arc"
       style="fill:#ffffff;stroke:#000000;stroke-width:20;stroke-miterlimit:4;stroke-opacity:1;stroke-dasharray:none"
       id="path5446-4"
       sodipodi:cx="377.85715"
       sodipodi:cy="303.07648"
       sodipodi:rx="25"
       sodipodi:ry="24.285713"
       d="m 402.85715,303.07648 a 25,24.285713 0 1 1 -50,0 25,24.285713 0 1 1 50,0 z"
       transform="matrix(0.09828074,0,0,0.10053933,-31.385025,-15.152769)" />
    <path
       sodipodi:type="arc"
       style="fill:#ffffff;stroke:#000000;stroke-width:20;stroke-miterlimit:4;stroke-opacity:1;stroke-dasharray:none"
       id="path5446-4-7"
       sodipodi:cx="377.85715"
       sodipodi:cy="303.07648"
       sodipodi:rx="25"
       sodipodi:ry="24.285713"
       d="m 402.85715,303.07648 a 25,24.285713 0 1 1 -50,0 25,24.285713 0 1 1 50,0 z"
       transform="matrix(0.09828074,0,0,0.10053932,-14.707044,-26.304486)" />
    <path
       sodipodi:type="arc"
       style="fill:#ffffff;stroke:#000000;stroke-width:20;stroke-miterlimit:4;stroke-opacity:1;stroke-dasharray:none"
       id="path5446-4-8"
       sodipodi:cx="377.85715"
       sodipodi:cy="303.07648"
       sodipodi:rx="25"
       sodipodi:ry="24.285713"
       d="m 402.85715,303.07648 a 25,24.285713 0 1 1 -50,0 25,24.285713 0 1 1 50,0 z"
       transform="matrix(0.09828074,0,0,0.10053932,4.3121858,-26.304466)" />
    <path
       sodipodi:type="arc"
       style="fill:#ffffff;stroke:#000000;stroke-width:20;stroke-miterlimit:4;stroke-opacity:1;stroke-dasharray:none"
       id="path5446-4-1"
       sodipodi:cx="377.85715"
       sodipodi:cy="303.07648"
       sodipodi:rx="25"
       sodipodi:ry="24.285713"
       d="m 402.85715,303.07648 a 25,24.285713 0 1 1 -50,0 25,24.285713 0 1 1 50,0 z"
       transform="matrix(0.09828074,0,0,0.10053932,21.123456,-15.162489)" />
    <path
       style="fill:none;stroke:#000000;stroke-width:2.83860731;stroke-linecap:butt;stroke-linejoin:miter;stroke-miterlimit:4;stroke-opacity:1;stroke-dasharray:none"
       d="m 13.939746,57.834871 35.84151,0"
       id="path5516"
       inkscape:connector-curvature="0" />
    <path
       style="fill:#000000;fill-opacity:1;stroke:#000000;stroke-width:0.0874076px;stroke-linecap:butt;stroke-linejoin:miter;stroke-opacity:1"
       d="m 14.715996,56.624941 c 2.32845,-3.45698 5.4107,-4.55319 5.4107,-4.55319 0,0 -3.11185,-0.48411 -5.4403,-3.94108"
       id="path5518-5"
       inkscape:connector-curvature="0"
       sodipodi:nodetypes="ccc" />
    <path
       style="fill:#000000;stroke:#000000;stroke-width:0.08740760000000000px;stroke-linecap:butt;stroke-linejoin:miter;stroke-opacity:1;fill-opacity:1"
       d="m 31.853696,56.350091 c -2.39993,-3.45715 -5.84634,-5.17699 -5.84634,-5.17699 0,0 3.44641,-1.71985 5.8289,-5.17697 2.38249,3.45716 5.8289,5.17701 5.8289,5.17701 0,0 -3.44641,1.71984 -5.84634,5.17699"
       id="path5612-4-5"
       inkscape:connector-curvature="0"
       sodipodi:nodetypes="ccccc" />
    <path
       style="fill:#000000;fill-opacity:1;stroke:#000000;stroke-width:0.0156085;stroke-miterlimit:4;stroke-opacity:1;stroke-dasharray:none"
       d="m 31.854906,46.049901 c -0.19383,0.2449 -0.36983,0.51255 -0.57061,0.75005 -1.23282,1.52521 -2.67896,2.76806 -4.21947,3.76312 -0.2856,0.19072 -0.58812,0.34539 -0.87632,0.53098 -0.0714,0.094 0.0194,0.18825 0.09,0.21633 1.40925,0.80112 2.74084,1.81636 3.94513,3.0317 0.57384,0.58278 1.11139,1.21704 1.60427,1.90574 0.074,0.0864 0.16352,-0.0312 0.13658,-0.13476 0.006,-3.32456 0.006,-6.64912 -8e-5,-9.97368 -0.007,-0.0703 -0.0547,-0.11001 -0.10944,-0.0895 z"
       id="path5758"
       inkscape:connector-curvature="0" />
    <path
       style="fill:#000000;fill-opacity:1;stroke:#000000;stroke-width:0.01564596;stroke-miterlimit:4;stroke-opacity:1;stroke-dasharray:none"
       d="m 31.751915,46.081551 c -0.0789,0.0919 -0.0253,0.24584 -0.041,0.36557 0,3.23581 0,6.47161 0,9.7074 0.009,0.12452 0.13618,0.11287 0.1731,0.0164 0.54708,-0.75281 1.14696,-1.43869 1.7897,-2.06161 1.15203,-1.12653 2.4162,-2.06477 3.74619,-2.82184 0.0827,-0.0203 0.11458,-0.17027 0.0288,-0.21389 -0.53799,-0.30694 -1.07054,-0.63164 -1.58236,-1.00343 -1.07847,-0.77804 -2.10825,-1.67899 -3.03262,-2.72326 -0.34444,-0.40401 -0.67631,-0.82559 -0.99941,-1.25354 -0.0255,-0.0293 -0.0517,-0.0195 -0.0824,-0.0117 z"
       id="path5768"
       inkscape:connector-curvature="0" />
    <path
       style="fill:#000000;fill-opacity:1;stroke:#000000;stroke-width:0.0019756;stroke-miterlimit:4;stroke-opacity:1;stroke-dasharray:none"
       d="m 15.407426,49.209951 c -0.0785,0.0615 0.17259,-0.002 0.16002,0.0961 -0.0127,0.7716 -0.0314,2.32197 -0.10931,3.08786 -0.0886,0.93661 -0.23763,1.86371 -0.3837,2.7886 10e-4,0.10329 0.11166,0.12413 0.15447,0.0479 0.3484,-0.41726 0.68383,-0.85295 1.05407,-1.23829 0.61503,-0.64721 1.28939,-1.22569 2.04051,-1.59507 0.0742,-0.045 0.17327,-0.0519 0.22728,-0.12975 0.0324,-0.0768 -0.0222,-0.15101 -0.082,-0.1637 -0.61323,-0.2611 -1.17515,-0.68434 -1.69544,-1.16168 -0.37563,-0.34902 -0.73365,-0.71895 -1.06499,-1.13077 -0.0272,-0.0247 -0.26817,-0.61064 -0.30092,-0.60111 z"
       id="path5770"
       inkscape:connector-curvature="0"
       sodipodi:nodetypes="cccccccccccc" />
    <path
       style="fill:#000000;fill-opacity:1;stroke:#000000;stroke-width:0.0019756;stroke-miterlimit:4;stroke-opacity:1;stroke-dasharray:none"
       d="m 15.621396,49.457641 c -0.0722,0.0577 -0.0519,0.18751 -0.0299,0.27549 0.0733,0.18372 0.21414,0.30499 0.32762,0.44764 0.53637,0.61174 1.12811,1.15183 1.76374,1.5891 0.067,0.0532 0.16126,-0.0447 0.11759,-0.13453 -0.0587,-0.0898 -0.15395,-0.13019 -0.22622,-0.20168 -0.64911,-0.54233 -1.23467,-1.18959 -1.79455,-1.86856 -0.0462,-0.0486 -0.0882,-0.13588 -0.15827,-0.10746 z"
       id="path5772"
       inkscape:connector-curvature="0" />
    <path
       style="fill:#000000;fill-opacity:1;stroke:#000000;stroke-width:0.0019756;stroke-miterlimit:4;stroke-opacity:1;stroke-dasharray:none"
       d="m 18.252936,52.347451 c -0.17611,0.0695 -0.33974,0.18115 -0.50533,0.28374 -0.85173,0.55532 -1.59516,1.33449 -2.27313,2.17867 -0.1067,0.12432 -0.20696,0.26154 -0.32111,0.37301 -0.0852,-0.003 -0.10547,0.10897 -0.11346,0.19329 -0.0404,0.25013 -0.0923,0.49796 -0.12703,0.74888 10e-4,0.10436 0.11437,0.12529 0.15632,0.0467 0.67941,-0.95174 1.39485,-1.86272 2.18138,-2.67375 0.33769,-0.3425 0.68682,-0.6725 1.05354,-0.96649 0.0682,-0.059 0.0324,-0.19332 -0.0512,-0.18404 z"
       id="path5774"
       inkscape:connector-curvature="0" />
    <path
       style="fill:none;stroke:#000000;stroke-width:0.0874076px;stroke-linecap:butt;stroke-linejoin:miter;stroke-opacity:1"
       d="m 17.791826,51.723451 c 0.002,0.006 0.001,0.0136 0.005,0.0185 0.004,0.005 0.0172,0.007 0.0222,0.009 0.003,0.002 0.006,0.004 0.01,0.006 0.003,10e-4 0.007,0.002 0.01,0.003 0.008,0.002 -0.006,-0.008 0.0123,0.003 8.1e-4,4.8e-4 -6.4e-4,0.002 0,0.003 6.4e-4,7.2e-4 0.002,-4.7e-4 0.002,0 0.001,7.2e-4 0.001,0.003 0.002,0.003 0.002,9.2e-4 0.005,-9.2e-4 0.007,0 0.002,7.2e-4 0.003,0.002 0.005,0.003 8.5e-4,3.2e-4 0.002,-4.8e-4 0.002,0 10e-4,7.2e-4 10e-4,0.003 0.002,0.003 0.002,7.1e-4 0.003,-7.3e-4 0.005,0 0.001,4.7e-4 0.001,0.002 0.002,0.003 8.1e-4,4e-4 0.0137,0 0.0148,0 0.007,0 0.0131,0 0.0197,0 0.001,0 0.009,-3.9e-4 0.01,0 10e-4,7.2e-4 10e-4,0.002 0.002,0.003 0.003,0.002 0.007,0.003 0.01,0.006 0.002,0.002 0.003,0.004 0.005,0.006 0.002,0.003 0.005,0.006 0.007,0.009 0.002,0.002 0.004,0.004 0.005,0.006 0.001,0.002 0.001,0.004 0.002,0.006 0.001,0.002 0.004,10e-4 0.005,0.003 6.4e-4,7.2e-4 -3.2e-4,0.002 0,0.003 0.001,0.003 0.004,0.003 0.005,0.006 0.0119,0.0298 -0.003,-0.006 0.002,0.0155 3.2e-4,10e-4 0.002,0.002 0.002,0.003 3.2e-4,9.2e-4 -2.4e-4,0.002 0,0.003 0.002,0.009 0.001,0.007 0.005,0.0124"
       id="path5776"
       inkscape:connector-curvature="0" />
    <path
       style="fill:none;stroke:#000000;stroke-width:0.0874076px;stroke-linecap:butt;stroke-linejoin:miter;stroke-opacity:1"
       d="m 18.583596,52.180261 c -8.5e-4,0.007 -8.5e-4,0.0146 -0.002,0.0216 -8.4e-4,0.003 -0.003,0.006 -0.005,0.009 -0.004,0.004 -0.005,0.0106 -0.007,0.0155 -0.001,0.002 -0.004,0.003 -0.005,0.006 -2.4e-4,8.1e-4 0,0.0107 0,0.0124"
       id="path5778"
       inkscape:connector-curvature="0" />
    <path
       style="fill:none;stroke:#000000;stroke-width:0.0874076px;stroke-linecap:butt;stroke-linejoin:miter;stroke-opacity:1"
       d="m 18.413396,52.362371 c -0.009,0.002 -0.0182,-0.002 -0.0271,0 -0.005,10e-4 -0.0101,0.003 -0.0148,0.006 -0.004,0.002 -0.008,0.006 -0.0123,0.009 -0.005,0.003 -0.01,0.006 -0.0148,0.009 -0.004,0.002 -0.0142,0.007 -0.0197,0.009 -0.003,0.001 -0.007,0.002 -0.01,0.003 -0.002,7.2e-4 -0.003,0.002 -0.005,0.003 -0.008,0.003 -0.007,0.003 -0.0123,0.003"
       id="path5780"
       inkscape:connector-curvature="0" />
    <path
       style="fill:#000000;fill-opacity:1;stroke:#000000;stroke-width:0.0874076px;stroke-linecap:butt;stroke-linejoin:miter;stroke-opacity:1"
       d="m 48.938096,56.644351 c -2.32845,-3.45697 -5.41069,-4.55319 -5.41069,-4.55319 0,0 3.11184,-0.48411 5.44029,-3.94108"
       id="path5518-5-82"
       inkscape:connector-curvature="0"
       sodipodi:nodetypes="ccc" />
  </g>
</svg>
