<?xml version="1.0" encoding="UTF-8" standalone="no"?>
<!-- Created with Inkscape (http://www.inkscape.org/) -->

<svg
   xmlns:dc="http://purl.org/dc/elements/1.1/"
   xmlns:cc="http://creativecommons.org/ns#"
   xmlns:rdf="http://www.w3.org/1999/02/22-rdf-syntax-ns#"
   xmlns:svg="http://www.w3.org/2000/svg"
   xmlns="http://www.w3.org/2000/svg"
   xmlns:sodipodi="http://sodipodi.sourceforge.net/DTD/sodipodi-0.dtd"
   xmlns:inkscape="http://www.inkscape.org/namespaces/inkscape"
   width="64px"
   height="64px"
   id="svg3984"
   version="1.1"
   inkscape:version="0.48.5 r10040"
   sodipodi:docname="Q_white_square.svg">
  <defs
     id="defs3986" />
  <sodipodi:namedview
     id="base"
     pagecolor="#ffffff"
     bordercolor="#666666"
     borderopacity="1.0"
     inkscape:pageopacity="0.0"
     inkscape:pageshadow="2"
     inkscape:zoom="7.7781746"
     inkscape:cx="34.744967"
     inkscape:cy="14.858389"
     inkscape:current-layer="layer1"
     showgrid="true"
     inkscape:document-units="px"
     inkscape:grid-bbox="true"
     inkscape:window-width="1920"
     inkscape:window-height="1018"
     inkscape:window-x="0"
     inkscape:window-y="27"
     inkscape:window-maximized="1" />
  <metadata
     id="metadata3989">
    <rdf:RDF>
      <cc:Work
         rdf:about="">
        <dc:format>image/svg+xml</dc:format>
        <dc:type
           rdf:resource="http://purl.org/dc/dcmitype/StillImage" />
        <dc:title />
      </cc:Work>
    </rdf:RDF>
  </metadata>
  <g
     id="layer1"
     inkscape:label="Layer 1"
     inkscape:groupmode="layer">
    <path
       style="fill:#ffffff;fill-opacity:1;stroke:#000000;stroke-width:0.06982283px;stroke-linecap:butt;stroke-linejoin:miter;stroke-opacity:1"
       d="m 18.430791,45.455517 -1.759892,-12.742871 -3.519778,-9.339503 9.867954,11.713952 2.074158,-19.074737 6.15961,18.283249 1.634186,-0.158293 5.342524,-17.412622 2.137004,14.87988 0.879947,2.849335 9.302274,-10.210121 -5.09111,14.16753 0,6.8859 -14.016265,-3.245076 z"
       id="path6542"
       inkscape:connector-curvature="0" />
    <path
       style="fill:#ffffff;fill-opacity:1;stroke:#000000;stroke-width:2.0168004;stroke-linecap:butt;stroke-linejoin:miter;stroke-miterlimit:4;stroke-opacity:1;stroke-dasharray:none"
       d="m 47.356136,55.900909 -30.954089,0 c 0.192236,-0.357214 0.380459,-0.721686 0.529272,-1.092233 0.502419,-1.251094 0.911462,-2.507311 1.148721,-3.876525 0.530657,-3.062297 0.38419,-3.35679 0.458704,-5.428002 15.100448,-6.552457 26.776894,0.0061 26.776894,0.0061"
       id="path4851"
       inkscape:connector-curvature="0"
       sodipodi:nodetypes="ccsscc" />
    <path
       style="fill:none;stroke:#000000;stroke-width:2.0168004;stroke-linecap:butt;stroke-linejoin:miter;stroke-miterlimit:4;stroke-opacity:1;stroke-dasharray:none"
       d="m 16.402032,55.900878 30.954104,0 c -0.943177,-1.845516 -1.521664,-3.829985 -1.8171,-5.88168 C 43.658306,36.958143 51.745937,21.173123 51.745937,21.173123 44.193048,32.36307 40.92953,34.451839 40.92953,34.451839 39.350935,27.995624 38.81264,13.793319 38.81264,13.793319 35.630867,32.308401 31.30905,35.359524 31.30905,35.359524"
       id="path4851-3"
       inkscape:connector-curvature="0"
       sodipodi:nodetypes="ccscccc" />
    <path
       style="fill:none;stroke:#000000;stroke-width:2.0168004;stroke-linecap:butt;stroke-linejoin:miter;stroke-miterlimit:4;stroke-opacity:1;stroke-dasharray:none"
       d="m 47.36062,55.900893 -30.954096,0 c 0.943168,-1.845516 1.521656,-3.829992 1.817091,-5.88168 1.880731,-13.061063 -6.2069,-28.846075 -6.2069,-28.846075 7.55289,11.18994 10.816408,13.278717 10.816408,13.278717 1.578593,-6.456223 2.116888,-20.658529 2.116888,-20.658529 3.118813,18.422079 7.616005,21.558616 7.616005,21.558616"
       id="path4851-3-0"
       inkscape:connector-curvature="0"
       sodipodi:nodetypes="ccscccc" />
    <path
       sodipodi:type="arc"
       style="fill:#ffffff;stroke:#000000;stroke-width:20;stroke-miterlimit:4;stroke-opacity:1;stroke-dasharray:none"
       id="path5446-4"
       sodipodi:cx="377.85715"
       sodipodi:cy="303.07648"
       sodipodi:rx="25"
       sodipodi:ry="24.285713"
       d="m 402.85715,303.07648 a 25,24.285713 0 1 1 -50,0 25,24.285713 0 1 1 50,0 z"
       transform="matrix(0.07559993,0,0,0.07731574,-16.761871,-3.3331152)" />
    <path
       sodipodi:type="arc"
       style="fill:#ffffff;stroke:#000000;stroke-width:20;stroke-miterlimit:4;stroke-opacity:1;stroke-dasharray:none"
       id="path5446-4-7"
       sodipodi:cx="377.85715"
       sodipodi:cy="303.07648"
       sodipodi:rx="25"
       sodipodi:ry="24.285713"
       d="m 402.85715,303.07648 a 25,24.285713 0 1 1 -50,0 25,24.285713 0 1 1 50,0 z"
       transform="matrix(0.07559993,0,0,0.07731573,-3.9327643,-11.908896)" />
    <path
       sodipodi:type="arc"
       style="fill:#ffffff;stroke:#000000;stroke-width:20;stroke-miterlimit:4;stroke-opacity:1;stroke-dasharray:none"
       id="path5446-4-8"
       sodipodi:cx="377.85715"
       sodipodi:cy="303.07648"
       sodipodi:rx="25"
       sodipodi:ry="24.285713"
       d="m 402.85715,303.07648 a 25,24.285713 0 1 1 -50,0 25,24.285713 0 1 1 50,0 z"
       transform="matrix(0.07559993,0,0,0.07731573,10.697288,-11.908881)" />
    <path
       sodipodi:type="arc"
       style="fill:#ffffff;stroke:#000000;stroke-width:20;stroke-miterlimit:4;stroke-opacity:1;stroke-dasharray:none"
       id="path5446-4-1"
       sodipodi:cx="377.85715"
       sodipodi:cy="303.07648"
       sodipodi:rx="25"
       sodipodi:ry="24.285713"
       d="m 402.85715,303.07648 a 25,24.285713 0 1 1 -50,0 25,24.285713 0 1 1 50,0 z"
       transform="matrix(0.07559993,0,0,0.07731573,23.628924,-3.3405899)" />
    <path
       style="fill:none;stroke:#000000;stroke-width:2.1832211;stroke-linecap:butt;stroke-linejoin:miter;stroke-miterlimit:4;stroke-opacity:1;stroke-dasharray:none"
       d="m 18.10304,52.7951 27.570157,0"
       id="path5516"
       inkscape:connector-curvature="0" />
    <path
       style="fill:#000000;fill-opacity:1;stroke:#000000;stroke-width:0.06722667px;stroke-linecap:butt;stroke-linejoin:miter;stroke-opacity:1"
       d="m 18.70015,51.864653 c 1.7911,-2.658452 4.162041,-3.501449 4.162041,-3.501449 0,0 -2.39371,-0.372285 -4.18481,-3.030729"
       id="path5518-5"
       inkscape:connector-curvature="0"
       sodipodi:nodetypes="ccc" />
    <path
       style="fill:#000000;fill-opacity:1;stroke:#000000;stroke-width:0.06722667px;stroke-linecap:butt;stroke-linejoin:miter;stroke-opacity:1"
       d="m 31.882884,51.65329 c -1.846084,-2.658581 -4.497147,-3.981156 -4.497147,-3.981156 0,0 2.651063,-1.322582 4.483731,-3.981141 1.83267,2.65859 4.483731,3.981172 4.483731,3.981172 0,0 -2.651061,1.322574 -4.497146,3.981156"
       id="path5612-4-5"
       inkscape:connector-curvature="0"
       sodipodi:nodetypes="ccccc" />
    <path
       style="fill:#000000;fill-opacity:1;stroke:#000000;stroke-width:0.01200476;stroke-miterlimit:4;stroke-opacity:1;stroke-dasharray:none"
       d="m 31.883814,43.732343 c -0.149098,0.18833 -0.284482,0.394155 -0.438927,0.576795 -0.948315,1.172902 -2.06072,2.128666 -3.245718,2.893877 -0.21969,0.146665 -0.452395,0.265608 -0.674086,0.408329 -0.05492,0.07229 0.01493,0.144766 0.06923,0.166359 1.08403,0.61607 2.108321,1.3968 3.03469,2.331407 0.441411,0.448164 0.854908,0.935917 1.234043,1.465534 0.05692,0.06644 0.125784,-0.02399 0.105061,-0.103632 0.0046,-2.55662 0.0046,-5.113239 -6.2e-5,-7.669858 -0.0054,-0.05406 -0.04208,-0.08459 -0.08418,-0.06883 z"
       id="path5758"
       inkscape:connector-curvature="0" />
    <path
       style="fill:#000000;fill-opacity:1;stroke:#000000;stroke-width:0.01203357;stroke-miterlimit:4;stroke-opacity:1;stroke-dasharray:none"
       d="m 31.804592,43.756681 c -0.06069,0.07067 -0.01946,0.189054 -0.03153,0.281128 0,2.488369 0,4.976732 0,7.465087 0.0069,0.09576 0.104753,0.0868 0.133152,0.01261 0.420828,-0.578919 0.88227,-1.106367 1.376682,-1.585399 0.886168,-0.866312 1.858599,-1.587828 2.88166,-2.170022 0.06361,-0.01561 0.08814,-0.130939 0.02215,-0.164484 -0.413834,-0.23604 -0.823485,-0.485738 -1.217189,-0.771648 -0.829585,-0.59832 -1.621717,-1.291159 -2.332765,-2.094214 -0.264951,-0.310687 -0.520234,-0.634886 -0.768771,-0.963984 -0.01962,-0.02253 -0.03977,-0.01499 -0.06338,-0.009 z"
       id="path5768"
       inkscape:connector-curvature="0" />
    <path
       style="fill:#000000;fill-opacity:1;stroke:#000000;stroke-width:0.00151947;stroke-miterlimit:4;stroke-opacity:1;stroke-dasharray:none"
       d="m 19.232015,46.162452 c -0.06038,0.04729 0.13276,-0.0015 0.123091,0.0739 -0.0098,0.593369 -0.02415,1.785619 -0.08409,2.374595 -0.06815,0.720263 -0.182791,1.433212 -0.295151,2.144462 7.68e-4,0.07943 0.0859,0.09546 0.118822,0.03683 0.267998,-0.320879 0.526019,-0.655928 0.810816,-0.952258 0.473096,-0.49771 0.99183,-0.942568 1.56961,-1.226624 0.05708,-0.03461 0.133282,-0.03991 0.174829,-0.09978 0.02493,-0.05906 -0.01708,-0.116127 -0.06307,-0.125886 -0.471711,-0.20079 -0.903954,-0.526264 -1.304173,-0.893344 -0.288944,-0.2684 -0.564341,-0.55288 -0.819216,-0.869573 -0.02093,-0.01899 -0.206282,-0.469588 -0.231475,-0.46226 z"
       id="path5770"
       inkscape:connector-curvature="0"
       sodipodi:nodetypes="cccccccccccc" />
    <path
       style="fill:#000000;fill-opacity:1;stroke:#000000;stroke-width:0.00151947;stroke-miterlimit:4;stroke-opacity:1;stroke-dasharray:none"
       d="m 19.396606,46.352928 c -0.05554,0.04437 -0.03992,0.144198 -0.023,0.211855 0.05639,0.141281 0.164722,0.23454 0.252014,0.344239 0.412588,0.470435 0.867769,0.885769 1.356711,1.222034 0.05154,0.04091 0.124045,-0.03438 0.09046,-0.103455 -0.04515,-0.06906 -0.118423,-0.100119 -0.174014,-0.155094 -0.499312,-0.417057 -0.949739,-0.914806 -1.380412,-1.436941 -0.03553,-0.03737 -0.06784,-0.104493 -0.121745,-0.08264 z"
       id="path5772"
       inkscape:connector-curvature="0" />
    <path
       style="fill:#000000;fill-opacity:1;stroke:#000000;stroke-width:0.00151947;stroke-miterlimit:4;stroke-opacity:1;stroke-dasharray:none"
       d="m 21.42085,48.575221 c -0.135469,0.05345 -0.261337,0.139306 -0.388713,0.218199 -0.65517,0.427046 -1.227034,1.026236 -1.748546,1.675418 -0.08207,0.0956 -0.159199,0.201128 -0.247006,0.286848 -0.06554,-0.0023 -0.08113,0.0838 -0.08727,0.148643 -0.03107,0.192352 -0.071,0.382935 -0.09771,0.575895 7.68e-4,0.08026 0.08798,0.09635 0.120246,0.03591 0.522617,-0.731897 1.072951,-1.432449 1.677969,-2.056141 0.25976,-0.263385 0.528319,-0.517157 0.810409,-0.743239 0.05246,-0.04537 0.02493,-0.148665 -0.03938,-0.141528 z"
       id="path5774"
       inkscape:connector-curvature="0" />
    <path
       style="fill:none;stroke:#000000;stroke-width:0.06722667px;stroke-linecap:butt;stroke-linejoin:miter;stroke-opacity:1"
       d="m 21.066153,48.095359 c 0.0015,0.0046 7.67e-4,0.01046 0.0038,0.01423 0.0031,0.0038 0.01323,0.0054 0.01708,0.0069 0.0023,0.0015 0.0046,0.0031 0.0077,0.0046 0.0023,7.69e-4 0.0054,0.0015 0.0077,0.0023 0.0062,0.0015 -0.0046,-0.0061 0.0095,0.0023 6.23e-4,3.69e-4 -4.92e-4,0.0015 0,0.0023 4.93e-4,5.54e-4 0.0015,-3.61e-4 0.0015,0 7.68e-4,5.54e-4 7.68e-4,0.0023 0.0015,0.0023 0.0015,7.08e-4 0.0038,-7.07e-4 0.0054,0 0.0015,5.54e-4 0.0023,0.0015 0.0038,0.0023 6.55e-4,2.46e-4 0.0015,-3.68e-4 0.0015,0 7.68e-4,5.54e-4 7.68e-4,0.0023 0.0015,0.0023 0.0015,5.47e-4 0.0023,-5.61e-4 0.0038,0 7.67e-4,3.61e-4 7.67e-4,0.0015 0.0015,0.0023 6.22e-4,3.08e-4 0.01054,0 0.01139,0 0.0054,0 0.01008,0 0.01516,0 7.68e-4,0 0.0069,-2.99e-4 0.0077,0 7.68e-4,5.54e-4 7.68e-4,0.0015 0.0015,0.0023 0.0023,0.0015 0.0054,0.0023 0.0077,0.0046 0.0015,0.0015 0.0023,0.0031 0.0038,0.0046 0.0015,0.0023 0.0038,0.0046 0.0054,0.0069 0.0015,0.0015 0.0031,0.0031 0.0038,0.0046 7.68e-4,0.0015 7.68e-4,0.0031 0.0015,0.0046 7.68e-4,0.0015 0.0031,7.69e-4 0.0038,0.0023 4.92e-4,5.54e-4 -2.47e-4,0.0015 0,0.0023 7.67e-4,0.0023 0.0031,0.0023 0.0038,0.0046 0.0092,0.02292 -0.0023,-0.0046 0.0015,0.01192 2.46e-4,7.68e-4 0.0015,0.0015 0.0015,0.0023 2.47e-4,7.07e-4 -1.84e-4,0.0015 0,0.0023 0.0015,0.0069 7.68e-4,0.0054 0.0038,0.0095"
       id="path5776"
       inkscape:connector-curvature="0" />
    <path
       style="fill:none;stroke:#000000;stroke-width:0.06722667px;stroke-linecap:butt;stroke-linejoin:miter;stroke-opacity:1"
       d="m 21.675202,48.446651 c -6.55e-4,0.0054 -6.55e-4,0.01122 -0.0015,0.01661 -6.47e-4,0.0023 -0.0023,0.0046 -0.0038,0.0069 -0.0031,0.0031 -0.0038,0.0081 -0.0054,0.01192 -7.68e-4,0.0015 -0.0031,0.0023 -0.0038,0.0046 -1.85e-4,6.23e-4 0,0.0082 0,0.0095"
       id="path5778"
       inkscape:connector-curvature="0" />
    <path
       style="fill:none;stroke:#000000;stroke-width:0.06722667px;stroke-linecap:butt;stroke-linejoin:miter;stroke-opacity:1"
       d="m 21.544279,48.586695 c -0.0069,0.0015 -0.014,-0.0015 -0.02084,0 -0.0038,7.68e-4 -0.0078,0.0023 -0.01139,0.0046 -0.0031,0.0015 -0.0062,0.0046 -0.0095,0.0069 -0.0038,0.0023 -0.0077,0.0046 -0.01139,0.0069 -0.0031,0.0015 -0.01093,0.0054 -0.01516,0.0069 -0.0023,7.68e-4 -0.0054,0.0015 -0.0077,0.0023 -0.0015,5.54e-4 -0.0023,0.0015 -0.0038,0.0023 -0.0062,0.0023 -0.0054,0.0023 -0.0095,0.0023"
       id="path5780"
       inkscape:connector-curvature="0" />
    <path
       style="fill:#000000;fill-opacity:1;stroke:#000000;stroke-width:0.06722667px;stroke-linecap:butt;stroke-linejoin:miter;stroke-opacity:1"
       d="m 45.024617,51.879579 c -1.7911,-2.658445 -4.162033,-3.501448 -4.162033,-3.501448 0,0 2.393702,-0.372286 4.184803,-3.030729"
       id="path5518-5-82"
       inkscape:connector-curvature="0"
       sodipodi:nodetypes="ccc" />
  </g>
</svg>
