<?xml version="1.0" encoding="UTF-8" standalone="no"?>
<!-- Created with Inkscape (http://www.inkscape.org/) -->

<svg
   xmlns:dc="http://purl.org/dc/elements/1.1/"
   xmlns:cc="http://creativecommons.org/ns#"
   xmlns:rdf="http://www.w3.org/1999/02/22-rdf-syntax-ns#"
   xmlns:svg="http://www.w3.org/2000/svg"
   xmlns="http://www.w3.org/2000/svg"
   xmlns:sodipodi="http://sodipodi.sourceforge.net/DTD/sodipodi-0.dtd"
   xmlns:inkscape="http://www.inkscape.org/namespaces/inkscape"
   width="64px"
   height="64px"
   id="svg3811"
   version="1.1"
   inkscape:version="0.48.5 r10040"
   sodipodi:docname="white_knight.svg">
  <defs
     id="defs3813" />
  <sodipodi:namedview
     id="base"
     pagecolor="#ffffff"
     bordercolor="#666666"
     borderopacity="1.0"
     inkscape:pageopacity="0.0"
     inkscape:pageshadow="2"
     inkscape:zoom="4.0000002"
     inkscape:cx="11.969102"
     inkscape:cy="30.827821"
     inkscape:current-layer="layer1"
     showgrid="true"
     inkscape:document-units="px"
     inkscape:grid-bbox="true"
     inkscape:window-width="1920"
     inkscape:window-height="1018"
     inkscape:window-x="0"
     inkscape:window-y="27"
     inkscape:window-maximized="1" />
  <metadata
     id="metadata3816">
    <rdf:RDF>
      <cc:Work
         rdf:about="">
        <dc:format>image/svg+xml</dc:format>
        <dc:type
           rdf:resource="http://purl.org/dc/dcmitype/StillImage" />
        <dc:title />
      </cc:Work>
    </rdf:RDF>
  </metadata>
  <g
     id="layer1"
     inkscape:label="Layer 1"
     inkscape:groupmode="layer">
    <path
       style="fill:#ffffff;fill-opacity:1;stroke:#ffffff;stroke-width:2.017;stroke-linecap:butt;stroke-linejoin:miter;stroke-opacity:1;stroke-miterlimit:4;stroke-dasharray:none"
       d="m 37.41775,13.771172 -3.872516,-3.282578 0.516336,4.170807 z"
       id="path3852"
       inkscape:connector-curvature="0" />
    <path
       style="fill:#ffffff;fill-opacity:1;stroke:#ffffff;stroke-width:2.017;stroke-linecap:butt;stroke-linejoin:miter;stroke-opacity:1;stroke-miterlimit:4;stroke-dasharray:none"
       d="m 28.108526,15.07133 1.290839,-1.081318 5.072236,0.450548 -0.561895,5.857154 z"
       id="path3850"
       inkscape:connector-curvature="0" />
    <path
       style="fill:#ffffff;fill-opacity:1;stroke:#000000;stroke-width:2.017;stroke-linecap:butt;stroke-linejoin:miter;stroke-miterlimit:4;stroke-opacity:1;stroke-dasharray:none"
       d="m 34.043791,14.263182 c 0,0 10.388118,-0.12346 13.691518,9.064514 0,0 2.64271,4.953518 2.664048,16.250046 0,0 0.122024,6.939139 0.188758,16.430235 l -31.784692,0 0,-4.632557 c 0,-3.559167 2.622893,-4.293588 2.622893,-4.293588 16.751405,-3.898134 11.160996,-15.998174 11.160996,-15.998174"
       id="path2991"
       inkscape:connector-curvature="0"
       sodipodi:nodetypes="cccccscc" />
    <path
       style="fill:#ffffff;fill-opacity:1;stroke:#000000;stroke-width:2.017;stroke-linecap:butt;stroke-linejoin:miter;stroke-miterlimit:4;stroke-opacity:1;stroke-dasharray:none"
       d="m 37.927208,23.973885 c 0.336289,7.198806 -6.456584,8.306319 -6.456584,8.306319 -6.053051,0 -8.070735,2.768769 -8.070735,2.768769 -2.286708,4.06087 -4.371656,2.891839 -4.371656,2.891839 -1.277862,-0.799881 0.134518,-2.399611 0.134518,-2.399611 -1.008848,1.538204 -0.724457,1.133048 -2.219456,1.169038 -2.555734,0.06152 -3.430064,-2.645718 -3.430064,-2.645718 -0.672557,-1.784317 2.219456,-2.953356 2.219456,-2.953356 4.573419,-2.645717 7.494102,-6.94856 7.868963,-8.121729 1.049207,-3.283561 0.390616,-1.730506 1.334554,-3.457592 1.521825,-2.784453 3.424117,-4.872791 3.424117,-4.872791"
       id="path3013"
       inkscape:connector-curvature="0"
       sodipodi:nodetypes="cccccsccssc" />
    <path
       style="fill:#ffffff;fill-opacity:1;stroke:#000000;stroke-width:2.017;stroke-linecap:butt;stroke-linejoin:miter;stroke-miterlimit:4;stroke-opacity:1;stroke-dasharray:none"
       d="m 33.152653,10.897027 c 1.10118,-1.3841182 4.254584,-3.078955 4.254584,-3.078955 1.268032,4.237094 -0.01673,6.415682 -0.01673,6.415682"
       id="path3017"
       inkscape:connector-curvature="0"
       sodipodi:nodetypes="ccc" />
    <path
       style="fill:#ffffff;fill-opacity:1;stroke:#000000;stroke-width:1;stroke-linecap:butt;stroke-linejoin:miter;stroke-miterlimit:4;stroke-opacity:1;stroke-dasharray:none"
       d="m 26.26188,21.743995 c 0.700755,-2.00556 4.004326,-2.316284 4.004326,-2.316284"
       id="path3019"
       inkscape:connector-curvature="0" />
    <path
       sodipodi:type="arc"
       style="fill:#000000;fill-opacity:1;stroke:#000000;stroke-width:16.45109401;stroke-miterlimit:4;stroke-opacity:1;stroke-dasharray:none"
       id="path3023"
       sodipodi:cx="331.07748"
       sodipodi:cy="364.4483"
       sodipodi:rx="12.374369"
       sodipodi:ry="12.626906"
       d="m 343.45185,364.4483 a 12.374369,12.626906 0 1 1 -24.74873,0 12.374369,12.626906 0 1 1 24.74873,0 z"
       transform="matrix(0.06606787,0,0,0.05592682,6.9896314,0.98866543)" />
    <path
       style="fill:#ffffff;fill-opacity:1;stroke:#000000;stroke-width:2.017;stroke-linecap:butt;stroke-linejoin:miter;stroke-miterlimit:4;stroke-opacity:1;stroke-dasharray:none"
       d="m 19.117629,35.59139 c 0.896638,-0.938768 0.873043,-1.178442 0.873043,-1.178442"
       id="path3025"
       inkscape:connector-curvature="0"
       sodipodi:nodetypes="cc" />
    <path
       style="fill:#ffffff;fill-opacity:1;stroke:#000000;stroke-width:1.2;stroke-linecap:butt;stroke-linejoin:miter;stroke-miterlimit:4;stroke-opacity:1;stroke-dasharray:none"
       d="m 16.25868,33.933819 c -0.353932,-1.058611 1.557308,-1.218397 1.557308,-1.218397"
       id="path3766"
       inkscape:connector-curvature="0" />
    <path
       style="fill:#000000;fill-opacity:1;stroke:#000000;stroke-width:1;stroke-linecap:butt;stroke-linejoin:miter;stroke-miterlimit:4;stroke-opacity:1;stroke-dasharray:none"
       d="M 33.792193,17.821637 C 51.344455,14.71442 46.739487,54.147676 46.739487,54.147676 l -2.611479,-0.05647 C 49.375257,15.295948 33.792193,17.821657 33.792193,17.821657"
       id="path3790"
       inkscape:connector-curvature="0"
       sodipodi:nodetypes="cccc" />
    <path
       style="fill:#ffffff;fill-opacity:1;stroke:#000000;stroke-width:2.017;stroke-linecap:butt;stroke-linejoin:miter;stroke-miterlimit:4;stroke-opacity:1;stroke-dasharray:none"
       d="m 34.3382,15.110989 c 0,-3.355597 -3.017883,-7.0307909 -3.017883,-7.0307909 0,0 -3.161005,3.7282959 -3.161005,7.0838909"
       id="path2993"
       inkscape:connector-curvature="0"
       sodipodi:nodetypes="ccc" />
  </g>
</svg>
