<?xml version="1.0" encoding="UTF-8" standalone="no"?>
<!-- Created with Inkscape (http://www.inkscape.org/) -->

<svg
   xmlns:dc="http://purl.org/dc/elements/1.1/"
   xmlns:cc="http://creativecommons.org/ns#"
   xmlns:rdf="http://www.w3.org/1999/02/22-rdf-syntax-ns#"
   xmlns:svg="http://www.w3.org/2000/svg"
   xmlns="http://www.w3.org/2000/svg"
   xmlns:sodipodi="http://sodipodi.sourceforge.net/DTD/sodipodi-0.dtd"
   xmlns:inkscape="http://www.inkscape.org/namespaces/inkscape"
   width="64px"
   height="64px"
   id="svg3044"
   version="1.1"
   inkscape:version="0.48.5 r10040"
   sodipodi:docname="New document 3">
  <defs
     id="defs3046" />
  <sodipodi:namedview
     id="base"
     pagecolor="#ffffff"
     bordercolor="#666666"
     borderopacity="1.0"
     inkscape:pageopacity="0.0"
     inkscape:pageshadow="2"
     inkscape:zoom="5.5"
     inkscape:cx="32"
     inkscape:cy="32"
     inkscape:current-layer="layer1"
     showgrid="true"
     inkscape:document-units="px"
     inkscape:grid-bbox="true"
     inkscape:window-width="1920"
     inkscape:window-height="1018"
     inkscape:window-x="0"
     inkscape:window-y="27"
     inkscape:window-maximized="1" />
  <metadata
     id="metadata3049">
    <rdf:RDF>
      <cc:Work
         rdf:about="">
        <dc:format>image/svg+xml</dc:format>
        <dc:type
           rdf:resource="http://purl.org/dc/dcmitype/StillImage" />
        <dc:title></dc:title>
      </cc:Work>
    </rdf:RDF>
  </metadata>
  <g
     id="layer1"
     inkscape:label="Layer 1"
     inkscape:groupmode="layer">
    <path
       style="fill:#ffffff;fill-opacity:1;stroke:#000000;stroke-width:0.07855061px;stroke-linecap:butt;stroke-linejoin:miter;stroke-opacity:1"
       d="m 32.427719,50.357279 2.26301,-0.11893 2.58062,7.84996 3.53346,1.46692 7.02722,-5.43155 6.3126,-0.0793 4.84362,2.73559 -3.73197,3.01312 -6.27289,-1.74443 -6.11408,3.25099 -4.44661,0.35682 -4.60541,-3.92498 z"
       id="path6020"
       inkscape:connector-curvature="0" />
    <path
       style="fill:#ffffff;fill-opacity:1;stroke:#000000;stroke-width:0.07855061px;stroke-linecap:butt;stroke-linejoin:miter;stroke-opacity:1"
       d="m 32.149809,50.436579 -2.62032,-0.0793 -2.34241,6.46235 -2.77913,2.577 -6.23318,-4.28179 -8.6549999,-1.54621 -4.44661,3.6871 3.81138,3.68711 4.0098799,-3.1717 6.11409,2.22019 5.47885,2.29948 4.84362,-3.29064 2.97764,-4.99543 z"
       id="path5999"
       inkscape:connector-curvature="0" />
    <path
       style="fill:#ffffff;fill-opacity:0;stroke:#000000;stroke-width:2.35651827;stroke-linecap:butt;stroke-linejoin:miter;stroke-miterlimit:4;stroke-opacity:1;stroke-dasharray:none"
       d="m 32.035769,50.958529 c -0.0281,5.03214 -2.50628,7.52625 -2.50628,7.52625 -4.68481,6.81916 -11.43413,1.34797 -11.43413,1.34797 -6.98752,-4.83684 -10.4010499,1.19007 -10.4010499,1.19007"
       id="path3868"
       inkscape:connector-curvature="0"
       sodipodi:nodetypes="cccc" />
    <path
       style="fill:#ffffff;fill-opacity:0;stroke:#000000;stroke-width:2.35651827;stroke-linecap:butt;stroke-linejoin:miter;stroke-miterlimit:4;stroke-opacity:1;stroke-dasharray:none"
       d="m 29.727999,51.110559 c -1.74688,8.32573 -5.28659,9.76594 -8.09917,6.81916 -4.84363,-5.07472 -10.25904,-4.3259 -10.25904,-4.3259 -5.0024299,0.71362 -6.2785299,3.62986 -6.2785299,3.62986 l 4.09775,3.87805"
       id="path3870"
       inkscape:connector-curvature="0"
       sodipodi:nodetypes="csccc" />
    <path
       style="fill:#ffffff;fill-opacity:1;stroke:#000000;stroke-width:2.35651827;stroke-linecap:butt;stroke-linejoin:miter;stroke-miterlimit:4;stroke-opacity:1;stroke-dasharray:none"
       d="m 26.102669,39.763969 c -6.95573,0 -8.98449,-6.04591 -8.98449,-6.04591 -2.66636,-7.40316 5.81251,-16.27179 8.23096,-18.6313 4.17344,-4.07174 6.72387,-7.6499398 6.72387,-7.6499398"
       id="path3027"
       inkscape:connector-curvature="0"
       sodipodi:nodetypes="ccsc" />
    <path
       style="fill:#ffffff;fill-opacity:1;stroke:#000000;stroke-width:2.35651827;stroke-linecap:butt;stroke-linejoin:miter;stroke-miterlimit:4;stroke-opacity:1;stroke-dasharray:none"
       d="m 38.033239,39.779389 c 6.95574,0 8.98449,-6.04591 8.98449,-6.04591 2.66637,-7.40316 -5.8125,-16.27179 -8.23095,-18.63129 -4.17344,-4.07175 -6.72388,-7.6499398 -6.72388,-7.6499398"
       id="path3027-8"
       inkscape:connector-curvature="0"
       sodipodi:nodetypes="ccsc" />
    <path
       style="fill:#ffffff;fill-opacity:1;stroke:#000000;stroke-width:2.35651827;stroke-linecap:butt;stroke-linejoin:miter;stroke-miterlimit:4;stroke-opacity:1;stroke-dasharray:none"
       d="m 42.503399,51.474749 c 0,0 -2.19372,-0.58504 -5.6008,-0.89432 -4.00144,-0.36322 -9.67652,-0.37089 -15.43708,1.02861 3.18804,-4.5036 5.56459,-15.60834 5.56459,-15.60834 l 5.04288,0 6.05358,-0.028"
       id="path2985"
       inkscape:connector-curvature="0"
       sodipodi:nodetypes="cscccc" />
    <path
       style="fill:#ffffff;fill-opacity:1;stroke:#000000;stroke-width:2.35651827;stroke-linecap:butt;stroke-linejoin:miter;stroke-miterlimit:4;stroke-opacity:1;stroke-dasharray:none"
       d="m 21.459939,51.611229 c 0,0 2.17161,-0.59773 5.54152,-0.95977 4.04937,-0.43505 9.82897,-0.54916 15.65007,0.86504 -3.18805,-4.50359 -5.67688,-16.41819 -5.67688,-16.41819"
       id="path2985-9"
       inkscape:connector-curvature="0"
       sodipodi:nodetypes="cscc" />
    <path
       style="fill:#ffffff;fill-opacity:1;stroke:#ffffff;stroke-width:0.08102489px;stroke-linecap:butt;stroke-linejoin:miter;stroke-opacity:1"
       d="m 32.110109,9.5309992 -13.97504,19.6948198 27.95008,0.13734 z"
       id="path4907"
       inkscape:connector-curvature="0"
       sodipodi:nodetypes="cccc" />
    <path
       style="fill:#ffffff;fill-opacity:1;stroke:#000000;stroke-width:2.35651827;stroke-linecap:butt;stroke-linejoin:miter;stroke-miterlimit:4;stroke-opacity:1;stroke-dasharray:none"
       d="m 32.052949,16.361029 0,13.52495"
       id="path3065"
       inkscape:connector-curvature="0"
       sodipodi:nodetypes="cc" />
    <path
       style="fill:#ffffff;fill-opacity:1;stroke:#000000;stroke-width:2.35651827;stroke-linecap:butt;stroke-linejoin:miter;stroke-miterlimit:4;stroke-opacity:1;stroke-dasharray:none"
       d="m 27.665099,21.858159 4.42884,0 4.40422,0"
       id="path3835"
       inkscape:connector-curvature="0"
       sodipodi:nodetypes="ccc" />
    <path
       style="fill:#ffffff;fill-opacity:1;stroke:#000000;stroke-width:2.35651827;stroke-linecap:butt;stroke-linejoin:miter;stroke-miterlimit:4;stroke-opacity:1;stroke-dasharray:none"
       d="m 24.131879,46.121159 c 7.47742,-2.00504 15.8819,0.009 15.8819,0.009"
       id="path3856"
       inkscape:connector-curvature="0"
       sodipodi:nodetypes="cc" />
    <path
       style="fill:#ffffff;fill-opacity:1;stroke:#000000;stroke-width:2.35651827;stroke-linecap:butt;stroke-linejoin:miter;stroke-miterlimit:4;stroke-opacity:1;stroke-dasharray:none"
       d="m 25.690039,41.292449 c 6.20376,-1.87415 12.75073,0.01 12.75073,0.01"
       id="path3858"
       inkscape:connector-curvature="0"
       sodipodi:nodetypes="cc" />
    <path
       style="fill:#ffffff;fill-opacity:0;stroke:#000000;stroke-width:2.35651827;stroke-linecap:butt;stroke-linejoin:miter;stroke-miterlimit:4;stroke-opacity:1;stroke-dasharray:none"
       d="m 32.004389,51.055969 c 0.0281,5.03213 2.50629,7.52624 2.50629,7.52624 4.68481,6.81916 11.43412,1.34798 11.43412,1.34798 6.98752,-4.83685 10.34491,1.16203 10.34491,1.16203"
       id="path3868-9"
       inkscape:connector-curvature="0"
       sodipodi:nodetypes="cccc" />
    <path
       style="fill:#ffffff;fill-opacity:0;stroke:#000000;stroke-width:2.35651827;stroke-linecap:butt;stroke-linejoin:miter;stroke-miterlimit:4;stroke-opacity:1;stroke-dasharray:none"
       d="m 34.271069,51.138289 c 1.74688,8.32572 5.2866,9.76594 8.09917,6.81916 4.84363,-5.07472 10.25904,-4.32591 10.25904,-4.32591 5.00243,0.71363 6.27853,3.62988 6.27853,3.62988 l -4.1539,3.87804"
       id="path3870-9"
       inkscape:connector-curvature="0"
       sodipodi:nodetypes="csccc" />
    <path
       sodipodi:type="arc"
       style="fill:#ffffff;fill-opacity:1;stroke:#000000;stroke-width:30;stroke-miterlimit:4;stroke-opacity:1;stroke-dasharray:none"
       id="path4483"
       sodipodi:cx="-515"
       sodipodi:cy="543.07648"
       sodipodi:rx="34.999996"
       sodipodi:ry="33.571423"
       d="m -480,543.07648 a 34.999996,33.571423 0 1 1 -70,0 34.999996,33.571423 0 1 1 70,0 z"
       transform="matrix(0.07860561,0,0,0.07849564,72.577459,-37.951351)" />
    <path
       sodipodi:type="arc"
       style="fill:#ffffff;fill-opacity:1;stroke:#ffffff;stroke-width:30;stroke-miterlimit:4;stroke-opacity:1;stroke-dasharray:none"
       id="path4485"
       sodipodi:cx="-599.28571"
       sodipodi:cy="185.93361"
       sodipodi:rx="12.142858"
       sodipodi:ry="12.142858"
       d="m -587.14285,185.93361 a 12.142858,12.142858 0 1 1 -24.28571,0 12.142858,12.142858 0 1 1 24.28571,0 z"
       transform="matrix(0.05791992,0,0,0.05783889,66.806149,-6.3006808)" />
    <path
       style="fill:#ffffff;fill-opacity:1;stroke:#000000;stroke-width:1.17825913;stroke-linecap:butt;stroke-linejoin:miter;stroke-miterlimit:4;stroke-opacity:1;stroke-dasharray:none"
       d="m 33.885249,36.584019 3.73377,0"
       id="path4323"
       inkscape:connector-curvature="0" />
    <path
       style="fill:#ffffff;fill-opacity:1;stroke:#000000;stroke-width:1.57101214;stroke-linecap:butt;stroke-linejoin:miter;stroke-miterlimit:4;stroke-opacity:1;stroke-dasharray:none"
       d="m 22.999769,50.149189 0.89835,-2.36889"
       id="path4325"
       inkscape:connector-curvature="0"
       sodipodi:nodetypes="cc" />
    <path
       style="fill:#ffffff;fill-opacity:1;stroke:#000000;stroke-width:2.35651827;stroke-linecap:butt;stroke-linejoin:miter;stroke-miterlimit:4;stroke-opacity:1;stroke-dasharray:none"
       d="m 16.318299,58.783699 c -4.29524,-1.90632 -8.6746899,2.2147 -8.6746899,2.2147"
       id="path4327"
       inkscape:connector-curvature="0"
       sodipodi:nodetypes="cc" />
    <path
       style="fill:#ffffff;fill-opacity:0;stroke:#000000;stroke-width:2.35651827;stroke-linecap:butt;stroke-linejoin:miter;stroke-miterlimit:4;stroke-opacity:1;stroke-dasharray:none"
       d="m 48.070249,58.722649 c 5.00243,-2.22019 7.86096,1.94267 7.86096,1.94267"
       id="path4329"
       inkscape:connector-curvature="0"
       sodipodi:nodetypes="cc" />
    <path
       style="fill:#ffffff;fill-opacity:1;stroke:none"
       d="m 22.740479,27.838199 19.89062,0.19823 0.47642,6.78685 -20.64495,0 z"
       id="path4928"
       inkscape:connector-curvature="0"
       sodipodi:nodetypes="ccccc" />
  </g>
</svg>
