<?xml version="1.0" encoding="UTF-8" standalone="no"?>
<!-- Created with Inkscape (http://www.inkscape.org/) -->

<svg
   xmlns:dc="http://purl.org/dc/elements/1.1/"
   xmlns:cc="http://creativecommons.org/ns#"
   xmlns:rdf="http://www.w3.org/1999/02/22-rdf-syntax-ns#"
   xmlns:svg="http://www.w3.org/2000/svg"
   xmlns="http://www.w3.org/2000/svg"
   xmlns:sodipodi="http://sodipodi.sourceforge.net/DTD/sodipodi-0.dtd"
   xmlns:inkscape="http://www.inkscape.org/namespaces/inkscape"
   width="64px"
   height="64px"
   id="svg4398"
   version="1.1"
   inkscape:version="0.48.5 r10040"
   sodipodi:docname="New document 16">
  <defs
     id="defs4400" />
  <sodipodi:namedview
     id="base"
     pagecolor="#ffffff"
     bordercolor="#666666"
     borderopacity="1.0"
     inkscape:pageopacity="0.0"
     inkscape:pageshadow="2"
     inkscape:zoom="5.5"
     inkscape:cx="32"
     inkscape:cy="32"
     inkscape:current-layer="layer1"
     showgrid="true"
     inkscape:document-units="px"
     inkscape:grid-bbox="true"
     inkscape:window-width="1920"
     inkscape:window-height="1018"
     inkscape:window-x="0"
     inkscape:window-y="27"
     inkscape:window-maximized="1" />
  <metadata
     id="metadata4403">
    <rdf:RDF>
      <cc:Work
         rdf:about="">
        <dc:format>image/svg+xml</dc:format>
        <dc:type
           rdf:resource="http://purl.org/dc/dcmitype/StillImage" />
        <dc:title></dc:title>
      </cc:Work>
    </rdf:RDF>
  </metadata>
  <g
     id="layer1"
     inkscape:label="Layer 1"
     inkscape:groupmode="layer">
    <path
       style="fill:#ffffff;fill-opacity:1;stroke:#000000;stroke-width:0.06819295px;stroke-linecap:butt;stroke-linejoin:miter;stroke-opacity:1"
       d="m 15.949234,57.948406 33.0685,0 -0.17046,-3.43713 -32.64236,-0.0838 0,3.94012 z"
       id="path5997"
       inkscape:connector-curvature="0" />
    <path
       style="fill:#ffffff;fill-opacity:1;stroke:#000000;stroke-width:0.06819295px;stroke-linecap:butt;stroke-linejoin:miter;stroke-opacity:1"
       d="m 16.460604,54.092116 32.55713,-0.0838 -2.7273,-4.44311 -27.35822,0.67066 z"
       id="path5995"
       inkscape:connector-curvature="0" />
    <path
       style="fill:#ffffff;fill-opacity:1;stroke:#000000;stroke-width:0.06819295px;stroke-linecap:butt;stroke-linejoin:miter;stroke-opacity:1"
       d="m 18.591304,15.068186 27.82697,-0.12574 -3.11083,11.98801 1.27843,14.62874 2.21593,8.21556 -28.93494,0.0838 4.34663,-18.06585 -1.66195,-10.22755 z"
       id="path5993"
       inkscape:connector-curvature="0" />
    <path
       style="fill:#ffffff;fill-opacity:1;stroke:#000000;stroke-width:0.06819295px;stroke-linecap:butt;stroke-linejoin:miter;stroke-opacity:1"
       d="m 15.869634,10.211136 32.90488,0 -2.69715,4.60555 -27.6139,-0.25148 z"
       id="path5991"
       inkscape:connector-curvature="0" />
    <path
       style="fill:#ffffff;fill-opacity:1;stroke:#000000;stroke-width:2.04578853;stroke-linecap:butt;stroke-linejoin:miter;stroke-miterlimit:4;stroke-opacity:1;stroke-dasharray:none"
       d="m 11.676894,58.171026 41.17481,0 0.0122,3.99108 -41.18344,0 0.003,-5.00409"
       id="path2985"
       inkscape:connector-curvature="0"
       sodipodi:nodetypes="ccccc" />
    <path
       style="fill:none;stroke:#000000;stroke-width:2.04578853;stroke-linecap:butt;stroke-linejoin:miter;stroke-miterlimit:4;stroke-opacity:1;stroke-dasharray:none"
       d="m 16.110814,58.161336 0.0115,-3.535 32.83718,-0.48437 m 0,0 -1.14595,-1.89359 m 0,0 -1.28521,-2.12367 -28.12162,0.0124"
       id="path3024-5"
       inkscape:connector-curvature="0"
       sodipodi:nodetypes="cccccccc" />
    <path
       style="fill:none;stroke:#000000;stroke-width:2.04578853;stroke-linecap:butt;stroke-linejoin:miter;stroke-miterlimit:4;stroke-opacity:1;stroke-dasharray:none"
       d="m 48.771354,58.152806 0.0319,-3.52647 -32.80246,-0.48437 m 0,0 1.14596,-1.89358 m 0,0 1.28521,-2.12368"
       id="path3024-5-2"
       inkscape:connector-curvature="0"
       sodipodi:nodetypes="ccccccc" />
    <path
       style="fill:#ffffff;fill-opacity:1;stroke:#000000;stroke-width:2.0077157;stroke-linecap:butt;stroke-linejoin:miter;stroke-miterlimit:4;stroke-opacity:1;stroke-dasharray:none"
       d="m 48.902714,1.9811357 -0.01,8.2495103 -32.72564,-10e-6 -0.007,-4.1247503 -0.003,-4.12475 6.55586,0 0,4.12475 6.54514,0 0,-4.12475 6.54514,0 0,4.12475 6.54514,0 0,-4.12475 7.53868,0.0344"
       id="path2985-7"
       inkscape:connector-curvature="0"
       sodipodi:nodetypes="cccccccccccccc" />
    <path
       style="fill:none;stroke:#000000;stroke-width:2.04578853;stroke-linecap:butt;stroke-linejoin:miter;stroke-miterlimit:4;stroke-opacity:1;stroke-dasharray:none"
       d="m 48.959514,10.736316 -1.14596,1.89357 m 0,0 -1.28521,2.12369 -28.06022,-0.0124"
       id="path3024-5-25"
       inkscape:connector-curvature="0"
       sodipodi:nodetypes="ccccc" />
    <path
       style="fill:none;stroke:#000000;stroke-width:2.04578853;stroke-linecap:butt;stroke-linejoin:miter;stroke-miterlimit:4;stroke-opacity:1;stroke-dasharray:none"
       d="m 16.073564,10.659146 1.14595,1.89357 m 0,0 1.28521,2.12369 c 7.14781,16.01199 -0.71474,35.52537 -0.11756,35.52537"
       id="path3024-5-25-0-0-1"
       inkscape:connector-curvature="0"
       sodipodi:nodetypes="ccccc" />
    <path
       style="fill:none;stroke:#000000;stroke-width:2.04578853;stroke-linecap:butt;stroke-linejoin:miter;stroke-miterlimit:4;stroke-opacity:1;stroke-dasharray:none"
       d="m 48.920494,10.794006 -1.14596,1.89358 m 0,0 -1.28521,2.12369 c -7.1478,16.01199 0.62951,35.56728 0.0323,35.56728"
       id="path3024-5-25-0-0-1-4"
       inkscape:connector-curvature="0"
       sodipodi:nodetypes="ccccc" />
  </g>
</svg>
