<?xml version="1.0" encoding="UTF-8" standalone="no"?>
<!-- Created with Inkscape (http://www.inkscape.org/) -->

<svg
   xmlns:dc="http://purl.org/dc/elements/1.1/"
   xmlns:cc="http://creativecommons.org/ns#"
   xmlns:rdf="http://www.w3.org/1999/02/22-rdf-syntax-ns#"
   xmlns:svg="http://www.w3.org/2000/svg"
   xmlns="http://www.w3.org/2000/svg"
   xmlns:sodipodi="http://sodipodi.sourceforge.net/DTD/sodipodi-0.dtd"
   xmlns:inkscape="http://www.inkscape.org/namespaces/inkscape"
   width="64px"
   height="64px"
   id="svg3811"
   version="1.1"
   inkscape:version="0.48.5 r10040"
   sodipodi:docname="white_knight.svg">
  <defs
     id="defs3813" />
  <sodipodi:namedview
     id="base"
     pagecolor="#ffffff"
     bordercolor="#666666"
     borderopacity="1.0"
     inkscape:pageopacity="0.0"
     inkscape:pageshadow="2"
     inkscape:zoom="11.313709"
     inkscape:cx="27.790616"
     inkscape:cy="30.827821"
     inkscape:current-layer="layer1"
     showgrid="true"
     inkscape:document-units="px"
     inkscape:grid-bbox="true"
     inkscape:window-width="1920"
     inkscape:window-height="1018"
     inkscape:window-x="0"
     inkscape:window-y="27"
     inkscape:window-maximized="1" />
  <metadata
     id="metadata3816">
    <rdf:RDF>
      <cc:Work
         rdf:about="">
        <dc:format>image/svg+xml</dc:format>
        <dc:type
           rdf:resource="http://purl.org/dc/dcmitype/StillImage" />
        <dc:title />
      </cc:Work>
    </rdf:RDF>
  </metadata>
  <g
     id="layer1"
     inkscape:label="Layer 1"
     inkscape:groupmode="layer">
    <path
       style="fill:#ffffff;fill-opacity:1;stroke:#ffffff;stroke-width:0.8471778px;stroke-linecap:butt;stroke-linejoin:miter;stroke-opacity:1"
       d="m 37.1333,13.758212 -3.669177,-3.284923 0.489223,4.173786 z"
       id="path3852"
       inkscape:connector-curvature="0" />
    <path
       style="fill:#ffffff;fill-opacity:1;stroke:#ffffff;stroke-width:0.8471778px;stroke-linecap:butt;stroke-linejoin:miter;stroke-opacity:1"
       d="m 28.312885,15.059299 1.22306,-1.082091 4.805902,0.45087 -0.53239,5.861338 z"
       id="path3850"
       inkscape:connector-curvature="0" />
    <path
       style="fill:#ffffff;fill-opacity:1;stroke:#000000;stroke-width:1.77569902;stroke-linecap:butt;stroke-linejoin:miter;stroke-miterlimit:4;stroke-opacity:1;stroke-dasharray:none"
       d="m 33.936502,14.250573 c 0,0 9.842658,-0.123548 12.972603,9.07099 0,0 2.503946,4.957057 2.524164,16.261655 0,0 0.115616,6.944096 0.178847,16.441972 l -30.115741,0 0,-4.635866 c 0,-3.56171 2.485171,-4.296656 2.485171,-4.296656 15.871821,-3.900919 10.574953,-16.009602 10.574953,-16.009602"
       id="path2991"
       inkscape:connector-curvature="0"
       sodipodi:nodetypes="cccccscc" />
    <path
       style="fill:#ffffff;fill-opacity:1;stroke:#000000;stroke-width:1.77569902;stroke-linecap:butt;stroke-linejoin:miter;stroke-miterlimit:4;stroke-opacity:1;stroke-dasharray:none"
       d="m 37.616008,23.968214 c 0.318631,7.203948 -6.117562,8.312253 -6.117562,8.312253 -5.735217,0 -7.646956,2.770746 -7.646956,2.770746 -2.166638,4.063772 -4.142109,2.893905 -4.142109,2.893905 -1.210764,-0.800452 0.127455,-2.401326 0.127455,-2.401326 -0.955875,1.539304 -0.686417,1.133858 -2.102917,1.169874 -2.421537,0.06156 -3.249958,-2.647608 -3.249958,-2.647608 -0.637243,-1.785591 2.102916,-2.955466 2.102916,-2.955466 4.333278,-2.647607 7.100602,-6.953524 7.45578,-8.127531 0.994115,-3.285907 0.370105,-1.731742 1.264478,-3.460062 1.441918,-2.786442 3.244324,-4.876272 3.244324,-4.876272"
       id="path3013"
       inkscape:connector-curvature="0"
       sodipodi:nodetypes="cccccsccssc" />
    <path
       style="fill:#ffffff;fill-opacity:1;stroke:#000000;stroke-width:1.77569902;stroke-linecap:butt;stroke-linejoin:miter;stroke-miterlimit:4;stroke-opacity:1;stroke-dasharray:none"
       d="m 33.092155,10.882014 c 1.04336,-1.3851075 4.031184,-3.0811551 4.031184,-3.0811551 1.201451,4.2401201 -0.01585,6.4202651 -0.01585,6.4202651"
       id="path3017"
       inkscape:connector-curvature="0"
       sodipodi:nodetypes="ccc" />
    <path
       style="fill:#ffffff;fill-opacity:1;stroke:#000000;stroke-width:1.18379939;stroke-linecap:butt;stroke-linejoin:miter;stroke-miterlimit:4;stroke-opacity:1;stroke-dasharray:none"
       d="m 26.563203,21.73673 c 0.66396,-2.006993 3.794067,-2.317938 3.794067,-2.317938"
       id="path3019"
       inkscape:connector-curvature="0" />
    <path
       sodipodi:type="arc"
       style="fill:#000000;fill-opacity:1;stroke:#000000;stroke-width:20;stroke-miterlimit:4;stroke-opacity:1;stroke-dasharray:none"
       id="path3023"
       sodipodi:cx="331.07748"
       sodipodi:cy="364.4483"
       sodipodi:rx="12.374369"
       sodipodi:ry="12.626906"
       d="m 343.45185,364.4483 a 12.374369,12.626906 0 1 1 -24.74873,0 12.374369,12.626906 0 1 1 24.74873,0 z"
       transform="matrix(0.06259878,0,0,0.05596677,8.3029023,0.96657351)" />
    <path
       style="fill:#ffffff;fill-opacity:1;stroke:#000000;stroke-width:1.77569902;stroke-linecap:butt;stroke-linejoin:miter;stroke-miterlimit:4;stroke-opacity:1;stroke-dasharray:none"
       d="m 19.794083,35.594018 c 0.849557,-0.939439 0.827201,-1.179284 0.827201,-1.179284"
       id="path3025"
       inkscape:connector-curvature="0"
       sodipodi:nodetypes="cc" />
    <path
       style="fill:#ffffff;fill-opacity:1;stroke:#000000;stroke-width:1.18379939;stroke-linecap:butt;stroke-linejoin:miter;stroke-miterlimit:4;stroke-opacity:1;stroke-dasharray:none"
       d="m 17.085252,33.935263 c -0.335348,-1.059367 1.475537,-1.219268 1.475537,-1.219268"
       id="path3766"
       inkscape:connector-curvature="0" />
    <path
       style="fill:#000000;fill-opacity:1;stroke:#000000;stroke-width:0.05918996px;stroke-linecap:butt;stroke-linejoin:miter;stroke-opacity:1"
       d="M 34.527169,17.81157 C 51.157797,14.702133 46.794626,54.16356 46.794626,54.16356 L 44.320271,54.10705 C 49.291998,15.284077 34.527169,17.81159 34.527169,17.81159"
       id="path3790"
       inkscape:connector-curvature="0"
       sodipodi:nodetypes="cccc" />
    <path
       style="fill:#ffffff;fill-opacity:1;stroke:#000000;stroke-width:1.77569902;stroke-linecap:butt;stroke-linejoin:miter;stroke-miterlimit:4;stroke-opacity:1;stroke-dasharray:none"
       d="m 34.215451,15.098986 c 0,-3.357994 -2.859419,-7.0358137 -2.859419,-7.0358137 0,0 -2.995027,3.7309587 -2.995027,7.0889507"
       id="path2993"
       inkscape:connector-curvature="0"
       sodipodi:nodetypes="ccc" />
  </g>
</svg>
