<?xml version="1.0" encoding="UTF-8" standalone="no"?>
<!-- Created with Inkscape (http://www.inkscape.org/) -->

<svg
   xmlns:dc="http://purl.org/dc/elements/1.1/"
   xmlns:cc="http://creativecommons.org/ns#"
   xmlns:rdf="http://www.w3.org/1999/02/22-rdf-syntax-ns#"
   xmlns:svg="http://www.w3.org/2000/svg"
   xmlns="http://www.w3.org/2000/svg"
   xmlns:sodipodi="http://sodipodi.sourceforge.net/DTD/sodipodi-0.dtd"
   xmlns:inkscape="http://www.inkscape.org/namespaces/inkscape"
   width="64px"
   height="64px"
   id="svg4398"
   version="1.1"
   inkscape:version="0.48.5 r10040"
   sodipodi:docname="white_rook.svg">
  <defs
     id="defs4400" />
  <sodipodi:namedview
     id="base"
     pagecolor="#ffffff"
     bordercolor="#666666"
     borderopacity="1.0"
     inkscape:pageopacity="0.0"
     inkscape:pageshadow="2"
     inkscape:zoom="5.5"
     inkscape:cx="32"
     inkscape:cy="32"
     inkscape:current-layer="layer1"
     showgrid="true"
     inkscape:document-units="px"
     inkscape:grid-bbox="true"
     inkscape:window-width="1920"
     inkscape:window-height="1018"
     inkscape:window-x="0"
     inkscape:window-y="27"
     inkscape:window-maximized="1" />
  <metadata
     id="metadata4403">
    <rdf:RDF>
      <cc:Work
         rdf:about="">
        <dc:format>image/svg+xml</dc:format>
        <dc:type
           rdf:resource="http://purl.org/dc/dcmitype/StillImage" />
        <dc:title />
      </cc:Work>
    </rdf:RDF>
  </metadata>
  <g
     id="layer1"
     inkscape:label="Layer 1"
     inkscape:groupmode="layer">
    <path
       style="fill:#ffffff;fill-opacity:1;stroke:#000000;stroke-width:0.05328641px;stroke-linecap:butt;stroke-linejoin:miter;stroke-opacity:1"
       d="m 19.107142,52.866236 26.179219,0 -0.134947,-2.650989 -25.841859,-0.06462 0,3.038933 z"
       id="path5997"
       inkscape:connector-curvature="0" />
    <path
       style="fill:#ffffff;fill-opacity:1;stroke:#000000;stroke-width:0.05328641px;stroke-linecap:butt;stroke-linejoin:miter;stroke-opacity:1"
       d="M 19.511976,49.891959 45.286361,49.827333 43.12725,46.400454 21.468667,46.917719 z"
       id="path5995"
       inkscape:connector-curvature="0" />
    <path
       style="fill:#ffffff;fill-opacity:1;stroke:#000000;stroke-width:0.05328641px;stroke-linecap:butt;stroke-linejoin:miter;stroke-opacity:1"
       d="m 21.19878,19.793603 22.029676,-0.09698 -2.462738,9.246105 1.012088,11.282846 1.754278,6.336494 -22.906819,0.06462 3.441082,-13.933819 -1.315711,-7.888299 z"
       id="path5993"
       inkscape:connector-curvature="0" />
    <path
       style="fill:#ffffff;fill-opacity:1;stroke:#000000;stroke-width:0.05328641px;stroke-linecap:butt;stroke-linejoin:miter;stroke-opacity:1"
       d="m 19.044126,16.047461 26.049687,0 -2.135244,3.552167 -21.860995,-0.193961 z"
       id="path5991"
       inkscape:connector-curvature="0" />
    <path
       style="fill:#ffffff;fill-opacity:1;stroke:#000000;stroke-width:1.5985924;stroke-linecap:butt;stroke-linejoin:miter;stroke-miterlimit:4;stroke-opacity:1;stroke-dasharray:none"
       d="m 15.724874,53.037937 32.596713,0 0.0097,3.078239 -32.603546,0 0.0024,-3.859552"
       id="path2985"
       inkscape:connector-curvature="0"
       sodipodi:nodetypes="ccccc" />
    <path
       style="fill:none;stroke:#000000;stroke-width:1.5985924;stroke-linecap:butt;stroke-linejoin:miter;stroke-miterlimit:4;stroke-opacity:1;stroke-dasharray:none"
       d="m 19.235059,53.030464 0.0091,-2.726473 25.996092,-0.373585 m 0,0 -0.907211,-1.460486 m 0,0 -1.017456,-1.637943 -22.262942,0.0095"
       id="path3024-5"
       inkscape:connector-curvature="0"
       sodipodi:nodetypes="cccccccc" />
    <path
       style="fill:none;stroke:#000000;stroke-width:1.5985924;stroke-linecap:butt;stroke-linejoin:miter;stroke-miterlimit:4;stroke-opacity:1;stroke-dasharray:none"
       d="m 45.091311,53.023885 0.02526,-2.719894 -25.968605,-0.373585 m 0,0 0.907219,-1.460479 m 0,0 1.017456,-1.63795"
       id="path3024-5-2"
       inkscape:connector-curvature="0"
       sodipodi:nodetypes="ccccccc" />
    <path
       style="fill:#ffffff;fill-opacity:1;stroke:#000000;stroke-width:1.56884193;stroke-linecap:butt;stroke-linejoin:miter;stroke-miterlimit:4;stroke-opacity:1;stroke-dasharray:none"
       d="m 45.195304,9.6998307 -0.0079,6.3626793 -25.907789,-8e-6 -0.0055,-3.181335 -0.0024,-3.1813363 5.190054,0 0,3.1813363 5.181568,0 0,-3.1813363 5.181568,0 0,3.1813363 5.181566,0 0,-3.1813363 5.96812,0.026528"
       id="path2985-7"
       inkscape:connector-curvature="0"
       sodipodi:nodetypes="cccccccccccccc" />
    <path
       style="fill:none;stroke:#000000;stroke-width:1.5985924;stroke-linecap:butt;stroke-linejoin:miter;stroke-miterlimit:4;stroke-opacity:1;stroke-dasharray:none"
       d="m 45.240271,16.452521 -0.907219,1.460472 m 0,0 -1.017456,1.637958 -22.214333,-0.0095"
       id="path3024-5-25"
       inkscape:connector-curvature="0"
       sodipodi:nodetypes="ccccc" />
    <path
       style="fill:none;stroke:#000000;stroke-width:1.5985924;stroke-linecap:butt;stroke-linejoin:miter;stroke-miterlimit:4;stroke-opacity:1;stroke-dasharray:none"
       d="m 19.20557,16.393002 0.90721,1.460471 m 0,0 1.017458,1.63796 c 5.65868,12.349717 -0.565836,27.399987 -0.09307,27.399987"
       id="path3024-5-25-0-0-1"
       inkscape:connector-curvature="0"
       sodipodi:nodetypes="ccccc" />
    <path
       style="fill:none;stroke:#000000;stroke-width:1.5985924;stroke-linecap:butt;stroke-linejoin:miter;stroke-miterlimit:4;stroke-opacity:1;stroke-dasharray:none"
       d="m 45.20938,16.497017 -0.907218,1.460479 m 0,0 -1.017457,1.637958 c -5.658673,12.349719 0.498361,27.432312 0.02557,27.432312"
       id="path3024-5-25-0-0-1-4"
       inkscape:connector-curvature="0"
       sodipodi:nodetypes="ccccc" />
  </g>
</svg>
