<?xml version="1.0" encoding="UTF-8" standalone="no"?>
<!-- Created with Inkscape (http://www.inkscape.org/) -->

<svg
   xmlns:dc="http://purl.org/dc/elements/1.1/"
   xmlns:cc="http://creativecommons.org/ns#"
   xmlns:rdf="http://www.w3.org/1999/02/22-rdf-syntax-ns#"
   xmlns:svg="http://www.w3.org/2000/svg"
   xmlns="http://www.w3.org/2000/svg"
   xmlns:sodipodi="http://sodipodi.sourceforge.net/DTD/sodipodi-0.dtd"
   xmlns:inkscape="http://www.inkscape.org/namespaces/inkscape"
   width="64px"
   height="64px"
   id="svg3978"
   version="1.1"
   inkscape:version="0.48.5 r10040"
   sodipodi:docname="K_white_square.svg">
  <defs
     id="defs3980" />
  <sodipodi:namedview
     id="base"
     pagecolor="#ffffff"
     bordercolor="#666666"
     borderopacity="1.0"
     inkscape:pageopacity="0.0"
     inkscape:pageshadow="2"
     inkscape:zoom="2.75"
     inkscape:cx="31.828997"
     inkscape:cy="38.200496"
     inkscape:current-layer="layer1"
     showgrid="true"
     inkscape:document-units="px"
     inkscape:grid-bbox="true"
     inkscape:window-width="1920"
     inkscape:window-height="1018"
     inkscape:window-x="0"
     inkscape:window-y="27"
     inkscape:window-maximized="1" />
  <metadata
     id="metadata3983">
    <rdf:RDF>
      <cc:Work
         rdf:about="">
        <dc:format>image/svg+xml</dc:format>
        <dc:type
           rdf:resource="http://purl.org/dc/dcmitype/StillImage" />
        <dc:title />
      </cc:Work>
    </rdf:RDF>
  </metadata>
  <g
     id="layer1"
     inkscape:label="Layer 1"
     inkscape:groupmode="layer">
    <path
       style="fill:#ffffff;stroke:#ffffff;stroke-width:1px;stroke-linecap:butt;stroke-linejoin:miter;stroke-opacity:1;fill-opacity:1"
       d="m 26.227233,50.564971 11.892251,-0.642824 0.449977,-6.942503 -4.949748,-5.913984 0.25713,-11.056579 -0.642824,-2.699862 -3.021275,0.385694 0.899954,9.642366 c 0,0 -0.128565,7.521045 -3.214121,8.549563 -3.085557,1.028519 -3.085557,1.028519 -3.085557,1.028519 z"
       id="path3943"
       inkscape:connector-curvature="0" />
    <path
       style="fill:#ffffff;fill-opacity:1;stroke:#ffffff;stroke-width:1px;stroke-linecap:butt;stroke-linejoin:miter;stroke-opacity:1"
       d="m 36.019924,20.81386 10.028059,-1.092802 6.813939,3.535534 1.735625,3.728381 -2.185603,7.778175 -5.592571,12.020815 -1.414214,5.849702 -7.199633,-1.671344 0.707107,-8.163869 4.548346,-4.209481 2.844134,-3.504411 1.258321,-2.985158 0.02733,-3.250238 -2.336188,-2.208501 -2.549277,-0.619926 -4.009404,0.03083 -3.254511,0.869119 -2.249885,1.221366 0.311063,-3.535017 z"
       id="path3923-9"
       inkscape:connector-curvature="0"
       sodipodi:nodetypes="cccccccccccccccccccc" />
    <path
       style="fill:#ffffff;fill-opacity:1;stroke:#ffffff;stroke-width:1px;stroke-linecap:butt;stroke-linejoin:miter;stroke-opacity:1"
       d="m 28.155706,20.609357 -10.028059,-1.092802 -6.813939,3.535534 -1.7356252,3.728381 2.1856032,7.778175 5.592571,12.020815 1.414214,5.849702 7.199633,-1.671344 -0.707107,-8.163869 -4.548346,-4.209481 -2.844134,-3.504411 -1.258321,-2.985158 -0.02733,-3.250238 4.885465,-2.828427 7.263915,0.899954 2.249885,1.221366 -0.311063,-3.535017 z"
       id="path3923"
       inkscape:connector-curvature="0"
       sodipodi:nodetypes="cccccccccccccccccc" />
    <path
       style="fill:#ffffff;stroke:#000000;stroke-width:2.09562039000000011;stroke-linecap:butt;stroke-linejoin:miter;stroke-miterlimit:4;stroke-opacity:1;stroke-dasharray:none;fill-opacity:1"
       d="m 19.018967,62.132049 26.938463,0 C 44.008396,56.891852 45.025358,52.194073 45.025358,52.194073 31.775409,47.626684 18.987965,52.127944 18.987965,52.127944"
       id="path2985-6"
       inkscape:connector-curvature="0"
       sodipodi:nodetypes="cccc" />
    <path
       style="fill:none;fill-opacity:1;stroke:#000000;stroke-width:0.06985400999999999px;stroke-linecap:butt;stroke-linejoin:miter;stroke-opacity:1"
       d="m 26.02688,20.223399 -11.338363,0.498423 -4.7950873,5.781758 1.6982603,7.526262 5.044826,9.868866 2.0479,6.977976 2.0479,1.246071 10.788931,-2.043543 12.337334,1.644798 2.597343,-1.794327 0.849125,-6.828458 5.943897,-10.56667 1.398567,-6.678927 -7.642158,-5.731914 -10.039697,0.04982 -5.893951,1.146385 z"
       id="path4164"
       inkscape:connector-curvature="0" />
    <path
       style="fill:none;stroke:#000000;stroke-width:2.09562039;stroke-linecap:butt;stroke-linejoin:miter;stroke-miterlimit:4;stroke-opacity:1;stroke-dasharray:none"
       d="m 45.027102,62.13207 -26.938463,0 c 1.699034,-4.626572 0.841163,-9.915259 0.841163,-9.915259 13.24995,-4.567389 26.128301,-0.08886 26.128301,-0.08886 1.148073,-7.481702 7.341718,-17.849 7.341718,-17.849 5.394465,-9.968552 -2.097846,-12.660057 -2.097846,-12.660057 -7.192617,-4.28647 -18.381143,0.09972 -18.381143,0.09972"
       id="path2985-6-3"
       inkscape:connector-curvature="0"
       sodipodi:nodetypes="ccccccc" />
    <path
       style="fill:none;stroke:#000000;stroke-width:2.09562039;stroke-linecap:butt;stroke-linejoin:miter;stroke-miterlimit:4;stroke-opacity:1;stroke-dasharray:none"
       d="m 18.98288,62.13208 26.938463,0 c -2.789943,-5.240198 -1.022981,-9.960714 -1.022981,-9.960714 -13.24996,-4.567389 -25.946484,-0.0434 -25.946484,-0.0434 -1.148082,-7.481712 -7.341727,-17.849 -7.341727,-17.849 -5.3944648,-9.968552 2.097856,-12.660067 2.097856,-12.660067 7.192617,-4.28646 18.381133,0.09972 18.381133,0.09972"
       id="path2985-6-3-4"
       inkscape:connector-curvature="0"
       sodipodi:nodetypes="ccccccc" />
    <path
       style="fill:#ffffff;fill-opacity:1;stroke:#000000;stroke-width:0.06985401px;stroke-linecap:butt;stroke-linejoin:miter;stroke-opacity:1"
       d="m 32.230952,15.328196 -4.0617,2.872397 0.49447,3.524409 2.207445,2.995757 3.496589,0.03528 2.29574,-3.98259 -1.23616,-3.753499 z"
       id="path4722"
       inkscape:connector-curvature="0" />
    <path
       style="fill:none;fill-opacity:1;stroke:#000000;stroke-width:0.06985400999999999px;stroke-linecap:butt;stroke-linejoin:miter;stroke-opacity:1"
       d="m 29.77304,27.251229 -9.340418,-1.295905 -4.095799,3.788038 0.899081,5.283336 4.545329,4.485853 3.396522,2.741349 3.546358,-2.541986 1.947998,-7.924988 z"
       id="path4162"
       inkscape:connector-curvature="0" />
    <path
       style="fill:none;stroke:#000000;stroke-width:2.09562039;stroke-linecap:butt;stroke-linejoin:miter;stroke-miterlimit:4;stroke-opacity:1;stroke-dasharray:none"
       d="m 32.966867,15.35187 c 0,0 -4.288972,-0.254157 -5.135166,4.038798 0,0 0.173049,1.636268 2.011547,3.690876 0,0 1.241619,1.390581 0.970144,5.00345 0,0 0.907648,11.577077 -5.285998,14.767015 C 20.23283,39.363011 18.18493,35.67465 18.18493,35.67465 c -5.194673,-7.825302 2.347584,-9.669492 2.347584,-9.669492 7.442365,-1.096542 10.289445,1.943867 10.289445,1.943867"
       id="path3142"
       inkscape:connector-curvature="0"
       sodipodi:nodetypes="cccccccc" />
    <path
       style="fill:none;stroke:#000000;stroke-width:2.09562039;stroke-linecap:butt;stroke-linejoin:miter;stroke-miterlimit:4;stroke-opacity:1;stroke-dasharray:none"
       d="m 19.268843,58.678492 25.712306,0"
       id="path3202"
       inkscape:connector-curvature="0" />
    <path
       style="fill:none;stroke:#000000;stroke-width:2.07729745;stroke-linecap:butt;stroke-linejoin:miter;stroke-miterlimit:4;stroke-opacity:1;stroke-dasharray:none"
       d="m 27.659311,7.3192675 9.1272,0"
       id="path3974"
       inkscape:connector-curvature="0" />
    <path
       style="fill:#000000;fill-opacity:1;stroke:#000000;stroke-width:0.05928457px;stroke-linecap:butt;stroke-linejoin:miter;stroke-opacity:1"
       d="m 43.786565,58.593038 c -1.457296,-2.540964 -3.386371,-3.346715 -3.386371,-3.346715 0,0 1.947596,-0.355838 3.404902,-2.896792"
       id="path5518-5-82"
       inkscape:connector-curvature="0"
       sodipodi:nodetypes="ccc" />
    <path
       style="fill:#000000;fill-opacity:1;stroke:#000000;stroke-width:0.05928457px;stroke-linecap:butt;stroke-linejoin:miter;stroke-opacity:1"
       d="m 19.98102,58.593048 c 1.457306,-2.540964 3.386381,-3.346715 3.386381,-3.346715 0,0 -1.947605,-0.355838 -3.404901,-2.896792"
       id="path5518-5-82-2"
       inkscape:connector-curvature="0"
       sodipodi:nodetypes="ccc" />
    <path
       style="fill:#000000;fill-opacity:1;stroke:#000000;stroke-width:0.01136915;stroke-miterlimit:4;stroke-opacity:1;stroke-dasharray:none"
       d="m 31.875784,50.431052 c -0.05616,0.06826 -0.018,0.182585 -0.02911,0.271507 0,2.40322 0,4.806441 0,7.209662 0.0059,0.09251 0.09679,0.08379 0.123064,0.01213 0.388943,-0.55911 0.815428,-1.068509 1.272385,-1.53114 0.819038,-0.836681 1.717804,-1.533504 2.663359,-2.095792 0.05882,-0.01503 0.08144,-0.126447 0.02046,-0.158841 -0.38249,-0.227968 -0.761105,-0.469115 -1.124986,-0.745253 -0.766733,-0.577844 -1.498862,-1.246984 -2.156034,-2.022556 -0.244889,-0.300052 -0.480828,-0.613154 -0.71053,-0.931006 -0.0182,-0.02175 -0.03679,-0.01443 -0.05862,-0.008 z"
       id="path5768"
       inkscape:connector-curvature="0" />
    <path
       style="fill:#000000;fill-opacity:1;stroke:#000000;stroke-width:0.01136915;stroke-miterlimit:4;stroke-opacity:1;stroke-dasharray:none"
       d="m 31.966912,50.431082 c 0.05616,0.06825 0.018,0.182585 0.02912,0.271517 0,2.40321 0,4.806431 0,7.209642 -0.0069,0.09251 -0.09679,0.08389 -0.123065,0.01213 -0.388952,-0.55911 -0.815438,-1.068509 -1.272394,-1.53114 -0.819038,-0.836681 -1.717795,-1.533504 -2.663349,-2.095782 -0.05882,-0.01503 -0.08144,-0.126457 -0.02046,-0.158851 0.382481,-0.227968 0.761096,-0.469115 1.124977,-0.745243 0.766741,-0.577854 1.498861,-1.246994 2.156044,-2.022566 0.244879,-0.300052 0.480818,-0.613154 0.71053,-0.931006 0.0182,-0.02175 0.03679,-0.01443 0.05862,-0.008 z"
       id="path5768-0"
       inkscape:connector-curvature="0" />
    <path
       style="fill:none;fill-opacity:1;stroke:#000000;stroke-width:0.06985400999999999px;stroke-linecap:butt;stroke-linejoin:miter;stroke-opacity:1"
       d="m 33.619092,27.699809 8.790977,-2.193084 5.294574,3.738204 -0.799179,5.582396 -5.844006,7.127506 -3.096828,0.797492 -3.546358,-6.080818 z"
       id="path4166"
       inkscape:connector-curvature="0" />
    <path
       style="fill:none;stroke:#000000;stroke-width:2.09562039;stroke-linecap:butt;stroke-linejoin:miter;stroke-miterlimit:4;stroke-opacity:1;stroke-dasharray:none"
       d="m 31.04781,15.264631 c 0,0 4.428837,-0.166928 5.275021,4.126017 0,0 -0.173049,1.636268 -2.011537,3.690876 0,0 -1.241619,1.39058 -0.970154,5.003449 0,0 -0.907648,11.577078 5.286007,14.767016 5.294565,-3.488988 7.342464,-7.177359 7.342464,-7.177359 5.194663,-7.825302 -2.347593,-9.669492 -2.347593,-9.669492 -7.442366,-1.096542 -10.289445,1.943867 -10.289445,1.943867"
       id="path3142-1"
       inkscape:connector-curvature="0"
       sodipodi:nodetypes="cccccccc" />
    <path
       style="fill:none;stroke:#000000;stroke-width:2.09562039;stroke-linecap:butt;stroke-linejoin:miter;stroke-miterlimit:4;stroke-opacity:1;stroke-dasharray:none"
       d="m 32.222906,15.980819 0,-14.0559493"
       id="path3204"
       inkscape:connector-curvature="0"
       sodipodi:nodetypes="cc" />
    <path
       style="fill:#ffffff;stroke:#ffffff;stroke-width:0.06024796px;stroke-linecap:butt;stroke-linejoin:miter;stroke-opacity:1"
       d="m 32.470024,24.717579 -0.01248,0.06667 -0.764487,-0.03361 -0.0097,-0.06421 z"
       id="path4724"
       inkscape:connector-curvature="0"
       sodipodi:nodetypes="ccccc" />
  </g>
</svg>
