<?xml version="1.0" encoding="UTF-8" standalone="no"?>
<!-- Created with Inkscape (http://www.inkscape.org/) -->

<svg
   xmlns:dc="http://purl.org/dc/elements/1.1/"
   xmlns:cc="http://creativecommons.org/ns#"
   xmlns:rdf="http://www.w3.org/1999/02/22-rdf-syntax-ns#"
   xmlns:svg="http://www.w3.org/2000/svg"
   xmlns="http://www.w3.org/2000/svg"
   xmlns:sodipodi="http://sodipodi.sourceforge.net/DTD/sodipodi-0.dtd"
   xmlns:inkscape="http://www.inkscape.org/namespaces/inkscape"
   width="64px"
   height="64px"
   id="svg3978"
   version="1.1"
   inkscape:version="0.48.5 r10040"
   sodipodi:docname="white_king.svg">
  <defs
     id="defs3980" />
  <sodipodi:namedview
     id="base"
     pagecolor="#ffffff"
     bordercolor="#666666"
     borderopacity="1.0"
     inkscape:pageopacity="0.0"
     inkscape:pageshadow="2"
     inkscape:zoom="32"
     inkscape:cx="31.452439"
     inkscape:cy="39.628739"
     inkscape:current-layer="layer1"
     showgrid="true"
     inkscape:document-units="px"
     inkscape:grid-bbox="true"
     inkscape:window-width="1920"
     inkscape:window-height="1018"
     inkscape:window-x="0"
     inkscape:window-y="27"
     inkscape:window-maximized="1" />
  <metadata
     id="metadata3983">
    <rdf:RDF>
      <cc:Work
         rdf:about="">
        <dc:format>image/svg+xml</dc:format>
        <dc:type
           rdf:resource="http://purl.org/dc/dcmitype/StillImage" />
        <dc:title />
      </cc:Work>
    </rdf:RDF>
  </metadata>
  <g
     id="layer1"
     inkscape:label="Layer 1"
     inkscape:groupmode="layer">
    <path
       style="fill:#ffffff;fill-opacity:1;stroke:#ffffff;stroke-width:0.86570305px;stroke-linecap:butt;stroke-linejoin:miter;stroke-opacity:1"
       d="m 26.805034,46.372851 10.692211,-0.535827 0.404571,-5.786961 -4.450273,-4.92963 0.231185,-9.216268 -0.577959,-2.250485 -2.7164,0.321498 0.80914,8.037443 c 0,0 -0.115589,6.269205 -2.889786,7.126531 -2.774196,0.85733 -2.774196,0.85733 -2.774196,0.85733 z"
       id="path3943"
       inkscape:connector-curvature="0" />
    <path
       style="fill:#ffffff;fill-opacity:1;stroke:#ffffff;stroke-width:0.86570305px;stroke-linecap:butt;stroke-linejoin:miter;stroke-opacity:1"
       d="m 35.609551,21.57366 9.016135,-0.91091 6.126349,2.947063 1.560485,3.107811 -1.965056,6.483538 -5.028228,10.020013 -1.271508,4.876049 -6.473123,-1.393159 0.635756,-6.805034 4.089373,-3.508834 2.557135,-2.921121 1.131345,-2.488293 0.02456,-2.709253 -2.100443,-1.840905 -2.292031,-0.516746 -3.604819,0.0257 -2.926102,0.72446 -2.02285,1.018076 0.279675,-2.946634 z"
       id="path3923-9"
       inkscape:connector-curvature="0"
       sodipodi:nodetypes="cccccccccccccccccccc" />
    <path
       style="fill:#ffffff;fill-opacity:1;stroke:#ffffff;stroke-width:0.86570305px;stroke-linecap:butt;stroke-linejoin:miter;stroke-opacity:1"
       d="m 28.538906,21.403197 -9.016136,-0.910911 -6.126351,2.947062 -1.560483,3.107813 1.965055,6.483536 5.028228,10.020013 1.271508,4.876048 6.473124,-1.393156 -0.635753,-6.805037 -4.089375,-3.508834 -2.557136,-2.921119 -1.131345,-2.488292 -0.02457,-2.709255 4.392476,-2.357649 6.530918,0.750159 2.022854,1.018077 -0.279676,-2.946631 z"
       id="path3923"
       inkscape:connector-curvature="0"
       sodipodi:nodetypes="cccccccccccccccccc" />
    <path
       style="fill:#ffffff;fill-opacity:1;stroke:#000000;stroke-width:1.8141849;stroke-linecap:butt;stroke-linejoin:miter;stroke-miterlimit:4;stroke-opacity:1;stroke-dasharray:none"
       d="m 20.324147,56.014649 24.220122,0 C 42.791912,51.646657 43.706255,47.730798 43.706255,47.730798 31.793347,43.923629 20.296274,47.675673 20.296274,47.675673"
       id="path2985-6"
       inkscape:connector-curvature="0"
       sodipodi:nodetypes="cccc" />
    <path
       style="fill:none;stroke:#000000;stroke-width:0.06047283px;stroke-linecap:butt;stroke-linejoin:miter;stroke-opacity:1"
       d="m 26.624898,21.08148 -10.194218,0.415463 -4.31122,4.819412 1.526891,6.273556 4.535757,8.226244 1.841249,5.816526 1.841247,1.038671 9.700228,-1.703406 11.092384,1.37103 2.335246,-1.495671 0.76344,-5.691896 5.344102,-8.807903 1.257441,-5.567253 -6.870994,-4.777868 -9.0266,0.04153 -5.299197,0.955574 z"
       id="path4164"
       inkscape:connector-curvature="0" />
    <path
       style="fill:none;stroke:#000000;stroke-width:1.8141849;stroke-linecap:butt;stroke-linejoin:miter;stroke-miterlimit:4;stroke-opacity:1;stroke-dasharray:none"
       d="m 43.707822,56.014667 -24.220123,0 c 1.527585,-3.856504 0.75628,-8.264915 0.75628,-8.264915 11.912909,-3.80717 23.491714,-0.07408 23.491714,-0.07408 1.032222,-6.23641 6.600871,-14.878124 6.600871,-14.878124 4.850114,-8.309338 -1.886153,-10.552856 -1.886153,-10.552856 -6.466816,-3.57301 -16.526314,0.08312 -16.526314,0.08312"
       id="path2985-6-3"
       inkscape:connector-curvature="0"
       sodipodi:nodetypes="ccccccc" />
    <path
       style="fill:none;stroke:#000000;stroke-width:1.8141849;stroke-linecap:butt;stroke-linejoin:miter;stroke-miterlimit:4;stroke-opacity:1;stroke-dasharray:none"
       d="m 20.291703,56.014675 24.220121,0 C 42.003412,51.646682 43.592073,47.711872 43.592073,47.711872 31.679156,43.904702 20.263829,47.675699 20.263829,47.675699 19.231598,41.43928 13.66295,32.797574 13.66295,32.797574 8.8128359,24.488237 15.549113,22.244711 15.549113,22.244711 c 6.466816,-3.573002 16.526306,0.08312 16.526306,0.08312"
       id="path2985-6-3-4"
       inkscape:connector-curvature="0"
       sodipodi:nodetypes="ccccccc" />
    <path
       style="fill:#ffffff;fill-opacity:1;stroke:#000000;stroke-width:0.06047283px;stroke-linecap:butt;stroke-linejoin:miter;stroke-opacity:1"
       d="m 32.202921,17.001057 -3.651835,2.394302 0.444573,2.937789 1.984694,2.497128 3.143749,0.02941 2.064078,-3.319708 -1.111419,-3.12875 z"
       id="path4722"
       inkscape:connector-curvature="0" />
    <path
       style="fill:none;stroke:#000000;stroke-width:0.0560101px;stroke-linecap:butt;stroke-linejoin:miter;stroke-opacity:1"
       d="m 30.107938,26.939563 -7.204136,-1.08021 -3.159031,3.15754 0.693448,4.403953 3.50575,3.739206 2.61969,2.285065 2.735259,-2.118887 1.502463,-6.605914 z"
       id="path4162"
       inkscape:connector-curvature="0" />
    <path
       style="fill:none;stroke:#000000;stroke-width:1.63975334;stroke-linecap:butt;stroke-linejoin:miter;stroke-miterlimit:4;stroke-opacity:1;stroke-dasharray:none"
       d="m 31.952123,16.933828 c 0,0 -3.1265,-0.213467 -3.743344,3.392175 0,0 0.126147,1.374298 1.466343,3.099959 0,0 0.905095,1.167945 0.707199,4.202385 0,0 0.661642,9.723555 -3.853297,12.402776 -3.859542,-2.9304 -5.352385,-6.028245 -5.352385,-6.028245 -3.786725,-6.57245 1.711302,-8.121382 1.711302,-8.121382 5.425209,-0.920982 7.500627,1.63265 7.500627,1.63265"
       id="path3142"
       inkscape:connector-curvature="0"
       sodipodi:nodetypes="cccccccc" />
    <path
       style="fill:none;stroke:#000000;stroke-width:1.8141849;stroke-linecap:butt;stroke-linejoin:miter;stroke-miterlimit:4;stroke-opacity:1;stroke-dasharray:none"
       d="m 20.54881,53.13592 23.117695,0"
       id="path3202"
       inkscape:connector-curvature="0" />
    <path
       style="fill:none;stroke:#000000;stroke-width:1.79832256;stroke-linecap:butt;stroke-linejoin:miter;stroke-miterlimit:4;stroke-opacity:1;stroke-dasharray:none"
       d="m 28.092602,10.325175 8.206179,0"
       id="path3974"
       inkscape:connector-curvature="0" />
    <path
       style="fill:#000000;fill-opacity:1;stroke:#000000;stroke-width:0.05132282px;stroke-linecap:butt;stroke-linejoin:miter;stroke-opacity:1"
       d="m 42.592466,53.064689 c -1.310243,-2.118033 -3.044655,-2.78967 -3.044655,-2.78967 0,0 1.751065,-0.296611 3.061317,-2.414637"
       id="path5518-5-82"
       inkscape:connector-curvature="0"
       sodipodi:nodetypes="ccc" />
    <path
       style="fill:#000000;fill-opacity:1;stroke:#000000;stroke-width:0.05132282px;stroke-linecap:butt;stroke-linejoin:miter;stroke-opacity:1"
       d="m 21.189119,53.064696 c 1.310252,-2.118031 3.044665,-2.789668 3.044665,-2.789668 0,0 -1.751073,-0.296612 -3.061316,-2.414637"
       id="path5518-5-82-2"
       inkscape:connector-curvature="0"
       sodipodi:nodetypes="ccc" />
    <path
       style="fill:#000000;fill-opacity:1;stroke:#000000;stroke-width:0.00984231;stroke-miterlimit:4;stroke-opacity:1;stroke-dasharray:none"
       d="m 31.883592,46.261224 c -0.0505,0.0569 -0.01618,0.152193 -0.02616,0.226317 0,2.003214 0,4.006432 0,6.009649 0.0053,0.07711 0.08703,0.06984 0.110645,0.01011 0.349695,-0.466048 0.733142,-0.890661 1.143989,-1.27629 0.736391,-0.697419 1.544461,-1.27826 2.394603,-1.746959 0.05288,-0.01251 0.07323,-0.105398 0.01839,-0.132401 -0.343894,-0.190022 -0.684303,-0.391033 -1.011465,-0.62121 -0.689362,-0.481665 -1.347614,-1.039431 -1.938472,-1.685912 -0.220176,-0.250108 -0.432305,-0.511096 -0.63883,-0.776044 -0.01636,-0.01812 -0.03308,-0.01203 -0.05271,-0.0067 z"
       id="path5768"
       inkscape:connector-curvature="0" />
    <path
       style="fill:#000000;fill-opacity:1;stroke:#000000;stroke-width:0.00984231;stroke-miterlimit:4;stroke-opacity:1;stroke-dasharray:none"
       d="m 31.965524,46.261249 c 0.0505,0.05689 0.01618,0.152193 0.02618,0.226325 0,2.003206 0,4.006424 0,6.009632 -0.0062,0.07711 -0.08702,0.06993 -0.110646,0.01011 -0.349704,-0.466049 -0.733155,-0.890662 -1.143999,-1.27629 -0.73639,-0.69742 -1.544452,-1.27826 -2.394592,-1.746951 -0.05288,-0.01252 -0.07323,-0.105406 -0.01839,-0.132409 0.343889,-0.190022 0.684296,-0.391033 1.011458,-0.621201 0.689371,-0.481675 1.347612,-1.03944 1.93848,-1.685921 0.22017,-0.25011 0.432299,-0.511097 0.638831,-0.776044 0.01636,-0.01812 0.03308,-0.01202 0.05272,-0.0067 z"
       id="path5768-0"
       inkscape:connector-curvature="0" />
    <path
       style="fill:none;stroke:#000000;stroke-width:0.0569192px;stroke-linecap:butt;stroke-linejoin:miter;stroke-opacity:1"
       d="m 33.450986,27.313479 7.002251,-1.828057 4.217272,3.115999 -0.636569,4.653234 -4.654907,5.941171 -2.466709,0.664753 -2.824771,-5.068697 z"
       id="path4166"
       inkscape:connector-curvature="0" />
    <path
       style="fill:none;stroke:#000000;stroke-width:1.64120007;stroke-linecap:butt;stroke-linejoin:miter;stroke-miterlimit:4;stroke-opacity:1;stroke-dasharray:none"
       d="m 32.0526,16.861584 c 0,0 3.234434,-0.140189 3.852415,3.465135 0,0 -0.12638,1.374179 -1.469051,3.099692 0,0 -0.906772,1.167844 -0.708515,4.202024 0,0 -0.662868,9.722721 3.860435,12.401715 3.866688,-2.930141 5.362295,-6.02773 5.362295,-6.02773 3.793726,-6.571886 -1.714477,-8.120685 -1.714477,-8.120685 -5.435254,-0.920903 -7.514511,1.632511 -7.514511,1.632511"
       id="path3142-1"
       inkscape:connector-curvature="0"
       sodipodi:nodetypes="cccccccc" />
    <path
       style="fill:none;stroke:#000000;stroke-width:1.83052731;stroke-linecap:butt;stroke-linejoin:miter;stroke-miterlimit:4;stroke-opacity:1;stroke-dasharray:none"
       d="m 32.195689,17.75709 0,-11.9284443"
       id="path3204"
       inkscape:connector-curvature="0"
       sodipodi:nodetypes="cc" />
    <path
       style="fill:#ffffff;stroke:#ffffff;stroke-width:0.08194192px;stroke-linecap:butt;stroke-linejoin:miter;stroke-opacity:1"
       d="m 33.010876,24.828898 -0.03033,0.0508 -1.855986,-0.0256 -0.02349,-0.04893 z"
       id="path4724"
       inkscape:connector-curvature="0"
       sodipodi:nodetypes="ccccc" />
  </g>
</svg>
