<?xml version="1.0" encoding="UTF-8" standalone="no"?>
<!-- Created with Inkscape (http://www.inkscape.org/) -->

<svg
   xmlns:dc="http://purl.org/dc/elements/1.1/"
   xmlns:cc="http://creativecommons.org/ns#"
   xmlns:rdf="http://www.w3.org/1999/02/22-rdf-syntax-ns#"
   xmlns:svg="http://www.w3.org/2000/svg"
   xmlns="http://www.w3.org/2000/svg"
   xmlns:sodipodi="http://sodipodi.sourceforge.net/DTD/sodipodi-0.dtd"
   xmlns:inkscape="http://www.inkscape.org/namespaces/inkscape"
   width="64px"
   height="64px"
   id="svg4272"
   version="1.1"
   inkscape:version="0.48.5 r10040"
   sodipodi:docname="black_rook.svg">
  <defs
     id="defs4274" />
  <sodipodi:namedview
     id="base"
     pagecolor="#ffffff"
     bordercolor="#666666"
     borderopacity="1.0"
     inkscape:pageopacity="0.0"
     inkscape:pageshadow="2"
     inkscape:zoom="7.7781745"
     inkscape:cx="29.557267"
     inkscape:cy="14.936771"
     inkscape:current-layer="layer1"
     showgrid="true"
     inkscape:document-units="px"
     inkscape:grid-bbox="true"
     inkscape:window-width="1920"
     inkscape:window-height="1018"
     inkscape:window-x="0"
     inkscape:window-y="27"
     inkscape:window-maximized="1" />
  <metadata
     id="metadata4277">
    <rdf:RDF>
      <cc:Work
         rdf:about="">
        <dc:format>image/svg+xml</dc:format>
        <dc:type
           rdf:resource="http://purl.org/dc/dcmitype/StillImage" />
        <dc:title />
      </cc:Work>
    </rdf:RDF>
  </metadata>
  <g
     id="layer1"
     inkscape:label="Layer 1"
     inkscape:groupmode="layer">
    <path
       style="fill:#ffffff;fill-opacity:1;stroke:#000000;stroke-width:0.05337796px;stroke-linecap:butt;stroke-linejoin:miter;stroke-opacity:1"
       d="m 21.495298,46.507074 22.134914,0 1.780977,3.165143 -26.07849,-0.202894 z"
       id="path5469"
       inkscape:connector-curvature="0" />
    <path
       style="fill:#ffffff;fill-opacity:1;stroke:#000000;stroke-width:0.05337796px;stroke-linecap:butt;stroke-linejoin:miter;stroke-opacity:1"
       d="m 19.968758,15.951321 25.357616,0.0406 -2.1626,3.895561 -21.668476,-0.730426 z"
       id="path5467"
       inkscape:connector-curvature="0" />
    <path
       style="fill:none;stroke:#000000;stroke-width:1.97536802;stroke-linecap:butt;stroke-linejoin:miter;stroke-miterlimit:4;stroke-opacity:1;stroke-dasharray:none"
       d="m 15.181684,52.840952 33.634041,0 0.0097,3.081364 -32.682407,0 0.0024,-3.863479"
       id="path2985"
       inkscape:connector-curvature="0"
       sodipodi:nodetypes="ccccc" />
    <path
       style="fill:none;stroke:#000000;stroke-width:1.97536802;stroke-linecap:butt;stroke-linejoin:miter;stroke-miterlimit:4;stroke-opacity:1;stroke-dasharray:none"
       d="m 19.710944,52.833478 0.0091,-2.729249 26.058973,-0.373973 m 0,0 -0.909405,-1.461972 m 0,0 -1.019921,-1.639612 -22.316785,0.0095"
       id="path3024-5"
       inkscape:connector-curvature="0"
       sodipodi:nodetypes="cccccccc" />
    <path
       style="fill:none;stroke:#000000;stroke-width:1.97513628;stroke-linecap:butt;stroke-linejoin:miter;stroke-miterlimit:4;stroke-opacity:1;stroke-dasharray:none"
       d="m 45.570423,52.827002 0.02532,-2.722758 -26.024309,-0.373988 m 0,0 0.909158,-1.462027 m 0,0 1.019642,-1.639675"
       id="path3024-5-2"
       inkscape:connector-curvature="0"
       sodipodi:nodetypes="ccccccc" />
    <path
       style="fill:none;stroke:#000000;stroke-width:1.97536802;stroke-linecap:butt;stroke-linejoin:miter;stroke-miterlimit:4;stroke-opacity:1;stroke-dasharray:none"
       d="m 45.596705,8.4996788 -0.0081,7.3317522 -25.762727,-7e-6 -0.0056,-3.187663 -0.0024,-3.1876662 5.160997,0 0,3.1876662 5.152553,0 0,-3.1876662 5.152552,0 0,3.1876662 5.152559,0 0,-3.1876662 5.934697,0.026608"
       id="path2985-7"
       inkscape:connector-curvature="0"
       sodipodi:nodetypes="cccccccccccccc" />
    <path
       style="fill:none;stroke:#000000;stroke-width:1.60133886;stroke-linecap:butt;stroke-linejoin:miter;stroke-miterlimit:4;stroke-opacity:1;stroke-dasharray:none"
       d="m 45.726957,16.218279 -0.909413,1.461972 m 0,0 -1.019922,1.639627 -22.268068,-0.0095"
       id="path3024-5-25"
       inkscape:connector-curvature="0"
       sodipodi:nodetypes="ccccc" />
    <path
       style="fill:none;stroke:#000000;stroke-width:1.97536802;stroke-linecap:butt;stroke-linejoin:miter;stroke-miterlimit:4;stroke-opacity:1;stroke-dasharray:none"
       d="m 19.629275,16.1587 0.909412,1.461966 m 0,0 1.019914,1.639627 c 5.672365,12.362297 -0.567203,27.427881 -0.09328,27.427881"
       id="path3024-5-25-0-0-1"
       inkscape:connector-curvature="0"
       sodipodi:nodetypes="ccccc" />
    <path
       style="fill:none;stroke:#000000;stroke-width:1.97536802;stroke-linecap:butt;stroke-linejoin:miter;stroke-miterlimit:4;stroke-opacity:1;stroke-dasharray:none"
       d="m 45.69599,16.262827 -0.909412,1.46197 m 0,0 -1.019915,1.63962 c -5.672363,12.362291 0.499569,27.460241 0.02565,27.460241"
       id="path3024-5-25-0-0-1-4"
       inkscape:connector-curvature="0"
       sodipodi:nodetypes="ccccc" />
    <path
       style="fill:#000000;stroke-width:30;stroke-miterlimit:4;stroke-dasharray:none"
       d="m 28.891346,19.968484 c -2.024585,0.01833 -4.056444,-0.0242 -6.076623,0.05255 -0.215138,0.297721 0.148318,0.673174 0.190766,0.998163 1.735161,4.863486 1.886324,10.126772 1.32469,15.207083 -0.365546,3.233639 -1.123749,6.405337 -1.974113,9.550835 0.131556,0.391762 0.76252,0.108194 1.10542,0.194168 6.419727,0 12.839457,0 19.259185,0 0.349107,-0.151779 -0.01897,-0.578828 -0.02324,-0.8495 -1.66812,-6.191967 -2.588498,-12.701342 -1.613251,-19.084769 0.312993,-1.979021 0.858765,-3.928915 1.549846,-5.817773 -0.101594,-0.335359 -0.633832,-0.166246 -0.908809,-0.227834 -4.277564,-0.04731 -8.556041,-0.02234 -12.833861,-0.02296 z"
       id="path3099"
       inkscape:connector-curvature="0" />
    <path
       style="fill:#000000;stroke-width:30;stroke-miterlimit:4;stroke-dasharray:none"
       d="m 20.400983,10.174945 c -0.09808,1.067433 -0.01472,2.166547 -0.0423,3.246302 0.03352,0.563795 -0.06736,1.15357 0.05073,1.701023 1.104148,0.09407 2.241531,0.01379 3.35852,0.04045 7.034082,0 14.068165,0 21.102247,0 0.340658,-0.219409 0.08203,-0.770545 0.162748,-1.126607 -0.01768,-1.269489 0.03522,-2.552626 -0.02628,-3.813641 -0.315415,-0.212633 -0.82652,-0.04045 -1.218668,-0.09608 -0.853155,0.01679 -1.72058,-0.03382 -2.564848,0.02511 -0.222188,0.301838 -0.04221,0.790945 -0.100407,1.166212 0,0.660049 0,1.320094 0,1.980147 -2.168559,0 -4.337117,0 -6.505677,0 -0.01792,-1.023353 0.03529,-2.060466 -0.02629,-3.075378 -0.315414,-0.212641 -0.826526,-0.04045 -1.218668,-0.09609 -0.848579,0.03135 -1.723767,-0.06334 -2.555352,0.04853 -0.09823,1.026284 -0.01422,2.084395 -0.0423,3.122929 -2.191106,0 -4.382209,0 -6.573316,0 -0.01794,-1.023353 0.03529,-2.060466 -0.0262,-3.075386 -0.315414,-0.212633 -0.826527,-0.04045 -1.218669,-0.09608 -0.847484,0.03134 -1.725383,-0.06335 -2.555353,0.04853 z"
       id="path3101"
       inkscape:connector-curvature="0" />
    <path
       style="fill:#000000;stroke-width:30;stroke-miterlimit:4;stroke-dasharray:none"
       d="m 30.531494,50.619317 c -3.33969,0.02796 -6.680979,0.0416 -10.018492,0.165853 -0.324055,0.221733 -0.07725,0.742954 -0.154289,1.088173 -0.05885,0.513833 0.652799,0.24635 0.974369,0.311485 7.800622,0 15.601236,0 23.401858,0 0.338085,-0.207527 0.08392,-0.744065 0.162746,-1.088176 0.05723,-0.510896 -0.660911,-0.263705 -0.984941,-0.347885 -4.458158,-0.137339 -8.921181,-0.128988 -13.381251,-0.12945 z"
       id="path3103"
       inkscape:connector-curvature="0" />
    <path
       style="fill:#ffffff;stroke:#000000;stroke-width:0.05337796px;stroke-linecap:butt;stroke-linejoin:miter;stroke-opacity:1"
       d="m 20.984773,48.947444 c 0,3.30093 0,3.30093 0,3.30093"
       id="path3107"
       inkscape:connector-curvature="0" />
    <path
       style="fill:none;stroke:#fffffd;stroke-width:1.66491115;stroke-linecap:butt;stroke-linejoin:miter;stroke-miterlimit:4;stroke-opacity:1;stroke-dasharray:none"
       d="m 20.229464,51.642294 24.898334,-0.01618"
       id="path3891"
       inkscape:connector-curvature="0" />
    <path
       style="fill:none;stroke:none"
       d="m 21.033724,52.042911 23.243177,-0.01147"
       id="path3893"
       inkscape:connector-curvature="0" />
    <path
       style="fill:#000000;stroke:none"
       d="m 16.884444,53.518625 c -0.133982,0.138056 -0.04278,0.347156 -0.06945,0.517028 0.0096,0.379961 -0.01929,0.765638 0.01447,1.142023 0.06495,0.180815 0.309238,0.09199 0.46004,0.112985 10.234656,0 20.469302,0 30.703956,0 0.225292,-0.02667 0.153759,-0.280456 0.163648,-0.431209 -0.0048,-0.411177 0.0097,-0.825246 -0.0071,-1.234635 -0.04678,-0.204252 -0.311336,-0.11637 -0.467285,-0.13479 -10.234645,0 -20.469289,0 -30.703943,0 -0.03136,0.0095 -0.0628,0.01903 -0.09415,0.02858 z"
       id="path3895"
       inkscape:connector-curvature="0" />
    <path
       style="fill:none;stroke:#ffffff;stroke-width:1.66491115;stroke-linecap:butt;stroke-linejoin:miter;stroke-miterlimit:4;stroke-opacity:1;stroke-dasharray:none"
       d="m 20.390652,14.451166 24.550462,-0.01618"
       id="path3891-2"
       inkscape:connector-curvature="0" />
    <path
       style="fill:none;stroke:#ffffff;stroke-width:1.66491115;stroke-linecap:butt;stroke-linejoin:miter;stroke-miterlimit:4;stroke-opacity:1;stroke-dasharray:none"
       d="m 42.419205,44.783169 -19.537297,0"
       id="path3915-9"
       inkscape:connector-curvature="0" />
  </g>
</svg>
