<?xml version="1.0" encoding="UTF-8" standalone="no"?>
<!-- Created with Inkscape (http://www.inkscape.org/) -->

<svg
   xmlns:dc="http://purl.org/dc/elements/1.1/"
   xmlns:cc="http://creativecommons.org/ns#"
   xmlns:rdf="http://www.w3.org/1999/02/22-rdf-syntax-ns#"
   xmlns:svg="http://www.w3.org/2000/svg"
   xmlns="http://www.w3.org/2000/svg"
   xmlns:sodipodi="http://sodipodi.sourceforge.net/DTD/sodipodi-0.dtd"
   xmlns:inkscape="http://www.inkscape.org/namespaces/inkscape"
   width="64px"
   height="64px"
   id="svg3183"
   version="1.1"
   inkscape:version="0.48.5 r10040"
   sodipodi:docname="black_bishop.svg">
  <defs
     id="defs3185" />
  <sodipodi:namedview
     id="base"
     pagecolor="#ffffff"
     bordercolor="#666666"
     borderopacity="1.0"
     inkscape:pageopacity="0.0"
     inkscape:pageshadow="2"
     inkscape:zoom="15.556349"
     inkscape:cx="31.356163"
     inkscape:cy="40.778959"
     inkscape:current-layer="layer1"
     showgrid="true"
     inkscape:document-units="px"
     inkscape:grid-bbox="true"
     inkscape:window-width="613"
     inkscape:window-height="876"
     inkscape:window-x="35"
     inkscape:window-y="62"
     inkscape:window-maximized="0" />
  <metadata
     id="metadata3188">
    <rdf:RDF>
      <cc:Work
         rdf:about="">
        <dc:format>image/svg+xml</dc:format>
        <dc:type
           rdf:resource="http://purl.org/dc/dcmitype/StillImage" />
        <dc:title />
      </cc:Work>
    </rdf:RDF>
  </metadata>
  <g
     id="layer1"
     inkscape:label="Layer 1"
     inkscape:groupmode="layer">
    <path
       style="fill:#000000;stroke:#000000;stroke-width:2.01318884000000020;stroke-linecap:butt;stroke-linejoin:miter;stroke-miterlimit:4;stroke-opacity:1;stroke-dasharray:none;fill-opacity:1"
       d="m 36.81952,38.195415 c 5.556,0 7.176501,-4.834246 7.176501,-4.834246 2.129802,-5.919479 -4.642832,-13.010733 -6.5746,-14.897362 -3.333604,-3.255722 -5.366768,-6.122973 -5.366768,-6.122973 0,0 -2.033164,2.854921 -5.366768,6.110634 -1.931768,1.886638 -8.704401,8.97789 -6.5746,14.897371 0,0 1.620502,4.834245 7.176502,4.834245"
       id="path3027-8"
       inkscape:connector-curvature="0"
       sodipodi:nodetypes="ccscscc" />
    <path
       style="fill:#ffffff;fill-opacity:1;stroke:#000000;stroke-width:2.01318884;stroke-linecap:butt;stroke-linejoin:miter;stroke-miterlimit:4;stroke-opacity:1;stroke-dasharray:none"
       d="m 40.390127,47.546879 c 0,0 -1.752271,-0.467789 -4.473726,-0.715082 -3.196216,-0.290432 -7.729272,-0.296551 -12.330616,0.822466 2.546499,-3.601021 4.444806,-12.48025 4.444806,-12.48025 l 4.028075,0 4.835389,0.04489"
       id="path2985"
       inkscape:connector-curvature="0"
       sodipodi:nodetypes="cscccc" />
    <path
       style="fill:none;stroke:#000000;stroke-width:2.01318884;stroke-linecap:butt;stroke-linejoin:miter;stroke-miterlimit:4;stroke-opacity:1;stroke-dasharray:none"
       d="m 23.581328,47.656007 c 0,0 1.734613,-0.477935 4.426383,-0.767421 3.234492,-0.347859 7.851034,-0.439095 12.500733,0.691685 -2.546499,-3.601022 -4.534498,-13.127797 -4.534498,-13.127797"
       id="path2985-9"
       inkscape:connector-curvature="0"
       sodipodi:nodetypes="cscc" />
    <path
       style="fill:none;stroke:#000000;stroke-width:2.01318884;stroke-linecap:butt;stroke-linejoin:miter;stroke-miterlimit:4;stroke-opacity:1;stroke-dasharray:none"
       d="m 25.715586,43.266216 c 5.972706,-1.603201 12.68592,0.0072 12.68592,0.0072"
       id="path3856"
       inkscape:connector-curvature="0"
       sodipodi:nodetypes="cc" />
    <path
       style="fill:#000000;stroke:#000000;stroke-width:2.01318884;stroke-linecap:butt;stroke-linejoin:miter;stroke-miterlimit:4;stroke-opacity:1;stroke-dasharray:none"
       d="m 26.960191,39.405242 c 4.955348,-1.498553 10.184844,0.008 10.184844,0.008"
       id="path3858"
       inkscape:connector-curvature="0"
       sodipodi:nodetypes="cc" />
    <path
       style="fill:none;stroke:#000000;stroke-width:2.01318884;stroke-linecap:butt;stroke-linejoin:miter;stroke-miterlimit:4;stroke-opacity:1;stroke-dasharray:none"
       d="m 32.028941,47.134126 c -0.02239,4.023633 -2.001929,6.017894 -2.001929,6.017894 -3.742072,5.452522 -9.133188,1.077823 -9.133188,1.077823 -5.581397,-3.867486 -8.308007,0.951572 -8.308007,0.951572"
       id="path3868"
       inkscape:connector-curvature="0"
       sodipodi:nodetypes="cccc" />
    <path
       style="fill:none;stroke:#000000;stroke-width:2.01318884;stroke-linecap:butt;stroke-linejoin:miter;stroke-miterlimit:4;stroke-opacity:1;stroke-dasharray:none"
       d="m 30.185574,47.255688 c -1.395349,6.65715 -4.222755,7.808735 -6.469343,5.452515 -3.868923,-4.057686 -8.194565,-3.458942 -8.194565,-3.458942 -3.99577,0.570611 -5.015072,2.902401 -5.015072,2.902401 l 3.273142,3.100841"
       id="path3870"
       inkscape:connector-curvature="0"
       sodipodi:nodetypes="csccc" />
    <path
       style="fill:none;stroke:#000000;stroke-width:2.01318884;stroke-linecap:butt;stroke-linejoin:miter;stroke-miterlimit:4;stroke-opacity:1;stroke-dasharray:none"
       d="m 32.003879,47.212031 c 0.02239,4.023633 2.001936,6.017894 2.001936,6.017894 3.742071,5.452522 9.133188,1.077824 9.133188,1.077824 5.58139,-3.867488 8.263148,0.92915 8.263148,0.92915"
       id="path3868-9"
       inkscape:connector-curvature="0"
       sodipodi:nodetypes="cccc" />
    <path
       style="fill:none;stroke:#000000;stroke-width:2.01318884;stroke-linecap:butt;stroke-linejoin:miter;stroke-miterlimit:4;stroke-opacity:1;stroke-dasharray:none"
       d="m 33.814419,47.277861 c 1.39535,6.65715 4.222755,7.808726 6.469343,5.452516 3.868924,-4.057687 8.194565,-3.458943 8.194565,-3.458943 3.995771,0.570602 5.015079,2.9024 5.015079,2.9024 l -3.317991,3.100841"
       id="path3870-9"
       inkscape:connector-curvature="0"
       sodipodi:nodetypes="csccc" />
    <path
       sodipodi:type="arc"
       style="fill:#000000;stroke:#000000;stroke-width:32.06948853;stroke-miterlimit:4;stroke-opacity:1;stroke-dasharray:none"
       id="path4483"
       sodipodi:cx="-515"
       sodipodi:cy="543.07648"
       sodipodi:rx="34.999996"
       sodipodi:ry="33.571423"
       d="m -480,543.07648 a 34.999996,33.571423 0 1 1 -70,0 34.999996,33.571423 0 1 1 70,0 z"
       transform="matrix(0.06060572,0,0,0.06318999,63.198,-24.18842)" />
    <path
       sodipodi:type="arc"
       style="fill:#ffffff;stroke:#ffffff;stroke-width:43.52287674;stroke-miterlimit:4;stroke-opacity:1;stroke-dasharray:none"
       id="path4485"
       sodipodi:cx="-599.28571"
       sodipodi:cy="185.93361"
       sodipodi:rx="12.142858"
       sodipodi:ry="12.142858"
       d="m -587.14285,185.93361 a 12.142858,12.142858 0 1 1 -24.28571,0 12.142858,12.142858 0 1 1 24.28571,0 z"
       transform="matrix(0.04626445,0,0,0.0462473,59.80233,1.3503165)" />
    <path
       style="fill:#000000;stroke:#000000;stroke-width:2.01318884;stroke-miterlimit:4;stroke-opacity:1;stroke-dasharray:none"
       d="m 31.913133,8.5707792 c -0.906705,0.062254 -1.522903,1.1733644 -1.08417,1.9832738 0.36901,0.862017 1.644623,1.070678 2.25753,0.348715 0.784189,-0.726171 0.272162,-2.2262057 -0.784889,-2.324059 -0.129084,-0.0099 -0.259068,-0.012873 -0.388471,-0.008 z"
       id="path4587"
       inkscape:connector-curvature="0" />
    <path
       style="fill:none;stroke:#ffffff;stroke-width:2.01318884;stroke-linecap:butt;stroke-linejoin:miter;stroke-miterlimit:4;stroke-opacity:1;stroke-dasharray:none"
       d="m 28.537785,23.393406 3.537616,0 3.517938,0"
       id="path3835"
       inkscape:connector-curvature="0"
       sodipodi:nodetypes="ccc" />
    <path
       style="fill:none;stroke:#ffffff;stroke-width:1.87511396;stroke-linecap:butt;stroke-linejoin:miter;stroke-miterlimit:4;stroke-opacity:1;stroke-dasharray:none"
       d="m 32.041771,19.470368 0,9.390161"
       id="path3065"
       inkscape:connector-curvature="0"
       sodipodi:nodetypes="cc" />
    <path
       style="fill:#000000;stroke:#000000;stroke-width:2.01318884;stroke-miterlimit:4;stroke-opacity:1;stroke-dasharray:none"
       d="m 15.922122,50.013514 c -1.550637,0.149623 -3.156873,0.700542 -4.231631,1.870337 -0.147444,0.341969 0.320343,0.533043 0.493519,0.764789 0.29105,0.226936 0.515908,0.56192 0.854262,0.71128 0.685347,-0.453434 1.381387,-0.969409 2.194105,-1.176885 1.975613,-0.59684 4.102754,0.06154 5.767851,1.182943 1.33283,0.893584 2.827794,1.779438 4.499059,1.711721 0.272705,-0.04129 0.739098,0.102573 0.824519,-0.239733 -0.183983,-0.322901 -0.670061,-0.179614 -0.987049,-0.297193 -1.420898,-0.236209 -2.280371,-1.492248 -3.348865,-2.320945 -1.698137,-1.373536 -3.865123,-2.242907 -6.06577,-2.206314 z"
       id="path4601"
       inkscape:connector-curvature="0" />
    <path
       style="fill:#000000;stroke:#000000;stroke-width:2.01318884;stroke-miterlimit:4;stroke-opacity:1;stroke-dasharray:none"
       d="m 47.569178,50.057107 c -2.47446,0.08102 -4.801281,1.315153 -6.530786,3.037324 -0.832935,0.884911 -1.962999,1.660228 -3.230707,1.50974 -0.22139,-0.07378 -0.643899,0.0733 -0.430103,0.352668 0.667744,0.273667 1.442838,0.252733 2.148522,0.13275 1.36219,-0.229179 2.529008,-0.998704 3.658825,-1.74552 1.277382,-0.802716 2.740557,-1.385473 4.27127,-1.303689 1.235838,0.03104 2.423384,0.536348 3.37341,1.321516 0.375451,0.08069 0.577238,-0.426161 0.870111,-0.600329 0.189315,-0.278635 0.750694,-0.458826 0.647389,-0.838011 C 51.426738,50.940313 50.116673,50.363188 48.8008,50.1363 48.393513,50.07341 47.981597,50.04527 47.569178,50.05716 z"
       id="path4603"
       inkscape:connector-curvature="0" />
    <path
       style="fill:#000000;stroke:#000000;stroke-width:2.01318884;stroke-miterlimit:4;stroke-opacity:1;stroke-dasharray:none"
       d="m 30.927381,47.78193 c -0.149143,0.135133 -0.140336,0.376193 -0.208129,0.560504 -0.34861,1.415465 -0.829741,2.813621 -1.584393,4.069755 -0.110557,0.149584 0.06806,0.377457 0.245266,0.287206 0.192623,-0.146288 0.315459,-0.368375 0.462496,-0.557592 0.833255,-1.229248 1.256026,-2.70298 1.379779,-4.173536 0.0125,-0.152272 -0.160364,-0.268851 -0.295019,-0.186337 z"
       id="path4607"
       inkscape:connector-curvature="0" />
    <path
       style="fill:#000000;stroke:#000000;stroke-width:2.01318884;stroke-miterlimit:4;stroke-opacity:1;stroke-dasharray:none"
       d="m 27.795373,53.940357 c -0.09012,0.02544 -0.162307,0.09746 -0.244739,0.143591 -0.134457,0.08656 -0.276404,0.16029 -0.419051,0.232393 -0.08423,0.04913 -0.118214,0.16426 -0.07268,0.250863 0.03778,0.08112 0.133348,0.134038 0.22088,0.114961 0.08807,-0.02408 0.165042,-0.08199 0.245619,-0.125204 0.149149,-0.08949 0.298507,-0.180727 0.434094,-0.289903 0.07427,-0.06392 0.08615,-0.190464 0.01745,-0.264688 -0.04295,-0.05256 -0.115648,-0.07434 -0.181587,-0.06209 z"
       id="path4609"
       inkscape:connector-curvature="0" />
    <path
       style="fill:#000000;stroke:#000000;stroke-width:2.01318884;stroke-miterlimit:4;stroke-opacity:1;stroke-dasharray:none"
       id="path4613"
       d="m 29.331243,52.600325 c -0.0216,0.03248 -0.0412,0.06618 -0.05746,0.101702 -0.01116,0.02656 -0.02239,0.05313 -0.03196,0.08042 -0.0082,0.02624 -0.01761,0.05208 -0.02638,0.07802 -0.0016,0.01176 -0.0072,0.02104 -0.01267,0.03129 -0.0056,0.0104 -0.0097,0.02144 -0.01514,0.03185 -0.01498,0.02968 -0.02917,0.05969 -0.04399,0.08943 -0.01403,0.032 -0.02598,0.06497 -0.04072,0.09667 -0.01498,0.03184 -0.03092,0.06338 -0.04678,0.09487 -0.02183,0.04952 -0.0526,0.09381 -0.08497,0.136844 -0.04192,0.05168 -0.08611,0.101502 -0.130924,0.150672 -0.0263,0.02865 -0.05236,0.05753 -0.08096,0.08384 -0.004,0.0032 -0.0072,0.0072 -0.01124,0.0098 -0.01028,0.008 -0.01881,0.01297 -0.02965,0.02032 -0.01992,0.0136 -0.03969,0.02745 -0.05913,0.04169 -0.03921,0.02792 -0.07555,0.05938 -0.111969,0.09072 -0.0306,0.02544 -0.0612,0.05089 -0.09298,0.0749 -0.004,0.0024 -0.0072,0.0064 -0.01092,0.0088 -0.159678,0.09061 -0.315132,0.189361 -0.480076,0.270002 -0.0099,0.0056 -0.01721,-0.01456 -0.02223,-0.02439 -0.0064,-0.01184 -0.0099,-0.02536 -0.0099,-0.03873 -1.6e-5,-0.02088 0.01953,-0.05153 0.02837,-0.06802 0.04909,-0.07746 0.11156,-0.144558 0.176045,-0.209173 0.05985,-0.05465 0.116254,-0.112856 0.174581,-0.169084 0.03483,-0.03408 0.06686,-0.07066 0.09916,-0.107063 0.02765,-0.0328 0.05809,-0.06305 0.087,-0.09474 0.03769,-0.04281 0.0675,-0.0916 0.09434,-0.14171 0.01187,-0.02096 0.02256,-0.04305 0.03706,-0.06233 0.0048,-0.0064 0.01681,-0.02008 0.02144,-0.02544 0.03227,-0.03209 0.06072,-0.06698 0.08488,-0.105511 0.01514,-0.0272 0.03036,-0.05441 0.0471,-0.08068 0.0099,-0.01656 0.02112,-0.032 0.03331,-0.04697 0.01084,-0.01328 0.0048,-0.0098 0.0149,-0.01384 0.0032,0.01008 0.008,0.02 0.01036,0.03024 0.04901,0.180367 -0.18651,0.12906 0.420836,-0.208404 0.01841,-0.01016 -0.03467,0.02392 -0.05156,0.03657 -0.04256,0.03169 -0.07037,0.05529 -0.111505,0.08911 -0.08129,0.06722 -0.160666,0.136869 -0.235248,0.211518 -0.04812,0.04809 -0.0573,0.05951 -0.102739,0.109679 -0.103225,0.115674 -0.191021,0.243428 -0.275485,0.373048 -0.05228,0.0826 -0.101456,0.167819 -0.136823,0.259176 -0.0097,0.02848 -0.0056,0.01504 -0.01275,0.04041 0,0 -0.486332,0.226048 -0.486332,0.226048 l 0,0 c 0.01411,-0.03144 0.0064,-0.01488 0.02319,-0.04937 0.01458,-0.028 0.02207,-0.04353 0.03897,-0.0713 0.0092,-0.01496 0.01905,-0.02944 0.02853,-0.04416 0.03666,-0.05714 0.07284,-0.114745 0.11124,-0.170781 0.08618,-0.129389 0.171242,-0.260167 0.271756,-0.37909 0.01697,-0.01913 0.03355,-0.03864 0.051,-0.05753 0.08745,-0.09462 0.182581,-0.181926 0.27892,-0.267321 0.03172,-0.02817 0.06383,-0.05593 0.0954,-0.08436 0.01187,-0.01073 0.02159,-0.02425 0.03522,-0.03265 0.158721,-0.09806 0.315881,-0.199346 0.480978,-0.286261 0.01347,-0.0072 0.03235,6.32e-4 0.04463,0.0096 0.0114,0.008 0.01315,0.02481 0.01968,0.0372 -7.94e-4,0.0064 -7.94e-4,0.01232 -0.0032,0.01784 -0.0016,0.004 -0.0064,0.0072 -0.0093,0.0108 -0.01156,0.01408 -0.02391,0.02737 -0.03499,0.04185 -0.01881,0.02785 -0.03826,0.05537 -0.05674,0.0834 -0.02327,0.03824 -0.04622,0.07707 -0.07523,0.111345 -0.02431,0.02672 -0.05021,0.05193 -0.07053,0.08199 -0.03172,0.04913 -0.06152,0.09941 -0.09252,0.149055 -0.0092,0.01328 -0.01697,0.02521 -0.02717,0.03753 -0.01729,0.02088 -0.03769,0.03896 -0.05539,0.05953 -0.0357,0.03697 -0.06925,0.07585 -0.105064,0.112678 -0.008,0.0072 -0.0149,0.01513 -0.02279,0.0221 -0.02008,0.01792 -0.04152,0.03424 -0.06176,0.05201 -0.02606,0.0228 -0.04941,0.04464 -0.07483,0.06833 -0.01242,0.01161 -0.02478,0.0232 -0.03722,0.03473 -0.05873,0.05898 -0.116341,0.119682 -0.163709,0.188416 -0.0048,0.008 -0.009,0.01521 -0.01339,0.02288 -0.0024,0.004 -0.0024,0.012 -0.0064,0.01248 -0.0048,4.4e-4 -0.0072,-0.0072 -0.01044,-0.01088 -0.004,-0.004 -0.004,-0.01808 -0.0095,-0.01528 -0.06168,0.03265 -0.6251,0.359612 -0.445706,0.25551 0.03379,-0.02312 0.06782,-0.046 0.09843,-0.07322 0.03905,-0.03049 0.07563,-0.06377 0.114917,-0.09394 0.02893,-0.02312 0.05706,-0.0477 0.08932,-0.06602 0.03522,-0.02552 0.06917,-0.05266 0.09972,-0.08384 0.0149,-0.01519 0.03028,-0.02984 0.04503,-0.0452 0.03148,-0.03257 0.06096,-0.06714 0.09043,-0.101462 0.02973,-0.03793 0.05666,-0.07794 0.07754,-0.121473 0.01403,-0.03096 0.02725,-0.06233 0.04176,-0.09316 0.0024,-0.0056 0.0048,-0.0098 0.0072,-0.01465 0.0024,-0.004 0.0064,-0.0092 0.0087,-0.01416 0.0024,-0.0056 0.0048,-0.01104 0.0072,-0.01656 0.0072,-0.01664 0.01578,-0.0328 0.02112,-0.05032 0.01116,-0.02993 0.0263,-0.05809 0.0373,-0.08809 0.004,-0.01064 0.01,-0.02056 0.01419,-0.03128 0.0016,-0.0032 0.0024,-0.008 0.004,-0.01096 7.73e-4,-0.0016 0.01068,-0.01592 0.01148,-0.01704 0.0072,-0.01664 0.01426,-0.03345 0.02008,-0.05065 0.0016,-0.004 0.0024,-0.0089 0.004,-0.01344 0.0016,-0.004 0.0032,-0.008 0.0048,-0.01224 0.009,-0.03096 0.01849,-0.06186 0.03578,-0.08948 0.0149,-0.03225 0.0298,-0.06441 0.04334,-0.09719 0,0 0.503005,-0.227488 0.503005,-0.227488 z"
       inkscape:connector-curvature="0" />
    <path
       style="fill:#000000;stroke:#000000;stroke-width:0.50000000000000000;stroke-linecap:butt;stroke-linejoin:miter;stroke-opacity:1;stroke-miterlimit:4;stroke-dasharray:none;fill-opacity:1"
       d="m 26.681819,40.227272 2.681818,-1.522727 5.295454,0.09091 2.636364,1.386364 1.318182,2.931818 L 31.318182,42.75 25.863637,43.272727 z"
       id="path4870"
       inkscape:connector-curvature="0" />
    <path
       style="fill:#000000;stroke:#000000;stroke-width:0.50000000000000000;stroke-linecap:butt;stroke-linejoin:miter;stroke-opacity:1;stroke-miterlimit:4;stroke-dasharray:none;fill-opacity:1"
       d="m 32.727273,48.5 0.886364,0.409091 1.431818,4.022727 -2.818182,-2.613636 z"
       id="path4872"
       inkscape:connector-curvature="0" />
  </g>
</svg>
