<?xml version="1.0" encoding="UTF-8" standalone="no"?>
<!-- Created with Inkscape (http://www.inkscape.org/) -->

<svg
   xmlns:dc="http://purl.org/dc/elements/1.1/"
   xmlns:cc="http://creativecommons.org/ns#"
   xmlns:rdf="http://www.w3.org/1999/02/22-rdf-syntax-ns#"
   xmlns:svg="http://www.w3.org/2000/svg"
   xmlns="http://www.w3.org/2000/svg"
   xmlns:sodipodi="http://sodipodi.sourceforge.net/DTD/sodipodi-0.dtd"
   xmlns:inkscape="http://www.inkscape.org/namespaces/inkscape"
   width="64px"
   height="64px"
   id="svg3008"
   version="1.1"
   inkscape:version="0.48.5 r10040"
   sodipodi:docname="white_pawn.svg">
  <defs
     id="defs3010" />
  <sodipodi:namedview
     id="base"
     pagecolor="#ffffff"
     bordercolor="#666666"
     borderopacity="1.0"
     inkscape:pageopacity="0.0"
     inkscape:pageshadow="2"
     inkscape:zoom="7.7781746"
     inkscape:cx="15.727273"
     inkscape:cy="32"
     inkscape:current-layer="layer1"
     showgrid="true"
     inkscape:document-units="px"
     inkscape:grid-bbox="true"
     inkscape:window-width="1920"
     inkscape:window-height="1018"
     inkscape:window-x="0"
     inkscape:window-y="27"
     inkscape:window-maximized="1" />
  <metadata
     id="metadata3013">
    <rdf:RDF>
      <cc:Work
         rdf:about="">
        <dc:format>image/svg+xml</dc:format>
        <dc:type
           rdf:resource="http://purl.org/dc/dcmitype/StillImage" />
        <dc:title />
      </cc:Work>
    </rdf:RDF>
  </metadata>
  <g
     id="layer1"
     inkscape:label="Layer 1"
     inkscape:groupmode="layer">
    <path
       style="fill:#ffffff;fill-opacity:1;stroke:#000000;stroke-width:0.0470774px;stroke-linecap:butt;stroke-linejoin:miter;stroke-opacity:1"
       d="m 24.778005,22.751187 0.48474,-5.120806 4.847349,-3.328525 5.67832,0.640101 3.808636,4.864774 -2.07744,5.632882 -2.14668,1.728277 5.539832,1.856288 3.046899,3.200503 -4.847351,-0.832131 -4.916597,0.512076 0.415493,10.881725 1.800444,5.760901 5.470576,2.432394 4.916597,0.83213 -0.55398,4.352689 -28.737857,-0.384069 -0.27699,-3.96862 6.578543,-1.664263 3.808629,-1.344209 2.354431,-8.577361 -0.415492,-8.321317 -9.071464,-0.256038 3.739382,-3.328526 4.708855,-1.408218 z"
       id="path6538"
       inkscape:connector-curvature="0" />
    <path
       style="fill:#ffffff;fill-opacity:1;stroke:#000000;stroke-width:2.017;stroke-linecap:butt;stroke-linejoin:miter;stroke-miterlimit:4;stroke-opacity:1;stroke-dasharray:none"
       d="m 29.496709,27.099642 c 0,0 -5.66602,0.06466 -9.093619,4.914159 0,0 3.847303,-1.034558 9.303472,0.193978 0,0 0.839409,14.031209 -2.867987,16.940911 0,0 -2.098531,1.163875 -4.896565,1.551842 0,0 -5.036465,0.452615 -4.721685,1.907467 l 0.484508,3.60218 14.295138,0 14.295131,0 0.484507,-3.60218 C 47.094389,51.153147 42.057924,50.700532 42.057924,50.700532 39.259891,50.312565 37.161367,49.14869 37.161367,49.14869 33.45397,46.238988 34.29338,32.207779 34.29338,32.207779 c 5.456168,-1.228536 9.303464,-0.193985 9.303464,-0.193985 -3.427592,-4.849489 -9.093611,-4.914152 -9.093611,-4.914152"
       id="path2985"
       inkscape:connector-curvature="0"
       sodipodi:nodetypes="ccccccccccccccc" />
    <path
       sodipodi:type="arc"
       style="fill:#ffffff;fill-opacity:1;stroke:#000000;stroke-width:53.63632943;stroke-linecap:butt;stroke-linejoin:miter;stroke-miterlimit:4;stroke-opacity:1;stroke-dasharray:none"
       id="path3125"
       sodipodi:cx="351.53308"
       sodipodi:cy="251.31122"
       sodipodi:rx="181.03122"
       sodipodi:ry="184.85793"
       d="m 288.35019,424.54464 a 181.03122,184.85793 0 1 1 127.21067,-0.32377"
       transform="matrix(0.03945989,0,0,0.03583751,18.134417,11.854097)"
       sodipodi:start="1.9273178"
       sodipodi:end="7.4924753"
       sodipodi:open="true" />
  </g>
</svg>
