<?xml version="1.0" encoding="UTF-8" standalone="no"?>
<!-- Created with Inkscape (http://www.inkscape.org/) -->

<svg
   xmlns:dc="http://purl.org/dc/elements/1.1/"
   xmlns:cc="http://creativecommons.org/ns#"
   xmlns:rdf="http://www.w3.org/1999/02/22-rdf-syntax-ns#"
   xmlns:svg="http://www.w3.org/2000/svg"
   xmlns="http://www.w3.org/2000/svg"
   xmlns:sodipodi="http://sodipodi.sourceforge.net/DTD/sodipodi-0.dtd"
   xmlns:inkscape="http://www.inkscape.org/namespaces/inkscape"
   width="64px"
   height="64px"
   id="svg4398"
   version="1.1"
   inkscape:version="0.48.5 r10040"
   sodipodi:docname="white_rook.svg">
  <defs
     id="defs4400" />
  <sodipodi:namedview
     id="base"
     pagecolor="#ffffff"
     bordercolor="#666666"
     borderopacity="1.0"
     inkscape:pageopacity="0.0"
     inkscape:pageshadow="2"
     inkscape:zoom="22"
     inkscape:cx="26.038764"
     inkscape:cy="21.365014"
     inkscape:current-layer="layer1"
     showgrid="true"
     inkscape:document-units="px"
     inkscape:grid-bbox="true"
     inkscape:window-width="1920"
     inkscape:window-height="1018"
     inkscape:window-x="0"
     inkscape:window-y="27"
     inkscape:window-maximized="1" />
  <metadata
     id="metadata4403">
    <rdf:RDF>
      <cc:Work
         rdf:about="">
        <dc:format>image/svg+xml</dc:format>
        <dc:type
           rdf:resource="http://purl.org/dc/dcmitype/StillImage" />
        <dc:title />
      </cc:Work>
    </rdf:RDF>
  </metadata>
  <g
     id="layer1"
     inkscape:label="Layer 1"
     inkscape:groupmode="layer">
    <path
       style="fill:#ffffff;fill-opacity:1;stroke:#000000;stroke-width:0.05328657px;stroke-linecap:butt;stroke-linejoin:miter;stroke-opacity:1"
       d="m 19.581176,52.866234 26.179376,0 -0.134948,-2.650988 -25.842014,-0.06462 0,3.038932 z"
       id="path5997"
       inkscape:connector-curvature="0" />
    <path
       style="fill:#ffffff;fill-opacity:1;stroke:#000000;stroke-width:0.05328657px;stroke-linecap:butt;stroke-linejoin:miter;stroke-opacity:1"
       d="m 19.986013,49.891958 25.774539,-0.06463 -2.159124,-3.426879 -21.658713,0.517265 z"
       id="path5995"
       inkscape:connector-curvature="0" />
    <path
       style="fill:#ffffff;fill-opacity:1;stroke:#000000;stroke-width:0.05328657px;stroke-linecap:butt;stroke-linejoin:miter;stroke-opacity:1"
       d="m 21.672827,19.793604 22.029807,-0.09698 -2.462752,9.246104 1.012094,11.282845 1.754288,6.336494 -22.906956,0.06462 3.441103,-13.933818 -1.315719,-7.888298 z"
       id="path5993"
       inkscape:connector-curvature="0" />
    <path
       style="fill:#ffffff;fill-opacity:1;stroke:#000000;stroke-width:0.05328657px;stroke-linecap:butt;stroke-linejoin:miter;stroke-opacity:1"
       d="m 19.51816,16.047462 26.049843,0 -2.135257,3.552167 -21.861126,-0.193961 z"
       id="path5991"
       inkscape:connector-curvature="0" />
    <path
       style="fill:#ffffff;fill-opacity:1;stroke:#000000;stroke-width:2.01700592;stroke-linecap:butt;stroke-linejoin:miter;stroke-miterlimit:4;stroke-opacity:1;stroke-dasharray:none"
       d="m 15.202504,53.037935 33.593292,0 0.0097,3.078239 -32.603741,0 0.0024,-3.859552"
       id="path2985"
       inkscape:connector-curvature="0"
       sodipodi:nodetypes="ccccc" />
    <path
       style="fill:none;stroke:#000000;stroke-width:2.01700592;stroke-linecap:butt;stroke-linejoin:miter;stroke-miterlimit:4;stroke-opacity:1;stroke-dasharray:none"
       d="m 19.762535,53.030462 0.0091,-2.726472 25.996248,-0.373585 m 0,0 -0.907217,-1.460486 m 0,0 -1.017462,-1.637943 -22.263075,0.0095"
       id="path3024-5"
       inkscape:connector-curvature="0"
       sodipodi:nodetypes="cccccccc" />
    <path
       style="fill:none;stroke:#000000;stroke-width:2.01700592;stroke-linecap:butt;stroke-linejoin:miter;stroke-miterlimit:4;stroke-opacity:1;stroke-dasharray:none"
       d="M 45.565501,53.023883 45.590761,50.30399 19.622,49.930405 m 0,0 0.907225,-1.460479 m 0,0 1.017462,-1.63795"
       id="path3024-5-2"
       inkscape:connector-curvature="0"
       sodipodi:nodetypes="ccccccc" />
    <path
       style="fill:#ffffff;fill-opacity:1;stroke:#000000;stroke-width:2.01660299;stroke-linecap:butt;stroke-linejoin:miter;stroke-miterlimit:4;stroke-opacity:1;stroke-dasharray:none"
       d="m 45.559278,8.7353948 -0.0079,7.3112752 -25.661229,0.01603 -0.0055,-3.182384 -0.0023,-3.1823866 5.186301,0 0,3.1823866 5.17782,0 0,-3.1823866 5.177821,0 0,3.1823866 5.177817,0 0,-3.1823866 5.963804,0.026536"
       id="path2985-7"
       inkscape:connector-curvature="0"
       sodipodi:nodetypes="cccccccccccccc" />
    <path
       style="fill:none;stroke:#000000;stroke-width:2.01700592;stroke-linecap:butt;stroke-linejoin:miter;stroke-miterlimit:4;stroke-opacity:1;stroke-dasharray:none"
       d="m 45.714461,16.452522 -0.907224,1.460472 m 0,0 -1.017462,1.637958 -22.214466,-0.0095"
       id="path3024-5-25"
       inkscape:connector-curvature="0"
       sodipodi:nodetypes="ccccc" />
    <path
       style="fill:none;stroke:#000000;stroke-width:2.01700592;stroke-linecap:butt;stroke-linejoin:miter;stroke-miterlimit:4;stroke-opacity:1;stroke-dasharray:none"
       d="m 19.679605,16.393003 0.907215,1.460471 m 0,0 1.017464,1.63796 c 5.658714,12.349716 -0.565839,27.399985 -0.09307,27.399985"
       id="path3024-5-25-0-0-1"
       inkscape:connector-curvature="0"
       sodipodi:nodetypes="ccccc" />
    <path
       style="fill:none;stroke:#000000;stroke-width:2.01700592;stroke-linecap:butt;stroke-linejoin:miter;stroke-miterlimit:4;stroke-opacity:1;stroke-dasharray:none"
       d="m 45.68357,16.497018 -0.907223,1.460479 m 0,0 -1.017463,1.637958 c -5.658707,12.349718 0.498364,27.43231 0.02557,27.43231"
       id="path3024-5-25-0-0-1-4"
       inkscape:connector-curvature="0"
       sodipodi:nodetypes="ccccc" />
  </g>
</svg>
